<svg xmlns="http://www.w3.org/2000/svg" xmlns:xlink="http://www.w3.org/1999/xlink" width="1366" zoomAndPan="magnify" viewBox="0 0 1024.5 576" height="768" preserveAspectRatio="xMidYMid meet" version="1.0"><defs><clipPath id="3702a00941"><path d="M 320.046875 331 L 574 331 L 574 353 L 320.046875 353 Z M 320.046875 331 " clip-rule="nonzero"/></clipPath><clipPath id="a9704e3ece"><path d="M 320.046875 223 L 574.921875 223 L 574.921875 353 L 320.046875 353 Z M 320.046875 223 " clip-rule="nonzero"/></clipPath></defs><g clip-path="url(#3702a00941)"><path fill="#d6a526" d="M 443.609375 334.878906 C 443.78125 335.222656 443.851562 335.414062 443.851562 335.414062 C 443.773438 335.230469 443.6875 335.058594 443.609375 334.878906 Z M 573.886719 347.101562 C 569.847656 342.730469 564.519531 337.160156 559.019531 331.488281 C 559.121094 331.640625 559.222656 331.796875 559.324219 331.953125 C 559.261719 331.945312 559.195312 331.9375 559.132812 331.929688 C 561.324219 335.527344 563.53125 339.566406 565.722656 343.152344 C 527.902344 340.660156 489.957031 340.070312 452.078125 341.386719 C 451.324219 339.238281 450.355469 337.417969 448.871094 335.769531 C 448.832031 335.777344 448.789062 335.785156 448.746094 335.792969 C 447.855469 335.429688 446.972656 335.140625 446.035156 334.957031 C 445.984375 335.109375 445.933594 335.261719 445.882812 335.414062 L 443.851562 335.414062 C 441.183594 337.730469 438.988281 340.1875 436.613281 342.800781 C 401.167969 339.246094 365.425781 341.050781 329.847656 342.863281 C 330.457031 341.578125 331.050781 340.242188 331.648438 338.890625 C 325.824219 342.582031 321.472656 345.378906 320.796875 345.917969 C 326.179688 347.585938 400.863281 348.09375 431.484375 346.757812 C 430.8125 349.777344 432.300781 351.183594 435.125 351.640625 C 441.175781 352.617188 450.492188 351.964844 454.578125 350.644531 C 456.96875 349.871094 457.6875 347.855469 457.160156 345.957031 C 495.027344 346.960938 536.003906 347.328125 573.886719 347.101562 Z M 573.886719 347.101562 " fill-opacity="1" fill-rule="nonzero"/></g><path fill="#f7c184" d="M 448.820312 335.714844 C 448.835938 335.734375 448.855469 335.753906 448.871094 335.769531 C 448.832031 335.777344 448.789062 335.785156 448.746094 335.792969 C 448.769531 335.765625 448.796875 335.742188 448.820312 335.714844 Z M 559.019531 331.488281 C 556.234375 327.21875 553.445312 322.953125 550.660156 318.683594 C 549.25 318.582031 547.765625 318.480469 546.21875 318.386719 C 519.582031 316.71875 473.84375 316.382812 453.230469 331.753906 C 465.585938 324.300781 480.894531 322.316406 495.488281 322.546875 C 516.933594 322.882812 538.074219 327.355469 559.058594 331.808594 C 559.082031 331.847656 559.105469 331.890625 559.132812 331.929688 C 559.195312 331.9375 559.261719 331.945312 559.324219 331.953125 C 559.222656 331.796875 559.121094 331.640625 559.019531 331.488281 Z M 363.5625 318.839844 C 360.339844 319.035156 357.070312 319.261719 353.753906 319.519531 C 349.1875 322.101562 340.890625 326.789062 335.933594 329.558594 C 340.601562 328.828125 345.222656 328.117188 349.832031 327.433594 C 359.359375 326.023438 368.832031 324.726562 378.535156 323.675781 C 389.832031 322.449219 401.265625 321.640625 412.542969 323.0625 C 423.816406 324.484375 435.011719 328.269531 443.851562 335.414062 C 430.136719 318.710938 400.195312 316.613281 363.5625 318.839844 Z M 363.5625 318.839844 " fill-opacity="1" fill-rule="nonzero"/><path fill="#ffffff" d="M 565.722656 343.152344 C 527.902344 340.660156 489.957031 340.070312 452.078125 341.386719 C 451.324219 339.238281 450.355469 337.417969 448.871094 335.769531 C 448.855469 335.753906 448.835938 335.734375 448.820312 335.714844 C 448.796875 335.742188 448.769531 335.765625 448.746094 335.792969 C 447.855469 335.429688 446.972656 335.140625 446.035156 334.957031 C 445.984375 335.109375 445.933594 335.261719 445.882812 335.414062 L 443.851562 335.414062 C 443.851562 335.414062 443.78125 335.222656 443.609375 334.878906 C 443.6875 335.058594 443.773438 335.230469 443.851562 335.414062 C 430.136719 318.710938 400.195312 316.613281 363.5625 318.839844 C 360.339844 319.035156 357.070312 319.261719 353.753906 319.519531 C 349.113281 319.875 344.382812 320.285156 339.578125 320.726562 C 347.539062 315.035156 356.675781 307.707031 361.285156 303.949219 C 356.105469 303.292969 350.609375 302.695312 344.765625 302.167969 C 348.53125 298.738281 355.160156 293.097656 360.1875 289.132812 C 356.441406 288.316406 352.53125 287.53125 348.445312 286.777344 C 354.085938 283.152344 361.582031 277.707031 367.546875 273.300781 C 364.617188 272.238281 361.589844 271.183594 358.425781 270.136719 C 363.855469 267.964844 370.816406 263.691406 377.242188 260.496094 C 373.605469 258.625 370.636719 257.191406 368.683594 256.191406 C 378.585938 251.773438 392.222656 244.988281 401.515625 240.9375 C 399.695312 238.320312 398.082031 236.007812 396.761719 234.046875 C 404.265625 231.117188 413.132812 228.625 421.085938 227.332031 C 421.640625 228.488281 422.207031 229.707031 422.785156 230.972656 L 421.066406 231.289062 C 415.515625 232.308594 410.113281 234 404.972656 236.332031 L 407.992188 240.558594 L 421.746094 259.820312 L 421.898438 260.035156 L 431.886719 254.003906 C 432.234375 255.023438 432.582031 256.054688 432.929688 257.101562 C 430.550781 246.574219 428.140625 235.835938 425.96875 225.113281 C 439.398438 223.53125 453.132812 223.328125 466.582031 224.726562 C 462.886719 250.511719 460.5625 275.65625 455.167969 301.261719 C 463.929688 277.082031 476.789062 254.382812 493.117188 234.507812 C 498.890625 235.75 504.339844 237.535156 509.765625 239.867188 C 509.089844 240.664062 508.414062 241.46875 507.738281 242.277344 C 520.421875 251.535156 532.96875 264.769531 543.710938 280.3125 C 541.21875 281.195312 538.707031 282.085938 536.1875 282.992188 C 542.480469 288.800781 550.234375 297.175781 554.558594 302.667969 C 552.910156 302.871094 551.292969 303.082031 549.691406 303.292969 C 554.070312 308.457031 558.023438 313.949219 561.707031 319.636719 C 558.972656 319.363281 555.191406 319.015625 550.660156 318.683594 C 549.25 318.582031 547.765625 318.480469 546.21875 318.386719 C 519.582031 316.71875 473.84375 316.382812 453.230469 331.753906 C 465.585938 324.300781 480.894531 322.316406 495.488281 322.546875 C 516.933594 322.882812 538.074219 327.355469 559.058594 331.808594 C 559.082031 331.847656 559.105469 331.890625 559.132812 331.929688 C 561.324219 335.527344 563.53125 339.566406 565.722656 343.152344 Z M 430.351562 249.652344 C 428.953125 245.785156 427.542969 242.136719 426.148438 238.757812 C 427.542969 242.136719 428.953125 245.785156 430.351562 249.652344 Z M 430.351562 249.652344 C 430.863281 251.070312 431.375 252.515625 431.882812 253.992188 C 431.375 252.515625 430.863281 251.070312 430.351562 249.652344 Z M 378.535156 323.675781 C 368.832031 324.726562 359.359375 326.023438 349.832031 327.433594 C 345.222656 328.117188 340.601562 328.828125 335.933594 329.558594 C 334.425781 332.503906 333.035156 335.742188 331.648438 338.890625 C 331.050781 340.242188 330.457031 341.578125 329.847656 342.863281 C 365.425781 341.050781 401.167969 339.246094 436.613281 342.800781 C 438.988281 340.1875 441.183594 337.730469 443.851562 335.414062 C 435.011719 328.269531 423.816406 324.484375 412.542969 323.0625 C 401.265625 321.640625 389.832031 322.449219 378.535156 323.675781 Z M 378.535156 323.675781 " fill-opacity="1" fill-rule="nonzero"/><path fill="#ede2de" d="M 431.886719 254.003906 L 421.898438 260.035156 L 421.746094 259.820312 L 407.992188 240.558594 L 404.972656 236.332031 C 410.113281 234 415.515625 232.308594 421.066406 231.289062 L 422.785156 230.972656 C 422.789062 230.980469 422.789062 230.984375 422.792969 230.992188 C 422.96875 231.378906 423.144531 231.769531 423.320312 232.164062 C 423.332031 232.1875 423.339844 232.207031 423.351562 232.230469 C 423.523438 232.613281 423.695312 233 423.867188 233.394531 C 423.882812 233.425781 423.898438 233.460938 423.910156 233.496094 C 424.082031 233.878906 424.253906 234.273438 424.421875 234.667969 C 424.4375 234.703125 424.453125 234.738281 424.46875 234.773438 C 424.640625 235.167969 424.8125 235.570312 424.984375 235.972656 C 425 236.007812 425.015625 236.042969 425.03125 236.082031 C 425.207031 236.496094 425.386719 236.917969 425.5625 237.34375 C 425.570312 237.363281 425.578125 237.378906 425.585938 237.398438 C 425.773438 237.84375 425.957031 238.292969 426.144531 238.746094 C 426.148438 238.75 426.148438 238.753906 426.148438 238.757812 C 428.050781 243.378906 429.992188 248.488281 431.882812 253.992188 C 431.882812 253.996094 431.882812 254 431.886719 254.003906 Z M 431.886719 254.003906 " fill-opacity="1" fill-rule="nonzero"/><g clip-path="url(#a9704e3ece)"><path fill="#071500" d="M 574.375 346.652344 C 569.121094 340.980469 563.773438 335.40625 558.386719 329.875 L 553.984375 322.804688 C 553.269531 321.664062 552.539062 320.527344 551.8125 319.390625 C 555.09375 319.632812 558.371094 319.914062 561.644531 320.242188 C 561.777344 320.253906 561.917969 320.226562 562.039062 320.148438 C 562.320312 319.964844 562.398438 319.585938 562.214844 319.304688 C 560.265625 316.277344 558.234375 313.296875 556.101562 310.386719 C 555.035156 308.929688 553.9375 307.496094 552.824219 306.074219 C 552.265625 305.367188 551.703125 304.660156 551.132812 303.960938 L 550.933594 303.722656 C 551.097656 303.699219 551.261719 303.679688 551.425781 303.652344 C 552.714844 303.4375 553.972656 303.171875 555.1875 302.925781 C 555.023438 302.558594 554.839844 302.125 554.582031 301.707031 C 554.335938 301.296875 554 300.894531 553.816406 300.683594 C 553.382812 300.171875 552.957031 299.648438 552.515625 299.144531 C 551.640625 298.125 550.75 297.121094 549.859375 296.117188 C 548.070312 294.117188 546.246094 292.152344 544.386719 290.21875 C 542.527344 288.289062 540.636719 286.386719 538.695312 284.53125 C 538.242188 284.097656 537.789062 283.667969 537.328125 283.238281 L 537.332031 283.238281 L 540.65625 282.082031 C 541.917969 281.648438 543.207031 281.074219 544.359375 280.523438 C 543.769531 279.445312 543.085938 278.269531 542.332031 277.210938 L 540.304688 274.46875 C 538.949219 272.675781 537.582031 270.894531 536.167969 269.144531 C 533.34375 265.644531 530.394531 262.246094 527.308594 258.972656 C 524.222656 255.703125 521.03125 252.527344 517.675781 249.527344 C 514.761719 246.914062 511.726562 244.429688 508.582031 242.09375 C 509.203125 241.296875 509.824219 240.503906 510.429688 239.714844 C 510.0625 239.390625 509.535156 239.019531 509.023438 238.820312 L 507.996094 238.40625 C 507.3125 238.136719 506.625 237.875 505.9375 237.617188 C 504.558594 237.109375 503.167969 236.625 501.769531 236.175781 C 498.96875 235.277344 496.121094 234.519531 493.246094 233.90625 L 493.242188 233.90625 C 493.023438 233.859375 492.789062 233.933594 492.640625 234.117188 C 486.738281 241.367188 481.207031 248.921875 476.203125 256.824219 L 472.539062 262.804688 L 469.0625 268.894531 L 465.808594 275.105469 L 462.746094 281.414062 C 460.765625 285.660156 458.917969 289.96875 457.203125 294.328125 C 458.078125 289.800781 458.875 285.265625 459.605469 280.714844 C 461.128906 271.425781 462.304688 262.089844 463.476562 252.761719 C 464.640625 243.429688 465.773438 234.101562 467.082031 224.796875 L 467.082031 224.792969 L 467.085938 224.773438 C 467.113281 224.496094 466.910156 224.25 466.636719 224.222656 C 459.867188 223.542969 453.058594 223.265625 446.261719 223.359375 C 439.460938 223.417969 432.664062 223.835938 425.910156 224.613281 L 425.867188 224.617188 C 425.59375 224.671875 425.417969 224.9375 425.472656 225.210938 L 425.472656 225.214844 C 426.921875 232.457031 428.464844 239.675781 430.039062 246.886719 C 429.4375 245.300781 428.808594 243.730469 428.167969 242.160156 L 425.789062 236.425781 L 424.59375 233.5625 L 423.996094 232.128906 L 423.824219 231.722656 C 423.753906 231.566406 423.683594 231.410156 423.605469 231.257812 C 423.449219 230.949219 423.273438 230.652344 423.097656 230.371094 C 423.082031 230.371094 423.0625 230.375 423.042969 230.375 C 422.542969 229.289062 422.035156 228.203125 421.519531 227.125 C 421.429688 226.9375 421.222656 226.820312 421.007812 226.859375 C 416.828125 227.554688 412.703125 228.511719 408.636719 229.652344 C 404.558594 230.773438 400.53125 232.074219 396.585938 233.597656 C 396.550781 233.613281 396.515625 233.628906 396.488281 233.652344 C 396.265625 233.800781 396.210938 234.101562 396.359375 234.320312 C 397.8125 236.46875 399.28125 238.601562 400.75 240.730469 C 399.382812 241.335938 398.027344 241.953125 396.671875 242.574219 C 393.527344 244.023438 390.40625 245.511719 387.285156 247 C 384.167969 248.5 381.039062 249.964844 377.90625 251.429688 C 374.777344 252.890625 371.640625 254.34375 368.484375 255.738281 C 368.382812 255.785156 368.296875 255.863281 368.242188 255.96875 C 368.121094 256.210938 368.21875 256.507812 368.460938 256.628906 C 371.027344 257.929688 373.59375 259.214844 376.140625 260.523438 C 374.097656 261.570312 372.089844 262.671875 370.085938 263.769531 C 368.144531 264.835938 366.191406 265.882812 364.230469 266.894531 C 362.265625 267.902344 360.28125 268.875 358.25 269.691406 C 358.125 269.742188 358.019531 269.847656 357.972656 269.984375 C 357.890625 270.234375 358.027344 270.507812 358.277344 270.589844 C 361.035156 271.519531 363.78125 272.480469 366.515625 273.476562 C 364.09375 275.269531 361.667969 277.054688 359.222656 278.820312 C 355.609375 281.433594 351.929688 283.96875 348.1875 286.378906 C 348.082031 286.445312 348.003906 286.558594 347.976562 286.691406 C 347.929688 286.949219 348.101562 287.195312 348.359375 287.242188 C 351.941406 287.925781 355.515625 288.652344 359.078125 289.433594 C 357.222656 290.917969 355.394531 292.425781 353.574219 293.949219 C 350.507812 296.539062 347.4375 299.121094 344.449219 301.816406 C 344.367188 301.890625 344.308594 301.996094 344.296875 302.117188 C 344.265625 302.375 344.453125 302.609375 344.714844 302.636719 L 344.726562 302.636719 L 358.035156 304.113281 C 358.691406 304.195312 359.351562 304.261719 360.011719 304.335938 C 357.292969 306.5625 354.5625 308.773438 351.800781 310.945312 C 349.75 312.558594 347.6875 314.152344 345.613281 315.730469 C 343.53125 317.296875 341.429688 318.835938 339.308594 320.347656 C 339.179688 320.441406 339.097656 320.601562 339.113281 320.769531 C 339.136719 321.027344 339.367188 321.214844 339.621094 321.191406 C 343.601562 320.84375 347.578125 320.511719 351.558594 320.207031 L 346.25 323.222656 L 340.988281 326.203125 L 335.753906 329.128906 L 335.707031 329.152344 C 335.707031 329.15625 335.703125 329.160156 335.699219 329.160156 C 335.621094 329.199219 335.550781 329.253906 335.507812 329.339844 C 334.019531 332.273438 332.742188 335.289062 331.433594 338.277344 L 326.375 341.480469 L 323.386719 343.394531 C 322.386719 344.050781 321.410156 344.664062 320.386719 345.398438 L 320.363281 345.414062 C 320.238281 345.503906 320.148438 345.636719 320.113281 345.796875 C 320.039062 346.136719 320.257812 346.476562 320.601562 346.546875 C 320.910156 346.613281 321.242188 346.703125 321.539062 346.742188 L 322.421875 346.863281 L 324.167969 347.03125 C 325.328125 347.125 326.484375 347.199219 327.640625 347.265625 C 329.949219 347.394531 332.257812 347.492188 334.570312 347.5625 C 339.1875 347.714844 343.804688 347.816406 348.417969 347.894531 C 357.652344 348.050781 366.882812 348.117188 376.117188 348.132812 C 385.347656 348.144531 394.578125 348.101562 403.8125 347.984375 C 408.425781 347.925781 413.042969 347.851562 417.660156 347.746094 C 422.035156 347.65625 426.414062 347.539062 430.792969 347.367188 C 430.730469 347.859375 430.714844 348.367188 430.804688 348.886719 C 430.941406 349.664062 431.347656 350.464844 431.976562 350.976562 C 433.226562 352.03125 434.78125 352.203125 436.109375 352.382812 C 438.863281 352.71875 441.617188 352.765625 444.367188 352.675781 C 447.113281 352.558594 449.855469 352.332031 452.585938 351.804688 C 453.269531 351.671875 453.949219 351.507812 454.632812 351.304688 C 455.339844 351.101562 456.074219 350.75 456.664062 350.199219 C 457.265625 349.664062 457.695312 348.914062 457.878906 348.128906 C 457.980469 347.734375 458 347.332031 457.992188 346.9375 C 457.984375 346.753906 457.96875 346.574219 457.941406 346.398438 C 460.175781 346.605469 462.242188 346.777344 464.4375 346.8125 L 471.734375 346.96875 L 486.328125 347.234375 C 496.054688 347.394531 505.785156 347.503906 515.511719 347.59375 C 534.972656 347.804688 554.429688 347.871094 573.890625 347.769531 C 574.050781 347.769531 574.210938 347.710938 574.339844 347.59375 C 574.609375 347.34375 574.625 346.921875 574.375 346.652344 Z M 515.523438 346.390625 C 505.796875 346.292969 496.074219 346.140625 486.347656 345.957031 L 471.761719 345.648438 L 464.472656 345.472656 C 461.882812 345.386719 459.15625 345.445312 456.625 345.539062 C 456.570312 345.710938 456.527344 345.941406 456.542969 346.164062 C 456.546875 346.265625 456.570312 346.40625 456.582031 346.457031 L 456.597656 346.5625 C 456.625 346.703125 456.636719 346.847656 456.644531 346.988281 C 456.648438 347.273438 456.640625 347.558594 456.574219 347.824219 C 456.449219 348.363281 456.179688 348.855469 455.765625 349.230469 C 455.359375 349.617188 454.84375 349.886719 454.246094 350.066406 C 453.625 350.257812 452.984375 350.417969 452.328125 350.550781 C 449.714844 351.089844 447.011719 351.332031 444.320312 351.449219 C 441.625 351.550781 438.917969 351.511719 436.257812 351.195312 L 435.269531 351.058594 C 434.949219 351.007812 434.636719 350.941406 434.335938 350.863281 C 433.730469 350.699219 433.171875 350.445312 432.75 350.085938 C 432.316406 349.730469 432.070312 349.242188 431.964844 348.683594 C 431.859375 348.125 431.925781 347.5 432.054688 346.886719 L 432.058594 346.878906 C 432.066406 346.832031 432.070312 346.78125 432.066406 346.734375 C 432.054688 346.410156 431.78125 346.160156 431.457031 346.175781 C 422.25 346.582031 413.023438 346.742188 403.796875 346.824219 C 394.574219 346.910156 385.347656 346.925781 376.121094 346.886719 C 366.894531 346.84375 357.667969 346.757812 348.441406 346.578125 C 343.832031 346.488281 339.222656 346.375 334.613281 346.214844 C 332.3125 346.132812 330.011719 346.035156 327.714844 345.921875 C 326.566406 345.859375 325.417969 345.789062 324.277344 345.703125 L 322.578125 345.542969 L 322.511719 345.535156 C 323.035156 345.1875 323.570312 344.839844 324.097656 344.492188 L 327.070312 342.570312 L 330.5 340.378906 C 330.15625 341.148438 329.804688 341.914062 329.445312 342.671875 C 329.414062 342.734375 329.398438 342.808594 329.402344 342.886719 C 329.414062 343.132812 329.621094 343.320312 329.867188 343.308594 L 329.871094 343.308594 L 343.214844 342.671875 L 356.558594 342.136719 C 365.457031 341.808594 374.351562 341.5625 383.25 341.484375 C 392.148438 341.394531 401.042969 341.386719 409.933594 341.671875 L 416.601562 341.921875 L 423.261719 342.277344 C 425.480469 342.425781 427.695312 342.597656 429.914062 342.769531 L 434.445312 343.199219 C 434.847656 343.367188 435.5625 343.835938 436.011719 345.125 C 436.839844 347.515625 440.320312 347.875 443.238281 347.875 C 443.945312 347.875 444.617188 347.855469 445.214844 347.835938 L 445.371094 347.832031 C 452.03125 347.625 452.722656 345.523438 453.273438 343.835938 C 453.585938 342.886719 453.804688 342.230469 455.066406 341.910156 C 456.445312 341.886719 457.828125 341.851562 459.199219 341.800781 L 466.296875 341.605469 L 473.398438 341.457031 L 480.5 341.363281 C 489.972656 341.300781 499.441406 341.351562 508.910156 341.511719 C 518.378906 341.675781 527.847656 341.859375 537.3125 342.21875 C 546.777344 342.558594 556.238281 343.039062 565.691406 343.628906 L 565.695312 343.628906 C 565.789062 343.636719 565.886719 343.613281 565.972656 343.558594 C 566.199219 343.421875 566.265625 343.128906 566.128906 342.90625 C 564.984375 341.042969 563.886719 339.148438 562.785156 337.253906 C 562.351562 336.507812 561.914062 335.761719 561.476562 335.011719 L 563.054688 336.644531 C 566.175781 339.890625 569.285156 343.152344 572.351562 346.445312 C 553.410156 346.558594 534.46875 346.546875 515.523438 346.390625 Z M 332.78125 337.425781 C 333.035156 336.851562 333.292969 336.273438 333.550781 335.703125 C 334.316406 335.632812 335.082031 335.566406 335.84375 335.503906 C 336.292969 335.464844 336.742188 335.421875 337.191406 335.386719 C 337.640625 335.347656 338.089844 335.3125 338.539062 335.277344 C 342.128906 334.984375 345.722656 334.71875 349.3125 334.449219 C 354.660156 334.007812 360.015625 333.636719 365.375 333.328125 C 370.734375 333.046875 376.097656 332.953125 381.460938 332.785156 L 389.507812 332.496094 C 392.1875 332.394531 394.871094 332.34375 397.554688 332.292969 C 397.722656 332.289062 397.863281 332.152344 397.863281 331.980469 C 397.863281 331.808594 397.726562 331.667969 397.550781 331.667969 L 389.492188 331.632812 C 386.804688 331.625 384.117188 331.632812 381.429688 331.699219 C 376.058594 331.828125 370.691406 332.164062 365.328125 332.433594 C 359.960938 332.683594 354.59375 332.996094 349.230469 333.367188 C 346.25 333.59375 343.273438 333.867188 340.296875 334.164062 C 339.835938 334.207031 339.371094 334.253906 338.910156 334.300781 C 338.453125 334.347656 337.992188 334.394531 337.535156 334.441406 C 336.339844 334.5625 335.144531 334.691406 333.945312 334.816406 C 334.679688 333.195312 335.4375 331.585938 336.242188 330.003906 C 336.246094 330 336.246094 329.996094 336.25 329.992188 C 337.710938 329.769531 339.171875 329.546875 340.632812 329.328125 C 342.152344 329.097656 343.671875 328.871094 345.191406 328.648438 C 345.882812 328.542969 346.578125 328.441406 347.273438 328.339844 C 347.761719 328.269531 348.25 328.195312 348.734375 328.125 C 349.226562 328.050781 349.71875 327.980469 350.210938 327.910156 C 354.640625 327.269531 359.070312 326.652344 363.511719 326.082031 C 372.691406 324.917969 381.898438 323.84375 391.109375 323.253906 C 400.308594 322.695312 409.601562 322.851562 418.621094 324.691406 C 423.117188 325.628906 427.53125 326.984375 431.722656 328.847656 C 433.816406 329.773438 435.867188 330.808594 437.820312 332 C 438.320312 332.28125 438.789062 332.605469 439.269531 332.914062 C 439.75 333.222656 440.230469 333.539062 440.6875 333.878906 L 441.386719 334.375 L 441.734375 334.625 L 441.808594 334.679688 L 442 334.820312 C 442.203125 334.96875 442.425781 335.085938 442.671875 335.199219 C 442.652344 335.207031 442.628906 335.214844 442.609375 335.222656 C 442.328125 335.332031 442.058594 335.453125 441.796875 335.585938 C 440.484375 336.253906 439.433594 337.191406 438.609375 338.175781 L 437.476562 337.742188 L 435.570312 337.035156 L 433.652344 336.359375 C 433.011719 336.140625 432.359375 335.949219 431.710938 335.75 C 429.105469 334.988281 426.445312 334.457031 423.792969 333.902344 C 421.140625 333.34375 418.480469 332.820312 415.792969 332.4375 C 413.105469 332.082031 410.398438 331.894531 407.691406 331.773438 C 407.46875 331.761719 407.273438 331.933594 407.257812 332.15625 C 407.238281 332.386719 407.410156 332.585938 407.640625 332.601562 C 410.320312 332.8125 412.988281 333.152344 415.652344 333.515625 C 418.316406 333.847656 420.976562 334.238281 423.609375 334.777344 C 426.246094 335.320312 428.828125 336.078125 431.414062 336.792969 L 435.304688 337.859375 C 436.265625 338.125 437.21875 338.425781 438.167969 338.734375 C 437.136719 340.113281 436.53125 341.472656 436.261719 342.167969 L 430.007812 341.621094 C 427.78125 341.46875 425.558594 341.316406 423.335938 341.140625 L 416.660156 340.738281 L 409.976562 340.441406 C 401.066406 340.121094 392.144531 340.011719 383.234375 340.15625 C 374.320312 340.3125 365.414062 340.636719 356.515625 341.042969 L 343.167969 341.71875 L 330.5625 342.375 C 331 341.425781 331.429688 340.46875 331.855469 339.515625 C 332.011719 339.164062 332.164062 338.8125 332.320312 338.464844 C 332.472656 338.117188 332.628906 337.773438 332.78125 337.425781 Z M 341.417969 326.96875 L 346.695312 324.011719 L 353.792969 320.039062 C 356.328125 319.851562 358.863281 319.683594 361.398438 319.53125 C 361.785156 319.507812 362.171875 319.488281 362.558594 319.464844 C 362.953125 319.441406 363.347656 319.421875 363.742188 319.398438 C 364.734375 319.34375 365.730469 319.277344 366.722656 319.230469 C 375.765625 318.765625 384.820312 318.605469 393.847656 318.9375 C 398.363281 319.097656 402.867188 319.410156 407.34375 319.964844 C 411.816406 320.515625 416.261719 321.304688 420.605469 322.472656 C 421.695312 322.738281 422.761719 323.09375 423.835938 323.425781 C 424.90625 323.761719 425.949219 324.179688 427.007812 324.554688 C 429.074219 325.410156 431.136719 326.296875 433.070312 327.417969 C 434.066406 327.933594 434.988281 328.5625 435.929688 329.15625 C 436.402344 329.453125 436.835938 329.808594 437.289062 330.128906 C 437.480469 330.269531 437.671875 330.40625 437.859375 330.546875 C 436.039062 329.488281 434.152344 328.542969 432.222656 327.703125 C 427.9375 325.8125 423.433594 324.480469 418.867188 323.503906 C 409.710938 321.578125 400.304688 321.375 391.03125 321.910156 C 386.386719 322.167969 381.765625 322.652344 377.15625 323.183594 C 372.550781 323.714844 367.949219 324.304688 363.355469 324.9375 C 359.707031 325.441406 356.0625 325.972656 352.421875 326.519531 C 351.929688 326.59375 351.4375 326.664062 350.945312 326.738281 C 350.460938 326.8125 349.976562 326.882812 349.496094 326.953125 C 345.796875 327.515625 342.097656 328.097656 338.402344 328.683594 Z M 352.363281 311.664062 C 355.382812 309.300781 358.378906 306.914062 361.363281 304.507812 L 364.667969 304.996094 L 371.289062 305.984375 L 374.597656 306.480469 C 375.695312 306.664062 376.789062 306.890625 377.882812 307.09375 L 384.453125 308.347656 C 385.546875 308.566406 386.648438 308.75 387.734375 308.992188 L 390.988281 309.765625 L 397.496094 311.285156 C 397.589844 311.3125 397.6875 311.339844 397.785156 311.363281 C 398.859375 311.652344 399.933594 311.945312 401.007812 312.246094 C 401.300781 312.324219 401.59375 312.410156 401.886719 312.492188 C 402.335938 312.621094 402.789062 312.746094 403.238281 312.878906 C 403.699219 313.011719 404.160156 313.144531 404.621094 313.28125 C 404.671875 313.292969 404.722656 313.308594 404.773438 313.324219 C 410.898438 315.128906 416.941406 317.1875 422.75 319.824219 L 425.738281 321.296875 L 427.226562 322.035156 L 427.96875 322.410156 L 428.683594 322.835938 C 430.582031 323.976562 432.535156 325.035156 434.292969 326.371094 L 435.644531 327.324219 C 435.984375 327.546875 436.285156 327.816406 436.589844 328.082031 C 435.628906 327.480469 434.6875 326.847656 433.679688 326.328125 C 431.683594 325.183594 429.566406 324.285156 427.449219 323.417969 C 425.300781 322.625 423.132812 321.890625 420.925781 321.296875 C 412.101562 318.882812 402.976562 317.960938 393.898438 317.589844 C 389.355469 317.402344 384.808594 317.433594 380.269531 317.523438 C 375.726562 317.621094 371.191406 317.824219 366.664062 318.09375 C 366.347656 318.113281 366.03125 318.136719 365.714844 318.15625 C 365.320312 318.179688 364.925781 318.207031 364.53125 318.234375 C 364.140625 318.257812 363.75 318.285156 363.359375 318.308594 C 360.882812 318.46875 358.410156 318.644531 355.9375 318.835938 C 355.558594 318.867188 355.183594 318.894531 354.804688 318.925781 C 354.425781 318.953125 354.046875 318.980469 353.667969 319.011719 C 349.511719 319.347656 345.359375 319.71875 341.210938 320.109375 C 344.972656 317.347656 348.679688 314.523438 352.363281 311.664062 Z M 345.882812 301.808594 C 348.589844 299.367188 351.339844 296.964844 354.144531 294.632812 C 356.15625 292.960938 358.183594 291.304688 360.238281 289.691406 C 365.296875 290.816406 370.328125 292.046875 375.324219 293.425781 C 384.207031 295.878906 392.976562 298.765625 401.488281 302.273438 C 405.558594 303.9375 409.546875 305.789062 413.457031 307.785156 C 413.636719 307.878906 413.824219 307.96875 414.003906 308.0625 C 415.699219 308.949219 417.367188 309.890625 419.011719 310.859375 C 419.222656 310.984375 419.429688 311.101562 419.636719 311.222656 C 419.871094 311.363281 420.101562 311.503906 420.332031 311.644531 C 420.5625 311.78125 420.785156 311.929688 421.011719 312.070312 C 422.625 313.070312 424.21875 314.105469 425.773438 315.199219 C 426.847656 315.957031 427.902344 316.75 428.9375 317.5625 C 430.996094 319.183594 432.964844 320.917969 434.796875 322.78125 C 435.246094 323.242188 435.691406 323.703125 436.125 324.179688 C 437.664062 325.859375 439.097656 327.640625 440.335938 329.539062 C 440.421875 329.675781 440.503906 329.820312 440.589844 329.957031 L 440.28125 329.648438 C 440.144531 329.5 440 329.363281 439.855469 329.222656 C 439.847656 329.21875 439.84375 329.210938 439.835938 329.203125 C 439.167969 328.558594 438.433594 327.992188 437.730469 327.386719 C 437.285156 327.035156 436.878906 326.632812 436.40625 326.324219 L 435.515625 325.703125 L 435.015625 325.351562 C 433.460938 324.1875 431.78125 323.230469 430.113281 322.257812 C 429.835938 322.097656 429.554688 321.933594 429.277344 321.769531 L 428.546875 321.34375 L 427.792969 320.964844 L 426.28125 320.222656 L 423.257812 318.71875 C 420.789062 317.582031 418.277344 316.558594 415.742188 315.601562 C 413.660156 314.820312 411.5625 314.089844 409.453125 313.40625 C 409.035156 313.269531 408.621094 313.136719 408.203125 313.003906 C 407.78125 312.867188 407.355469 312.734375 406.929688 312.601562 C 406.503906 312.472656 406.078125 312.34375 405.652344 312.214844 C 405.476562 312.164062 405.304688 312.109375 405.132812 312.058594 C 402.707031 311.332031 400.269531 310.644531 397.828125 309.984375 C 389.121094 307.847656 380.320312 306.148438 371.464844 304.847656 L 364.816406 303.917969 L 362.5 303.59375 L 361.839844 303.5 L 361.492188 303.449219 C 361.375 303.433594 361.257812 303.421875 361.140625 303.40625 C 360.148438 303.277344 359.152344 303.191406 358.15625 303.078125 Z M 359.746094 279.546875 C 362.367188 277.671875 364.972656 275.765625 367.566406 273.855469 C 373.246094 275.941406 378.867188 278.183594 384.394531 280.628906 C 392.917969 284.40625 401.199219 288.722656 409.09375 293.644531 C 414.5 297.082031 419.714844 300.863281 424.46875 305.144531 C 425.789062 306.335938 427.082031 307.554688 428.324219 308.824219 C 426.417969 307.230469 424.476562 305.679688 422.476562 304.203125 C 421.472656 303.46875 420.457031 302.746094 419.445312 302.027344 C 418.859375 301.65625 418.277344 301.273438 417.6875 300.90625 C 417.210938 300.605469 416.726562 300.316406 416.230469 300.054688 C 415.683594 299.753906 415.144531 299.429688 414.589844 299.148438 L 412.921875 298.296875 C 411.816406 297.714844 410.679688 297.210938 409.5625 296.660156 C 405.070312 294.507812 400.480469 292.582031 395.867188 290.726562 C 391.234375 288.921875 386.550781 287.273438 381.828125 285.691406 C 381.613281 285.621094 381.378906 285.734375 381.304688 285.949219 C 381.226562 286.164062 381.339844 286.402344 381.554688 286.480469 L 381.5625 286.480469 C 386.230469 288.132812 390.859375 289.929688 395.472656 291.738281 C 395.898438 291.902344 396.328125 292.074219 396.753906 292.242188 C 400.628906 293.75 404.476562 295.328125 408.253906 297.054688 C 408.5625 297.195312 408.871094 297.328125 409.179688 297.46875 C 411.402344 298.550781 413.625 299.644531 415.730469 300.921875 C 416.808594 301.519531 417.804688 302.226562 418.824219 302.902344 C 419.132812 303.121094 419.4375 303.347656 419.742188 303.566406 C 420.441406 304.070312 421.140625 304.566406 421.832031 305.078125 C 424.304688 306.886719 426.792969 308.695312 429.195312 310.601562 C 429.367188 310.738281 429.539062 310.878906 429.710938 311.019531 C 429.882812 311.160156 430.058594 311.300781 430.230469 311.441406 C 430.515625 311.671875 430.796875 311.90625 431.082031 312.140625 C 431.429688 312.433594 431.777344 312.726562 432.121094 313.023438 C 432.402344 313.363281 432.679688 313.707031 432.953125 314.058594 C 433.625 314.910156 434.273438 315.78125 434.910156 316.65625 C 436.230469 318.558594 437.449219 320.519531 438.53125 322.558594 C 439.527344 324.453125 440.382812 326.414062 441.113281 328.421875 C 439.890625 326.613281 438.511719 324.925781 437.046875 323.332031 C 435.472656 321.601562 433.746094 320.023438 431.992188 318.492188 C 430.207031 316.992188 428.375 315.558594 426.476562 314.210938 C 425.371094 313.421875 424.242188 312.664062 423.101562 311.921875 C 422.882812 311.777344 422.660156 311.640625 422.4375 311.5 C 422.21875 311.359375 422.003906 311.222656 421.785156 311.085938 C 419.441406 309.609375 417.046875 308.21875 414.605469 306.917969 C 410.492188 304.773438 406.285156 302.800781 402 301.03125 C 400.9375 300.558594 399.847656 300.171875 398.769531 299.738281 C 397.691406 299.320312 396.613281 298.890625 395.519531 298.503906 L 392.242188 297.351562 L 390.601562 296.777344 L 388.949219 296.246094 C 386.738281 295.546875 384.542969 294.8125 382.3125 294.191406 C 380.089844 293.539062 377.871094 292.882812 375.625 292.316406 C 370.875 291.050781 366.09375 289.910156 361.289062 288.863281 C 361.09375 288.820312 360.894531 288.777344 360.695312 288.734375 C 360.5 288.695312 360.304688 288.652344 360.113281 288.609375 C 356.644531 287.867188 353.167969 287.171875 349.679688 286.527344 C 353.09375 284.273438 356.417969 281.90625 359.746094 279.546875 Z M 364.648438 267.707031 C 366.621094 266.679688 368.558594 265.597656 370.511719 264.550781 C 372.722656 263.363281 374.933594 262.167969 377.175781 261.054688 C 378.503906 261.742188 379.824219 262.433594 381.136719 263.148438 C 385.3125 265.402344 389.421875 267.773438 393.441406 270.289062 C 401.390625 275.25 408.945312 280.835938 415.914062 287.070312 C 415.578125 286.835938 415.238281 286.597656 414.894531 286.371094 C 410.890625 283.707031 406.648438 281.449219 402.40625 279.230469 C 398.160156 277.007812 393.84375 274.929688 389.472656 272.972656 C 385.082031 271.054688 380.625 269.304688 376.113281 267.679688 C 375.902344 267.601562 375.664062 267.710938 375.582031 267.921875 C 375.5 268.136719 375.609375 268.375 375.824219 268.457031 L 375.832031 268.460938 C 380.28125 270.15625 384.671875 272.046875 389.035156 273.964844 C 393.417969 275.851562 397.742188 277.863281 401.992188 280.027344 C 406.226562 282.222656 410.316406 284.675781 414.296875 287.277344 C 416.855469 288.972656 419.410156 290.722656 421.765625 292.695312 C 426.527344 297.628906 430.804688 303.027344 434.332031 308.894531 C 434.589844 309.347656 434.851562 309.796875 435.113281 310.246094 C 435.195312 310.386719 435.269531 310.527344 435.351562 310.667969 C 435.433594 310.8125 435.511719 310.960938 435.589844 311.105469 C 435.753906 311.394531 435.917969 311.679688 436.074219 311.976562 L 436.785156 313.40625 L 437.648438 315.140625 C 437.972656 315.871094 438.285156 316.609375 438.597656 317.351562 C 438.742188 317.695312 438.886719 318.042969 439.035156 318.390625 C 439.148438 318.660156 439.273438 318.929688 439.375 319.203125 L 439.664062 320.039062 L 440.246094 321.703125 C 440.402344 322.179688 440.589844 322.644531 440.730469 323.121094 C 440.757812 323.207031 440.785156 323.292969 440.804688 323.378906 L 441.273438 325.082031 L 441.523438 325.984375 C 440.953125 324.621094 440.332031 323.28125 439.636719 321.976562 C 438.519531 319.890625 437.261719 317.886719 435.90625 315.953125 C 435.394531 315.25 434.867188 314.558594 434.335938 313.871094 C 433.660156 313 432.96875 312.144531 432.253906 311.3125 C 432.128906 311.167969 432.003906 311.023438 431.878906 310.882812 C 431.753906 310.742188 431.636719 310.597656 431.511719 310.460938 C 431.503906 310.449219 431.496094 310.441406 431.488281 310.429688 C 425.238281 303.355469 417.710938 297.5625 409.808594 292.511719 C 408.820312 291.878906 407.808594 291.285156 406.808594 290.671875 L 405.304688 289.757812 L 403.765625 288.902344 L 400.691406 287.1875 L 397.570312 285.570312 L 396.011719 284.757812 L 391.265625 282.460938 C 389.140625 281.46875 386.996094 280.527344 384.859375 279.566406 C 379.492188 277.25 374.054688 275.113281 368.5625 273.125 C 368.386719 273.0625 368.210938 273 368.035156 272.9375 C 367.855469 272.871094 367.675781 272.808594 367.496094 272.746094 C 364.933594 271.828125 362.359375 270.9375 359.773438 270.078125 C 361.433594 269.347656 363.050781 268.539062 364.648438 267.707031 Z M 387.671875 247.816406 C 390.800781 246.347656 393.929688 244.886719 397.074219 243.460938 C 398.488281 242.820312 399.90625 242.1875 401.328125 241.570312 C 402.347656 243.046875 403.367188 244.523438 404.378906 246.007812 C 407.046875 249.902344 409.675781 253.824219 412.238281 257.785156 C 413.414062 259.601562 414.574219 261.433594 415.722656 263.269531 C 414.609375 261.945312 413.472656 260.640625 412.339844 259.335938 C 410.347656 257.042969 408.347656 254.757812 406.257812 252.550781 C 404.148438 250.363281 401.953125 248.269531 399.699219 246.21875 C 399.535156 246.066406 399.277344 246.074219 399.121094 246.238281 C 398.960938 246.402344 398.964844 246.664062 399.132812 246.824219 L 399.136719 246.828125 C 401.304688 248.921875 403.386719 251.121094 405.476562 253.300781 C 407.582031 255.46875 409.667969 257.652344 411.660156 259.925781 C 413.65625 262.195312 415.46875 264.617188 417.328125 266.988281 C 418.363281 268.316406 419.398438 269.644531 420.40625 270.996094 C 422.558594 274.660156 424.644531 278.367188 426.664062 282.105469 C 426.828125 282.414062 426.988281 282.722656 427.152344 283.03125 C 427.582031 283.835938 428.007812 284.644531 428.425781 285.453125 C 428.910156 286.390625 429.386719 287.328125 429.855469 288.273438 C 431.296875 291.167969 432.664062 294.101562 433.949219 297.066406 C 433.53125 296.332031 433.109375 295.601562 432.667969 294.882812 C 429.851562 290.28125 426.589844 285.984375 423.28125 281.753906 C 422.484375 280.726562 421.675781 279.710938 420.851562 278.707031 C 419.992188 277.667969 419.117188 276.640625 418.226562 275.628906 C 417.484375 274.792969 416.730469 273.96875 415.960938 273.15625 C 414.847656 271.976562 413.707031 270.824219 412.523438 269.703125 C 408.582031 266.015625 404.226562 262.777344 399.640625 259.957031 C 399.445312 259.835938 399.191406 259.894531 399.070312 260.085938 C 398.945312 260.28125 399.003906 260.539062 399.199219 260.660156 C 403.492188 263.398438 407.503906 266.542969 411.234375 269.992188 C 411.417969 270.160156 411.601562 270.328125 411.78125 270.496094 C 412.410156 271.078125 413.027344 271.667969 413.636719 272.269531 C 414.542969 273.160156 415.433594 274.070312 416.304688 275 C 418.496094 277.339844 420.582031 279.789062 422.574219 282.304688 C 425.882812 286.515625 428.925781 290.917969 431.742188 295.453125 C 433.144531 297.71875 434.503906 300.015625 435.75 302.375 C 436.34375 303.492188 436.898438 304.625 437.425781 305.773438 C 437.679688 306.46875 437.9375 307.160156 438.179688 307.859375 C 438.429688 308.578125 438.660156 309.300781 438.890625 310.023438 C 438.9375 310.167969 438.988281 310.308594 439.03125 310.453125 C 439.082031 310.601562 439.132812 310.746094 439.179688 310.894531 C 439.5625 312.121094 439.933594 313.351562 440.28125 314.589844 C 440.566406 315.726562 440.875 316.863281 441.140625 318.003906 L 441.878906 321.445312 L 442.300781 323.914062 L 442.355469 324.253906 L 442.160156 323.554688 L 442.007812 323.007812 C 441.859375 322.425781 441.621094 321.871094 441.433594 321.300781 L 440.53125 318.757812 C 440.425781 318.476562 440.296875 318.203125 440.183594 317.925781 C 439.707031 316.824219 439.25 315.714844 438.757812 314.621094 L 437.140625 311.410156 C 437.074219 311.28125 436.996094 311.15625 436.929688 311.027344 C 436.847656 310.878906 436.765625 310.734375 436.683594 310.589844 C 436.605469 310.449219 436.53125 310.308594 436.449219 310.167969 C 436.089844 309.539062 435.722656 308.914062 435.371094 308.28125 C 430.472656 300.035156 424.144531 292.707031 417.058594 286.296875 C 416.191406 285.476562 415.277344 284.707031 414.375 283.921875 L 413.019531 282.75 L 411.632812 281.617188 C 410.707031 280.863281 409.777344 280.113281 408.820312 279.398438 C 407.867188 278.679688 406.933594 277.933594 405.957031 277.246094 C 402.105469 274.421875 398.132812 271.777344 394.070312 269.277344 C 390.007812 266.777344 385.851562 264.433594 381.644531 262.199219 C 380.554688 261.617188 379.460938 261.042969 378.359375 260.480469 C 378.179688 260.386719 378 260.300781 377.820312 260.207031 C 377.644531 260.117188 377.46875 260.03125 377.292969 259.941406 C 374.808594 258.679688 372.316406 257.445312 369.828125 256.207031 C 375.820312 253.492188 381.722656 250.601562 387.671875 247.816406 Z M 408.871094 230.5 C 412.804688 229.425781 416.785156 228.53125 420.800781 227.871094 C 421.207031 228.738281 421.609375 229.609375 422.003906 230.480469 C 421.753906 230.515625 421.503906 230.546875 421.257812 230.59375 L 419.722656 230.902344 C 418.738281 231.105469 417.761719 231.335938 416.789062 231.578125 C 414.84375 232.085938 412.914062 232.644531 411.003906 233.269531 C 409.101562 233.90625 407.21875 234.617188 405.371094 235.414062 L 405.027344 235.566406 L 404.855469 235.640625 L 404.726562 235.699219 L 404.703125 235.707031 L 404.695312 235.714844 C 404.152344 237.738281 404.546875 236.28125 404.429688 236.734375 L 404.863281 237.34375 L 405.730469 238.558594 L 405.765625 238.609375 L 406.078125 239.039062 L 406.300781 239.339844 L 406.398438 239.476562 L 407.011719 240.316406 L 407.488281 240.972656 C 409.824219 244.195312 412.214844 247.382812 414.566406 250.59375 L 418.070312 255.433594 L 420.40625 258.738281 L 421.515625 260.308594 C 421.648438 260.496094 421.902344 260.558594 422.109375 260.453125 C 422.117188 260.449219 422.128906 260.449219 422.136719 260.445312 L 422.144531 260.441406 L 422.644531 260.148438 L 427.183594 257.5 C 428.648438 256.644531 430.117188 255.796875 431.574219 254.933594 C 431.808594 255.621094 432.039062 256.308594 432.265625 257 L 437.363281 280.074219 C 439.070312 287.949219 440.699219 295.839844 442.074219 303.769531 C 441.945312 303.3125 441.816406 302.855469 441.667969 302.40625 L 440.660156 299.277344 L 439.542969 296.183594 C 439.175781 295.152344 438.769531 294.136719 438.375 293.113281 C 437.980469 292.09375 437.601562 291.066406 437.183594 290.054688 C 435.617188 285.964844 433.90625 281.9375 432.140625 277.929688 C 430.324219 273.945312 428.378906 270.03125 426.335938 266.152344 C 426.230469 265.953125 425.988281 265.875 425.785156 265.972656 C 425.785156 265.972656 425.785156 265.972656 425.78125 265.972656 C 425.578125 266.078125 425.492188 266.328125 425.597656 266.53125 L 425.597656 266.535156 C 427.550781 270.429688 429.351562 274.410156 431.152344 278.378906 C 432.390625 281.074219 433.601562 283.785156 434.757812 286.519531 C 435.300781 287.800781 435.835938 289.089844 436.347656 290.382812 C 437.933594 294.445312 439.34375 298.574219 440.632812 302.726562 C 441.363281 305.078125 442.085938 307.433594 442.710938 309.816406 C 442.75 309.957031 442.789062 310.101562 442.824219 310.246094 C 442.863281 310.394531 442.902344 310.542969 442.941406 310.691406 C 443.195312 311.699219 443.429688 312.710938 443.636719 313.726562 C 443.667969 313.988281 443.703125 314.25 443.734375 314.515625 L 444.175781 317.984375 L 444.519531 321.464844 C 444.617188 322.628906 444.773438 323.785156 444.828125 324.949219 L 445.046875 328.433594 L 445.097656 329.308594 C 445.117188 329.605469 445.136719 329.867188 445.140625 330.210938 C 445.152344 330.8125 445.179688 331.433594 445.230469 332.058594 L 445.21875 334.640625 C 445.210938 334.644531 445.203125 334.644531 445.191406 334.644531 C 444.992188 334.65625 444.808594 334.691406 444.617188 334.714844 C 444.554688 334.722656 444.488281 334.730469 444.425781 334.738281 C 444.414062 334.742188 444.402344 334.742188 444.390625 334.742188 C 444.386719 334.746094 444.378906 334.746094 444.371094 334.746094 C 444.363281 334.746094 444.355469 334.75 444.347656 334.75 C 444.347656 334.726562 444.347656 334.703125 444.351562 334.679688 C 444.382812 334.242188 444.40625 333.820312 444.421875 333.398438 C 444.441406 332.882812 444.441406 332.371094 444.421875 331.839844 L 444.238281 329.675781 L 444.121094 328.277344 L 443.886719 326.472656 L 443.660156 324.734375 L 443.402344 323.304688 L 443.03125 321.222656 L 442.261719 317.738281 C 442.175781 317.378906 442.078125 317.023438 441.984375 316.664062 C 441.78125 315.871094 441.570312 315.082031 441.363281 314.292969 C 441.039062 313.132812 440.707031 311.976562 440.355469 310.828125 C 440.3125 310.679688 440.265625 310.53125 440.21875 310.386719 C 440.175781 310.242188 440.128906 310.097656 440.082031 309.953125 C 439.824219 309.125 439.5625 308.304688 439.28125 307.484375 C 437.832031 303.214844 436.175781 299.023438 434.363281 294.902344 C 433.75 293.503906 433.121094 292.113281 432.472656 290.730469 C 431.96875 289.660156 431.457031 288.597656 430.933594 287.535156 C 429.933594 285.5 428.902344 283.480469 427.839844 281.480469 C 425.632812 277.289062 423.261719 273.1875 420.808594 269.136719 C 418.359375 265.085938 415.820312 261.09375 413.21875 257.144531 C 410.617188 253.191406 407.949219 249.289062 405.253906 245.40625 C 404.273438 243.984375 403.28125 242.570312 402.289062 241.15625 C 402.191406 241.015625 402.089844 240.871094 401.992188 240.730469 C 401.894531 240.589844 401.796875 240.449219 401.699219 240.3125 C 400.292969 238.304688 398.894531 236.296875 397.507812 234.28125 C 401.230469 232.839844 405.023438 231.582031 408.871094 230.5 Z M 446.269531 224.242188 C 452.863281 224.191406 459.457031 224.492188 466.011719 225.175781 C 464.679688 234.308594 463.496094 243.464844 462.277344 252.605469 C 461.042969 261.925781 459.738281 271.230469 458.292969 280.507812 C 457.164062 287.632812 455.898438 294.734375 454.417969 301.789062 C 453.746094 303.679688 453.09375 305.578125 452.472656 307.484375 L 451.90625 309.324219 L 451.757812 309.808594 L 451.617188 310.265625 L 450.410156 314.179688 L 448.550781 320.9375 L 446.90625 327.746094 L 446.523438 329.53125 L 446.386719 330.164062 C 446.386719 330.140625 446.386719 330.117188 446.386719 330.09375 C 446.386719 329.851562 446.351562 329.53125 446.335938 329.246094 L 446.273438 328.367188 L 446.03125 324.851562 C 445.96875 323.679688 445.804688 322.519531 445.695312 321.351562 L 445.59375 320.394531 L 445.324219 317.851562 L 444.859375 314.367188 C 444.691406 313.207031 444.566406 312.039062 444.382812 310.882812 L 444.339844 310.617188 L 444.273438 310.167969 L 444.207031 309.738281 L 443.855469 307.40625 C 443.695312 306.386719 443.53125 305.371094 443.363281 304.355469 C 442.011719 296.125 440.375 287.949219 438.644531 279.800781 C 438.539062 279.289062 438.425781 278.78125 438.316406 278.269531 C 437.34375 273.691406 436.324219 269.128906 435.28125 264.570312 C 434.726562 262.140625 434.171875 259.710938 433.613281 257.28125 C 433.238281 255.65625 432.867188 254.035156 432.496094 252.410156 C 430.449219 243.472656 428.433594 234.527344 426.578125 225.554688 C 433.113281 224.78125 439.6875 224.332031 446.269531 224.242188 Z M 466.96875 275.695312 L 470.253906 269.546875 L 473.6875 263.480469 L 477.308594 257.519531 C 482.195312 249.765625 487.511719 242.269531 493.351562 235.195312 C 496.058594 235.796875 498.738281 236.523438 501.378906 237.382812 C 502.757812 237.832031 504.121094 238.316406 505.476562 238.839844 C 506.152344 239.101562 506.824219 239.367188 507.496094 239.644531 L 508.496094 240.058594 C 508.65625 240.144531 508.800781 240.0625 509.105469 240.023438 C 508.660156 240.519531 508.222656 241.011719 507.785156 241.503906 C 507.640625 241.667969 507.5 241.832031 507.355469 241.996094 C 507.210938 242.160156 507.0625 242.324219 506.917969 242.488281 C 504.671875 245.054688 502.519531 247.628906 500.273438 250.605469 C 497.316406 254.359375 494.460938 258.1875 491.585938 262 C 485.917969 269.691406 480.386719 277.480469 475.105469 285.4375 C 470.011719 293.117188 465.113281 300.921875 460.332031 308.792969 C 460.234375 308.960938 460.128906 309.125 460.03125 309.292969 C 459.957031 309.414062 459.878906 309.535156 459.804688 309.65625 C 459.78125 309.699219 459.757812 309.742188 459.730469 309.785156 C 456.382812 315.332031 453.117188 320.925781 449.914062 326.5625 C 449.539062 327.226562 449.15625 327.890625 448.78125 328.558594 C 448.375 329.28125 447.972656 330.007812 447.570312 330.730469 C 447.460938 330.925781 447.351562 331.121094 447.242188 331.316406 C 447.140625 331.496094 447.042969 331.675781 446.941406 331.855469 L 447.328125 330.011719 L 447.765625 327.941406 L 448.414062 325.328125 L 449.449219 321.171875 L 451.34375 314.457031 L 451.917969 312.632812 L 452.683594 310.207031 L 452.832031 309.746094 L 452.984375 309.261719 L 453.445312 307.800781 C 453.714844 306.992188 453.992188 306.183594 454.273438 305.375 C 454.789062 303.878906 455.320312 302.386719 455.871094 300.898438 C 458.246094 294.460938 460.921875 288.136719 463.875 281.945312 Z M 526.429688 259.800781 C 529.476562 263.058594 532.394531 266.445312 535.1875 269.933594 C 536.582031 271.675781 537.941406 273.445312 539.273438 275.238281 L 541.214844 277.921875 C 541.75 278.695312 542.363281 279.347656 543.0625 280.105469 C 542.019531 280.328125 541.109375 280.535156 540.179688 280.882812 L 536.917969 282.074219 L 536.3125 282.296875 L 535.679688 282.527344 L 535.035156 282.761719 L 530.347656 284.476562 C 525.96875 286.085938 521.617188 287.765625 517.265625 289.445312 C 508.570312 292.832031 499.957031 296.464844 491.589844 300.636719 C 487.410156 302.726562 483.285156 304.941406 479.273438 307.355469 C 479.230469 307.378906 479.1875 307.410156 479.140625 307.4375 C 478.828125 307.625 478.519531 307.824219 478.207031 308.019531 C 477.90625 308.203125 477.609375 308.386719 477.3125 308.574219 C 474 310.65625 470.761719 312.859375 467.652344 315.238281 C 461.65625 319.816406 456.085938 325.050781 451.46875 331.046875 C 450.917969 331.757812 450.386719 332.484375 449.863281 333.21875 C 449.851562 333.238281 449.835938 333.257812 449.820312 333.277344 C 449.472656 333.773438 449.128906 334.273438 448.792969 334.777344 C 448.789062 334.78125 448.789062 334.785156 448.785156 334.789062 C 448.761719 334.824219 448.738281 334.859375 448.714844 334.894531 C 448.65625 334.980469 448.597656 335.066406 448.542969 335.148438 C 448.53125 335.144531 448.515625 335.140625 448.503906 335.136719 C 448.464844 335.121094 448.421875 335.105469 448.382812 335.089844 C 448.175781 335.011719 447.96875 334.941406 447.757812 334.871094 C 447.363281 334.746094 446.964844 334.628906 446.554688 334.535156 C 446.613281 334.390625 446.675781 334.246094 446.734375 334.101562 C 449.125 329.789062 451.597656 325.515625 454.117188 321.269531 C 456.679688 317.558594 459.785156 314.214844 462.933594 310.957031 C 463.417969 310.457031 463.910156 309.96875 464.402344 309.476562 C 464.570312 309.304688 464.738281 309.132812 464.910156 308.960938 C 465.082031 308.789062 465.25 308.613281 465.425781 308.441406 C 468.238281 305.660156 471.160156 302.976562 474.125 300.351562 C 477.996094 296.960938 482.039062 293.773438 486.0625 290.566406 C 490.085938 287.363281 494.082031 284.105469 498.253906 281.09375 C 498.390625 280.996094 498.425781 280.804688 498.328125 280.664062 C 498.230469 280.523438 498.035156 280.488281 497.894531 280.585938 C 495.761719 282.042969 493.679688 283.566406 491.582031 285.066406 L 488.460938 287.359375 C 487.429688 288.132812 486.410156 288.925781 485.390625 289.714844 C 481.328125 292.902344 477.425781 296.285156 473.535156 299.675781 C 470.222656 302.542969 466.96875 305.480469 463.832031 308.550781 C 463.65625 308.722656 463.480469 308.898438 463.304688 309.070312 C 463.128906 309.242188 462.953125 309.410156 462.78125 309.582031 C 462.574219 309.789062 462.363281 309.992188 462.15625 310.199219 C 461.261719 311.132812 460.390625 312.089844 459.503906 313.035156 C 459.023438 313.554688 458.5625 314.097656 458.101562 314.640625 C 458.992188 313.175781 459.882812 311.710938 460.78125 310.25 C 460.894531 310.066406 461.011719 309.878906 461.125 309.695312 C 461.230469 309.527344 461.332031 309.363281 461.433594 309.199219 C 461.539062 309.03125 461.644531 308.863281 461.746094 308.695312 C 462.1875 307.984375 462.628906 307.277344 463.074219 306.566406 C 463.082031 306.558594 463.09375 306.554688 463.101562 306.542969 C 464.640625 304.585938 466.421875 302.832031 468.144531 301.03125 C 469.867188 299.230469 471.550781 297.378906 473.351562 295.644531 C 475.152344 293.910156 477.027344 292.25 478.882812 290.574219 L 484.382812 285.464844 L 484.386719 285.460938 C 484.546875 285.308594 484.5625 285.054688 484.417969 284.886719 C 484.269531 284.710938 484.007812 284.691406 483.832031 284.839844 C 481.925781 286.46875 480.003906 288.082031 478.152344 289.773438 C 476.316406 291.488281 474.527344 293.25 472.726562 295 C 470.929688 296.75 469.066406 298.441406 467.351562 300.285156 C 466.972656 300.699219 466.601562 301.121094 466.234375 301.546875 C 468.339844 298.234375 470.464844 294.941406 472.613281 291.660156 C 475.421875 288.609375 478.3125 285.628906 481.160156 282.605469 C 484.105469 279.425781 487.070312 276.265625 490.050781 273.117188 C 493.046875 269.984375 496.15625 266.960938 499.1875 263.867188 C 502.222656 260.78125 505.160156 257.582031 508.328125 254.644531 L 508.332031 254.640625 C 508.457031 254.527344 508.464844 254.335938 508.355469 254.207031 C 508.238281 254.078125 508.042969 254.066406 507.914062 254.179688 C 506.277344 255.617188 504.6875 257.097656 503.105469 258.582031 C 501.515625 260.066406 499.945312 261.5625 498.414062 263.101562 C 495.351562 266.175781 492.414062 269.371094 489.40625 272.496094 L 480.367188 281.859375 C 478.832031 283.5 477.308594 285.15625 475.800781 286.824219 C 475.941406 286.613281 476.082031 286.394531 476.222656 286.183594 L 480.1875 280.234375 L 484.242188 274.34375 C 485.578125 272.371094 486.96875 270.4375 488.351562 268.496094 C 489.746094 266.566406 491.097656 264.601562 492.527344 262.695312 L 496.789062 256.957031 C 497.496094 255.996094 498.242188 255.070312 498.980469 254.132812 L 501.195312 251.332031 L 503.410156 248.527344 C 503.765625 248.066406 504.167969 247.585938 504.570312 247.101562 L 505.765625 245.640625 C 506.4375 244.804688 507.105469 243.960938 507.773438 243.117188 C 510.90625 245.425781 513.929688 247.875 516.839844 250.460938 C 520.171875 253.425781 523.378906 256.539062 526.429688 259.800781 Z M 543.492188 291.078125 C 545.332031 293.007812 547.136719 294.972656 548.90625 296.964844 C 549.792969 297.960938 550.660156 298.972656 551.511719 299.992188 C 551.945312 300.5 552.359375 301.019531 552.785156 301.53125 C 553.03125 301.828125 553.109375 301.953125 553.28125 302.0625 C 553.445312 302.167969 553.675781 302.257812 553.929688 302.410156 C 552.820312 302.464844 551.753906 302.5 550.714844 302.582031 C 550.488281 302.601562 550.257812 302.628906 550.03125 302.652344 C 549.761719 302.679688 549.492188 302.703125 549.222656 302.738281 C 549.199219 302.738281 549.175781 302.742188 549.148438 302.746094 L 548.359375 302.84375 L 547.496094 302.964844 C 546.933594 303.046875 546.367188 303.125 545.800781 303.203125 C 544.042969 303.453125 542.28125 303.695312 540.523438 303.96875 C 538.292969 304.304688 536.058594 304.644531 533.832031 305.007812 C 533.742188 305.023438 533.652344 305.039062 533.5625 305.050781 C 533.410156 305.074219 533.257812 305.101562 533.105469 305.125 C 532.863281 305.160156 532.617188 305.203125 532.375 305.238281 C 530.449219 305.539062 528.527344 305.855469 526.605469 306.171875 C 517.339844 307.734375 508.109375 309.535156 498.972656 311.773438 C 494.402344 312.878906 489.867188 314.144531 485.375 315.550781 C 480.882812 316.957031 476.433594 318.515625 472.070312 320.300781 C 472.066406 320.304688 472.058594 320.308594 472.050781 320.3125 C 467.945312 321.984375 463.925781 323.886719 460.078125 326.113281 C 459.839844 326.25 459.601562 326.382812 459.367188 326.523438 C 457.769531 327.488281 456.199219 328.515625 454.691406 329.628906 C 454.046875 330.109375 453.414062 330.609375 452.792969 331.125 C 452.9375 330.945312 453.078125 330.765625 453.222656 330.585938 C 453.582031 330.140625 453.953125 329.703125 454.324219 329.265625 C 458.484375 324.40625 463.292969 320.085938 468.40625 316.234375 C 472.109375 313.449219 475.988281 310.890625 479.972656 308.515625 C 480.054688 308.464844 480.140625 308.417969 480.222656 308.367188 C 480.542969 308.175781 480.863281 307.992188 481.183594 307.800781 C 481.519531 307.601562 481.855469 307.40625 482.191406 307.207031 C 485.460938 305.304688 488.792969 303.503906 492.171875 301.796875 C 500.472656 297.613281 509.027344 293.9375 517.683594 290.507812 C 522.003906 288.78125 526.378906 287.183594 530.753906 285.589844 L 536.054688 283.695312 C 536.660156 284.257812 537.265625 284.824219 537.859375 285.402344 C 539.777344 287.253906 541.648438 289.148438 543.492188 291.078125 Z M 555.082031 311.132812 C 556.960938 313.671875 558.757812 316.273438 560.496094 318.910156 C 557.328125 318.609375 554.15625 318.335938 550.984375 318.09375 C 550.734375 318.074219 550.484375 318.054688 550.234375 318.039062 C 549.984375 318.019531 549.734375 318 549.484375 317.984375 C 548.488281 317.910156 547.492188 317.839844 546.496094 317.773438 C 546.183594 317.753906 545.871094 317.734375 545.5625 317.714844 C 545.242188 317.695312 544.921875 317.671875 544.605469 317.652344 C 540.585938 317.40625 536.558594 317.214844 532.53125 317.097656 C 522.769531 316.777344 512.984375 316.925781 503.230469 317.617188 C 493.484375 318.335938 483.738281 319.570312 474.246094 322.03125 C 470.15625 323.097656 466.117188 324.417969 462.238281 326.128906 C 465.554688 324.34375 469 322.777344 472.511719 321.382812 C 473.335938 321.050781 474.167969 320.734375 475 320.421875 C 477.53125 319.464844 480.085938 318.574219 482.664062 317.746094 C 484.78125 317.066406 486.90625 316.421875 489.042969 315.808594 C 492.441406 314.835938 495.863281 313.933594 499.292969 313.066406 C 503.832031 311.921875 508.40625 310.902344 512.992188 309.953125 C 517.578125 308.992188 522.1875 308.132812 526.800781 307.320312 C 528.980469 306.933594 531.164062 306.570312 533.347656 306.226562 C 533.59375 306.1875 533.839844 306.148438 534.085938 306.109375 C 534.328125 306.070312 534.570312 306.035156 534.816406 305.996094 C 536.773438 305.695312 538.730469 305.40625 540.695312 305.132812 C 543.011719 304.789062 545.339844 304.5 547.660156 304.183594 L 549.382812 303.953125 L 550.109375 304.808594 C 550.683594 305.496094 551.25 306.1875 551.8125 306.882812 C 552.933594 308.273438 554.019531 309.695312 555.082031 311.132812 Z M 555.636719 327.066406 L 557.832031 330.265625 L 558.496094 331.230469 C 558.210938 331.167969 557.925781 331.105469 557.640625 331.042969 C 548.84375 329.148438 540.035156 327.273438 531.160156 325.703125 C 521.78125 324.042969 512.320312 322.746094 502.789062 322.152344 C 493.269531 321.582031 483.628906 321.785156 474.199219 323.53125 C 471.722656 323.988281 469.261719 324.570312 466.839844 325.285156 C 469.351562 324.394531 471.910156 323.632812 474.492188 322.976562 C 483.910156 320.597656 493.609375 319.433594 503.308594 318.8125 C 513.019531 318.199219 522.761719 318.1875 532.496094 318.417969 C 536.972656 318.546875 541.449219 318.738281 545.921875 319 C 546.242188 319.019531 546.5625 319.039062 546.878906 319.054688 C 547.195312 319.074219 547.507812 319.097656 547.820312 319.117188 C 548.664062 319.171875 549.507812 319.226562 550.351562 319.285156 C 551.136719 320.464844 551.925781 321.648438 552.726562 322.820312 Z M 422.601562 232.101562 C 422.628906 232.183594 422.664062 232.261719 422.699219 232.34375 L 422.84375 232.640625 L 423.5 234.042969 C 423.933594 234.976562 424.339844 235.921875 424.746094 236.867188 C 425.554688 238.761719 426.324219 240.671875 427.046875 242.601562 C 427.777344 244.527344 428.46875 246.46875 429.179688 248.402344 L 431.101562 253.730469 C 429.597656 254.65625 428.101562 255.601562 426.601562 256.539062 L 422.164062 259.316406 L 422.023438 259.402344 L 419.015625 255.234375 L 418.789062 254.917969 L 415.351562 250.035156 C 414.265625 248.476562 413.1875 246.910156 412.109375 245.34375 C 411.078125 243.847656 410.042969 242.355469 409 240.867188 C 408.847656 240.652344 408.699219 240.429688 408.546875 240.214844 L 406.835938 237.769531 L 406.007812 236.613281 C 407.777344 235.820312 409.578125 235.09375 411.410156 234.453125 C 412.339844 234.125 413.28125 233.824219 414.222656 233.535156 C 415.171875 233.257812 416.125 233.015625 417.085938 232.777344 C 418.042969 232.550781 419.007812 232.335938 419.976562 232.148438 L 420.703125 232.011719 L 421.375 231.894531 C 421.746094 231.824219 422.089844 231.714844 422.46875 231.578125 C 422.507812 231.765625 422.546875 231.9375 422.601562 232.101562 Z M 499.707031 330.214844 C 499.480469 330.207031 499.285156 330.378906 499.273438 330.605469 C 499.265625 330.707031 499.300781 330.800781 499.355469 330.875 C 499.429688 330.972656 499.535156 331.039062 499.664062 331.046875 C 504.816406 331.359375 509.964844 331.78125 515.109375 332.214844 C 520.257812 332.605469 525.398438 333.074219 530.53125 333.632812 C 535.664062 334.203125 540.765625 334.996094 545.882812 335.707031 C 548.445312 336.0625 551.015625 336.367188 553.59375 336.613281 C 556.175781 336.859375 558.757812 337.070312 561.351562 337.164062 C 561.457031 337.167969 561.550781 337.113281 561.609375 337.035156 C 561.738281 337.257812 561.867188 337.484375 561.996094 337.707031 C 562.9375 339.347656 563.882812 340.988281 564.855469 342.617188 C 555.695312 341.992188 546.53125 341.480469 537.359375 341.0625 C 527.890625 340.648438 518.414062 340.300781 508.933594 340.167969 C 499.453125 340.035156 489.96875 340.03125 480.488281 340.152344 L 473.378906 340.238281 L 466.269531 340.359375 L 459.160156 340.523438 C 456.921875 340.582031 454.71875 340.683594 452.476562 340.824219 C 452.472656 340.820312 452.472656 340.816406 452.472656 340.8125 C 452.515625 340.753906 452.554688 340.730469 452.546875 340.707031 L 452.378906 340.277344 C 452.257812 339.988281 452.132812 339.695312 452 339.40625 C 451.820312 339.027344 451.625 338.652344 451.421875 338.285156 C 453.941406 337.34375 456.5 336.523438 459.074219 335.753906 C 461.679688 334.953125 464.3125 334.226562 466.980469 333.644531 C 467.199219 333.597656 467.417969 333.542969 467.640625 333.496094 C 470.535156 332.898438 473.472656 332.550781 476.402344 332.199219 L 480.800781 331.6875 L 483.011719 331.496094 L 485.226562 331.367188 L 485.234375 331.367188 C 485.367188 331.359375 485.472656 331.269531 485.511719 331.148438 C 485.519531 331.117188 485.527344 331.085938 485.527344 331.050781 C 485.527344 330.878906 485.386719 330.742188 485.210938 330.742188 L 482.980469 330.769531 L 482.960938 330.769531 L 480.742188 330.828125 L 478.507812 330.929688 C 477.761719 330.980469 477.019531 331.054688 476.277344 331.121094 C 473.765625 331.390625 471.28125 331.855469 468.804688 332.351562 C 468.355469 332.441406 467.90625 332.527344 467.457031 332.621094 C 465.851562 332.945312 464.246094 333.296875 462.648438 333.683594 C 461.347656 334 460.050781 334.339844 458.761719 334.714844 C 458.753906 334.71875 458.742188 334.722656 458.734375 334.722656 C 456.097656 335.519531 453.519531 336.488281 450.980469 337.535156 C 450.660156 337.023438 450.308594 336.53125 449.929688 336.0625 C 449.816406 335.921875 449.703125 335.789062 449.585938 335.65625 C 449.582031 335.652344 449.578125 335.644531 449.574219 335.640625 C 449.742188 335.464844 449.910156 335.289062 450.082031 335.117188 C 450.871094 334.328125 451.703125 333.585938 452.574219 332.882812 C 455.191406 331.214844 457.964844 329.78125 460.835938 328.589844 C 465.199219 326.808594 469.773438 325.550781 474.421875 324.726562 C 483.730469 323.054688 493.253906 322.949219 502.710938 323.484375 C 512.179688 323.992188 521.609375 325.203125 530.972656 326.78125 C 537.351562 327.863281 543.699219 329.105469 550.042969 330.398438 C 551.859375 330.769531 553.675781 331.144531 555.492188 331.523438 C 556.582031 331.75 557.671875 331.976562 558.761719 332.203125 C 558.765625 332.203125 558.769531 332.203125 558.773438 332.207031 C 558.78125 332.214844 558.785156 332.226562 558.792969 332.234375 C 558.800781 332.246094 558.804688 332.261719 558.8125 332.273438 C 559.675781 333.675781 560.503906 335.105469 561.324219 336.539062 C 558.773438 336.371094 556.230469 336.113281 553.695312 335.757812 C 551.140625 335.40625 548.59375 334.996094 546.035156 334.628906 C 540.917969 333.882812 535.769531 333.328125 530.632812 332.742188 C 525.496094 332.125 520.351562 331.59375 515.199219 331.132812 C 512.332031 330.898438 509.460938 330.714844 506.589844 330.554688 C 504.296875 330.429688 502 330.316406 499.707031 330.214844 Z M 511.238281 271.414062 C 512.703125 270.476562 514.105469 269.441406 515.59375 268.542969 C 516.339844 268.089844 517.109375 267.679688 517.882812 267.277344 L 520.207031 266.070312 C 520.359375 265.992188 520.546875 266.050781 520.628906 266.203125 C 520.703125 266.351562 520.652344 266.527344 520.515625 266.613281 L 520.507812 266.617188 C 519.773438 267.070312 519.039062 267.527344 518.328125 268.019531 C 517.609375 268.507812 516.898438 269.003906 516.167969 269.464844 C 514.707031 270.394531 513.179688 271.222656 511.726562 272.167969 C 510.265625 273.105469 508.871094 274.136719 507.429688 275.101562 C 505.984375 276.058594 504.5 276.957031 503.042969 277.902344 C 502.851562 278.027344 502.59375 277.972656 502.46875 277.78125 C 502.347656 277.59375 502.398438 277.34375 502.574219 277.214844 C 503.988281 276.203125 505.382812 275.160156 506.828125 274.195312 C 508.277344 273.234375 509.78125 272.359375 511.238281 271.414062 Z M 453.191406 288.9375 C 453.230469 286.890625 453.285156 284.839844 453.304688 282.789062 C 453.332031 280.742188 453.359375 278.691406 453.429688 276.644531 C 453.570312 272.546875 453.847656 268.457031 454 264.363281 L 454.378906 252.074219 C 454.542969 247.980469 454.777344 243.886719 454.980469 239.792969 C 454.988281 239.5625 455.183594 239.386719 455.414062 239.398438 C 455.640625 239.410156 455.816406 239.601562 455.808594 239.824219 C 455.695312 243.921875 455.617188 248.019531 455.464844 252.117188 L 454.894531 264.398438 C 454.730469 268.492188 454.695312 272.589844 454.519531 276.6875 C 454.433594 278.734375 454.300781 280.777344 454.167969 282.824219 C 454.03125 284.871094 453.929688 286.917969 453.8125 288.960938 C 453.804688 289.132812 453.65625 289.265625 453.484375 289.257812 C 453.316406 289.246094 453.1875 289.105469 453.191406 288.9375 Z M 444.125 256.117188 C 443.613281 250.785156 443.257812 245.433594 443.082031 240.074219 C 443.074219 239.847656 443.253906 239.652344 443.484375 239.644531 C 443.710938 239.640625 443.902344 239.816406 443.914062 240.042969 C 444.171875 245.375 444.683594 250.695312 445.207031 256.015625 C 445.6875 261.335938 446.257812 266.65625 446.792969 271.984375 C 447.347656 277.308594 447.984375 282.628906 448.316406 287.980469 C 448.382812 289.320312 448.457031 290.660156 448.507812 292 L 448.582031 296.023438 L 448.578125 300.046875 L 448.484375 304.066406 C 448.480469 304.238281 448.339844 304.375 448.167969 304.371094 C 447.996094 304.367188 447.863281 304.230469 447.863281 304.0625 L 447.863281 304.054688 L 447.847656 300.046875 L 447.71875 296.046875 L 447.496094 292.046875 C 447.390625 290.71875 447.316406 289.386719 447.230469 288.054688 C 446.867188 282.726562 446.46875 277.394531 445.902344 272.078125 C 445.3125 266.761719 444.679688 261.445312 444.125 256.117188 Z M 387.089844 253.246094 C 386.949219 253.148438 386.917969 252.953125 387.015625 252.8125 C 387.105469 252.683594 387.273438 252.644531 387.40625 252.710938 C 387.796875 252.898438 388.179688 253.09375 388.578125 253.269531 C 388.976562 253.441406 389.378906 253.609375 389.75 253.824219 C 390.5 254.25 391.179688 254.789062 391.925781 255.222656 C 392.664062 255.664062 393.457031 256.019531 394.199219 256.457031 C 394.941406 256.894531 395.636719 257.40625 396.359375 257.882812 C 396.550781 258.007812 396.605469 258.265625 396.480469 258.457031 C 396.359375 258.636719 396.125 258.695312 395.933594 258.597656 C 395.171875 258.195312 394.386719 257.828125 393.644531 257.390625 C 392.90625 256.949219 392.214844 256.429688 391.46875 255.996094 C 390.730469 255.550781 389.929688 255.214844 389.195312 254.761719 C 388.828125 254.542969 388.488281 254.269531 388.144531 254.003906 C 387.800781 253.738281 387.441406 253.5 387.089844 253.246094 Z M 506.714844 265.445312 C 509.03125 263.582031 511.402344 261.785156 513.769531 259.980469 C 513.953125 259.839844 514.214844 259.875 514.351562 260.058594 C 514.488281 260.238281 514.457031 260.492188 514.285156 260.632812 L 514.28125 260.636719 L 507.394531 266.289062 C 505.070312 268.140625 502.726562 269.96875 500.429688 271.855469 C 498.132812 273.738281 495.929688 275.734375 493.652344 277.636719 C 491.367188 279.535156 489.007812 281.347656 486.734375 283.261719 C 486.601562 283.375 486.40625 283.359375 486.296875 283.226562 C 486.1875 283.097656 486.203125 282.90625 486.324219 282.792969 L 489.625 279.785156 C 490.71875 278.777344 491.816406 277.773438 492.949219 276.808594 C 495.210938 274.875 497.570312 273.058594 499.859375 271.160156 Z M 506.714844 265.445312 " fill-opacity="1" fill-rule="nonzero"/></g></svg>