<svg xmlns="http://www.w3.org/2000/svg" xmlns:xlink="http://www.w3.org/1999/xlink" width="1366" zoomAndPan="magnify" viewBox="0 0 1024.5 576" height="768" preserveAspectRatio="xMidYMid meet" version="1.0"><defs><clipPath id="732c02c8cc"><path d="M 597.253906 262 L 611 262 L 611 290 L 597.253906 290 Z M 597.253906 262 " clip-rule="nonzero"/></clipPath><clipPath id="b4ab8a856f"><path d="M 691 262 L 705.199219 262 L 705.199219 290 L 691 290 Z M 691 262 " clip-rule="nonzero"/></clipPath><clipPath id="3fc481044d"><path d="M 646 226.875 L 657 226.875 L 657 237 L 646 237 Z M 646 226.875 " clip-rule="nonzero"/></clipPath><clipPath id="0ac0577de9"><path d="M 644 301 L 662 301 L 662 314.582031 L 644 314.582031 Z M 644 301 " clip-rule="nonzero"/></clipPath></defs><path fill="#111111" d="M 666.40625 275.789062 C 664.542969 275.789062 663.03125 274.277344 663.03125 272.417969 C 663.03125 270.554688 664.542969 269.042969 666.40625 269.042969 C 668.269531 269.042969 669.777344 270.554688 669.777344 272.417969 C 669.777344 274.277344 668.269531 275.789062 666.40625 275.789062 Z M 651.226562 286.734375 C 646.570312 286.734375 642.792969 283.714844 642.792969 279.988281 L 659.660156 279.988281 C 659.660156 283.714844 655.882812 286.734375 651.226562 286.734375 Z M 636.046875 275.789062 C 634.183594 275.789062 632.675781 274.277344 632.675781 272.417969 C 632.675781 270.554688 634.183594 269.042969 636.046875 269.042969 C 637.910156 269.042969 639.421875 270.554688 639.421875 272.417969 C 639.421875 274.277344 637.910156 275.789062 636.046875 275.789062 Z M 664.71875 255.550781 L 637.734375 255.550781 C 632.144531 255.550781 627.085938 257.816406 623.421875 261.476562 C 619.761719 265.140625 617.496094 270.199219 617.496094 275.789062 C 617.496094 286.96875 626.554688 296.03125 637.734375 296.03125 L 664.71875 296.03125 C 670.308594 296.03125 675.367188 293.765625 679.03125 290.101562 C 682.691406 286.4375 684.957031 281.378906 684.957031 275.789062 C 684.957031 264.609375 675.898438 255.550781 664.71875 255.550781 " fill-opacity="1" fill-rule="nonzero"/><path fill="#111111" d="M 651.226562 309.523438 L 641.105469 309.523438 C 636.554688 309.523438 632.136719 308.632812 627.976562 306.871094 C 623.960938 305.171875 620.351562 302.738281 617.253906 299.644531 C 614.15625 296.546875 611.726562 292.9375 610.027344 288.921875 C 608.269531 284.761719 607.375 280.34375 607.375 275.789062 C 607.375 271.238281 608.269531 266.816406 610.027344 262.660156 C 611.726562 258.640625 614.15625 255.035156 617.253906 251.9375 C 620.351562 248.839844 623.960938 246.40625 627.976562 244.707031 C 632.136719 242.949219 636.554688 242.054688 641.105469 242.054688 L 661.34375 242.054688 C 665.898438 242.054688 670.316406 242.949219 674.476562 244.707031 C 678.492188 246.40625 682.101562 248.839844 685.195312 251.9375 C 688.292969 255.035156 690.726562 258.640625 692.425781 262.660156 C 694.183594 266.816406 695.078125 271.238281 695.078125 275.789062 L 691.703125 275.789062 C 691.703125 259.046875 678.085938 245.429688 661.34375 245.429688 L 641.105469 245.429688 C 624.367188 245.429688 610.75 259.046875 610.75 275.789062 C 610.75 292.53125 624.367188 306.148438 641.105469 306.148438 L 651.226562 306.148438 L 651.226562 309.523438 " fill-opacity="1" fill-rule="nonzero"/><g clip-path="url(#732c02c8cc)"><path fill="#111111" d="M 610.75 289.28125 C 603.296875 289.28125 597.257812 283.242188 597.257812 275.789062 C 597.257812 268.335938 603.296875 262.296875 610.75 262.296875 L 610.75 289.28125 " fill-opacity="1" fill-rule="nonzero"/></g><g clip-path="url(#b4ab8a856f)"><path fill="#111111" d="M 691.703125 289.28125 C 699.15625 289.28125 705.195312 283.242188 705.195312 275.789062 C 705.195312 268.335938 699.15625 262.296875 691.703125 262.296875 L 691.703125 289.28125 " fill-opacity="1" fill-rule="nonzero"/></g><path fill="#111111" d="M 659.660156 257.234375 C 659.660156 260.960938 655.882812 263.984375 651.226562 263.984375 C 646.570312 263.984375 642.792969 260.960938 642.792969 257.234375 C 642.792969 253.511719 646.570312 250.488281 651.226562 250.488281 C 655.882812 250.488281 659.660156 253.511719 659.660156 257.234375 " fill-opacity="1" fill-rule="nonzero"/><g clip-path="url(#3fc481044d)"><path fill="#111111" d="M 656.285156 231.9375 C 656.285156 234.730469 654.019531 236.996094 651.226562 236.996094 C 648.433594 236.996094 646.167969 234.730469 646.167969 231.9375 C 646.167969 229.140625 648.433594 226.875 651.226562 226.875 C 654.019531 226.875 656.285156 229.140625 656.285156 231.9375 " fill-opacity="1" fill-rule="nonzero"/></g><g clip-path="url(#0ac0577de9)"><path fill="#111111" d="M 661.34375 307.835938 C 661.34375 311.5625 657.570312 314.582031 652.914062 314.582031 C 648.253906 314.582031 644.480469 311.5625 644.480469 307.835938 C 644.480469 304.109375 648.253906 301.089844 652.914062 301.089844 C 657.570312 301.089844 661.34375 304.109375 661.34375 307.835938 " fill-opacity="1" fill-rule="nonzero"/></g><path fill="#111111" d="M 652.914062 262.367188 L 649.539062 262.367188 L 649.539062 231.9375 L 652.914062 231.9375 L 652.914062 262.367188 " fill-opacity="1" fill-rule="nonzero"/></svg>