<svg xmlns="http://www.w3.org/2000/svg" xmlns:xlink="http://www.w3.org/1999/xlink" width="1366" zoomAndPan="magnify" viewBox="0 0 1024.5 1152" height="1536" preserveAspectRatio="xMidYMid meet" version="1.0"><defs><clipPath id="a582098673"><path d="M 574 256 L 681 256 L 681 363 L 574 363 Z M 574 256 " clip-rule="nonzero"/></clipPath><clipPath id="9b95ac4c55"><path d="M 577.441406 250.324219 L 692.5625 266.0625 L 678.246094 370.789062 L 563.125 355.046875 Z M 577.441406 250.324219 " clip-rule="nonzero"/></clipPath><clipPath id="d02db36176"><path d="M 577.441406 250.324219 L 692.5625 266.0625 L 678.246094 370.789062 L 563.125 355.046875 Z M 577.441406 250.324219 " clip-rule="nonzero"/></clipPath></defs><g clip-path="url(#a582098673)"><g clip-path="url(#9b95ac4c55)"><g clip-path="url(#d02db36176)"><path fill="#231f20" d="M 680.59375 340.144531 L 672.234375 300.972656 C 672.054688 300.109375 671.75 299.292969 671.3125 298.523438 C 670.878906 297.753906 670.335938 297.066406 669.6875 296.46875 C 669.042969 295.867188 668.316406 295.378906 667.515625 295.003906 C 666.714844 294.628906 665.878906 294.382812 665.003906 294.269531 C 665.039062 293.519531 664.980469 292.777344 664.824219 292.042969 C 664.667969 291.308594 664.417969 290.609375 664.078125 289.941406 C 663.738281 289.269531 663.316406 288.65625 662.816406 288.097656 C 662.316406 287.539062 661.75 287.054688 661.125 286.640625 L 633.539062 268.753906 L 633.65625 264.199219 C 633.664062 263.777344 633.632812 263.355469 633.558594 262.9375 C 633.488281 262.519531 633.375 262.113281 633.222656 261.71875 C 633.066406 261.320312 632.878906 260.945312 632.652344 260.585938 C 632.425781 260.226562 632.164062 259.894531 631.875 259.585938 C 631.582031 259.28125 631.261719 259.003906 630.917969 258.757812 C 630.570312 258.511719 630.203125 258.304688 629.816406 258.128906 C 629.429688 257.957031 629.027344 257.824219 628.617188 257.726562 C 628.203125 257.632812 627.785156 257.578125 627.359375 257.566406 L 583.148438 256.417969 C 582.722656 256.40625 582.300781 256.4375 581.882812 256.511719 C 581.464844 256.582031 581.058594 256.695312 580.660156 256.847656 C 580.265625 257 579.886719 257.191406 579.53125 257.417969 C 579.171875 257.644531 578.835938 257.902344 578.53125 258.195312 C 578.222656 258.488281 577.945312 258.808594 577.699219 259.152344 C 577.453125 259.5 577.246094 259.867188 577.074219 260.253906 C 576.902344 260.644531 576.765625 261.042969 576.671875 261.457031 C 576.578125 261.871094 576.527344 262.289062 576.515625 262.714844 L 574.898438 325.023438 C 574.886719 325.449219 574.914062 325.871094 574.988281 326.289062 C 575.058594 326.707031 575.171875 327.117188 575.324219 327.511719 C 575.476562 327.910156 575.664062 328.285156 575.890625 328.644531 C 576.117188 329.003906 576.378906 329.339844 576.671875 329.644531 C 576.960938 329.953125 577.28125 330.230469 577.628906 330.476562 C 577.976562 330.71875 578.34375 330.929688 578.730469 331.101562 C 579.117188 331.273438 579.519531 331.40625 579.933594 331.5 C 580.347656 331.59375 580.765625 331.648438 581.191406 331.65625 L 592.648438 331.957031 L 603.378906 338.917969 L 606.96875 355.835938 C 607.15625 356.695312 607.46875 357.507812 607.90625 358.273438 C 608.339844 359.035156 608.882812 359.714844 609.527344 360.316406 C 610.171875 360.914062 610.890625 361.398438 611.6875 361.777344 C 612.480469 362.152344 613.316406 362.402344 614.1875 362.523438 C 615.175781 362.660156 616.15625 362.621094 617.128906 362.40625 L 674.03125 350.304688 C 674.574219 350.179688 675.105469 350.007812 675.617188 349.78125 C 676.132812 349.554688 676.617188 349.28125 677.078125 348.960938 C 677.535156 348.640625 677.960938 348.28125 678.351562 347.878906 C 678.738281 347.472656 679.085938 347.039062 679.390625 346.566406 C 679.695312 346.097656 679.949219 345.601562 680.15625 345.082031 C 680.363281 344.558594 680.519531 344.023438 680.625 343.472656 C 680.726562 342.921875 680.777344 342.367188 680.769531 341.808594 C 680.765625 341.246094 680.707031 340.695312 680.59375 340.144531 Z M 659.710938 288.808594 C 660.226562 289.148438 660.683594 289.554688 661.074219 290.027344 C 661.464844 290.503906 661.773438 291.027344 662.003906 291.601562 C 662.234375 292.171875 662.371094 292.765625 662.417969 293.378906 C 662.464844 293.992188 662.417969 294.601562 662.28125 295.199219 C 662.125 295.871094 661.859375 296.496094 661.484375 297.074219 L 651.6875 312.15625 L 632.75 299.078125 L 633.460938 271.785156 Z M 583.078125 259.003906 L 627.292969 260.152344 C 627.433594 260.15625 627.578125 260.167969 627.71875 260.1875 C 628.191406 260.253906 628.636719 260.398438 629.054688 260.628906 C 629.472656 260.859375 629.839844 261.15625 630.148438 261.519531 C 630.457031 261.882812 630.691406 262.289062 630.847656 262.742188 C 631.007812 263.191406 631.082031 263.65625 631.070312 264.132812 L 630.425781 288.910156 L 578.441406 288.226562 L 579.101562 262.78125 C 579.113281 262.269531 579.226562 261.777344 579.433594 261.308594 C 579.644531 260.835938 579.9375 260.425781 580.308594 260.070312 C 580.683594 259.714844 581.109375 259.445312 581.589844 259.261719 C 582.066406 259.078125 582.566406 258.992188 583.078125 259.003906 Z M 581.261719 329.070312 C 580.746094 329.058594 580.253906 328.949219 579.78125 328.742188 C 579.3125 328.53125 578.898438 328.242188 578.546875 327.867188 C 578.191406 327.492188 577.921875 327.066406 577.738281 326.585938 C 577.554688 326.105469 577.46875 325.609375 577.484375 325.09375 L 578.375 290.8125 L 630.359375 291.496094 L 629.453125 326.441406 C 629.4375 326.957031 629.324219 327.449219 629.117188 327.917969 C 628.90625 328.386719 628.617188 328.800781 628.242188 329.152344 C 627.871094 329.507812 627.445312 329.777344 626.964844 329.960938 C 626.484375 330.148438 625.988281 330.234375 625.472656 330.21875 Z M 625.40625 332.808594 C 625.828125 332.816406 626.25 332.785156 626.667969 332.714844 C 627.085938 332.640625 627.492188 332.527344 627.890625 332.375 C 628.285156 332.222656 628.664062 332.035156 629.023438 331.808594 C 629.382812 331.582031 629.714844 331.320312 630.023438 331.03125 C 630.332031 330.738281 630.605469 330.417969 630.851562 330.070312 C 631.097656 329.722656 631.304688 329.359375 631.480469 328.96875 C 631.652344 328.582031 631.785156 328.179688 631.878906 327.765625 C 631.972656 327.351562 632.027344 326.933594 632.039062 326.511719 L 632.671875 302.164062 L 650.277344 314.324219 L 646.207031 320.589844 L 629.800781 345.851562 C 629.585938 346.179688 629.34375 346.484375 629.070312 346.765625 C 628.796875 347.046875 628.496094 347.296875 628.175781 347.519531 C 627.851562 347.742188 627.511719 347.929688 627.148438 348.085938 C 626.789062 348.242188 626.417969 348.359375 626.035156 348.441406 C 625.652344 348.523438 625.261719 348.566406 624.871094 348.574219 C 624.480469 348.578125 624.089844 348.546875 623.703125 348.476562 C 623.320312 348.40625 622.945312 348.296875 622.578125 348.152344 C 622.214844 348.007812 621.867188 347.828125 621.539062 347.617188 L 605.277344 337.066406 C 605.242188 337.042969 605.214844 337.023438 605.179688 337.003906 L 597.597656 332.085938 Z M 616.585938 359.878906 C 616.203125 359.960938 615.816406 360.003906 615.421875 360.007812 C 615.03125 360.015625 614.644531 359.980469 614.257812 359.910156 C 613.871094 359.839844 613.496094 359.730469 613.132812 359.585938 C 612.769531 359.441406 612.421875 359.261719 612.09375 359.050781 C 611.765625 358.835938 611.460938 358.59375 611.179688 358.320312 C 610.898438 358.050781 610.644531 357.75 610.421875 357.429688 C 610.199219 357.105469 610.011719 356.765625 609.855469 356.40625 C 609.699219 356.046875 609.582031 355.675781 609.5 355.292969 L 606.449219 340.910156 L 620.132812 349.785156 C 620.601562 350.09375 621.101562 350.347656 621.621094 350.554688 C 622.144531 350.761719 622.679688 350.917969 623.234375 351.019531 C 623.785156 351.121094 624.34375 351.167969 624.90625 351.160156 C 625.46875 351.152344 626.023438 351.089844 626.574219 350.972656 C 627.121094 350.855469 627.65625 350.683594 628.171875 350.464844 C 628.6875 350.242188 629.175781 349.96875 629.640625 349.652344 C 630.105469 349.332031 630.53125 348.972656 630.921875 348.570312 C 631.316406 348.167969 631.664062 347.730469 631.96875 347.257812 L 646.652344 324.652344 L 652.296875 352.28125 Z M 673.480469 347.773438 L 654.824219 351.742188 L 648.660156 321.5625 L 653.109375 314.710938 L 653.113281 314.707031 L 663.648438 298.488281 C 663.980469 297.960938 664.253906 297.40625 664.460938 296.820312 C 665.089844 296.878906 665.695312 297.035156 666.277344 297.289062 C 666.855469 297.542969 667.382812 297.878906 667.855469 298.300781 C 668.324219 298.722656 668.71875 299.207031 669.035156 299.753906 C 669.351562 300.304688 669.574219 300.886719 669.707031 301.507812 L 678.066406 340.679688 C 678.144531 341.0625 678.183594 341.449219 678.1875 341.839844 C 678.191406 342.230469 678.15625 342.617188 678.085938 343.003906 C 678.011719 343.386719 677.902344 343.761719 677.757812 344.125 C 677.613281 344.488281 677.433594 344.835938 677.222656 345.164062 C 677.011719 345.492188 676.769531 345.796875 676.496094 346.078125 C 676.226562 346.359375 675.929688 346.613281 675.609375 346.835938 C 675.289062 347.058594 674.949219 347.25 674.589844 347.410156 C 674.234375 347.566406 673.863281 347.6875 673.480469 347.773438 Z M 605.914062 297.144531 C 605.816406 296.910156 605.660156 296.722656 605.449219 296.582031 C 605.238281 296.445312 605.003906 296.371094 604.75 296.371094 C 604.496094 296.367188 604.261719 296.433594 604.046875 296.566406 C 603.832031 296.699219 603.671875 296.882812 603.5625 297.109375 C 592.253906 320.964844 592.296875 321.175781 592.410156 321.738281 C 592.46875 322.007812 592.59375 322.238281 592.796875 322.425781 C 592.996094 322.613281 593.230469 322.726562 593.503906 322.761719 C 593.648438 322.78125 593.792969 322.777344 593.9375 322.746094 C 594.1875 322.695312 594.402344 322.582031 594.585938 322.402344 C 594.769531 322.222656 594.886719 322.011719 594.941406 321.761719 C 595.191406 321.082031 596.871094 317.433594 599.003906 312.863281 L 610.132812 313.164062 L 614.277344 322.585938 C 614.34375 322.742188 614.441406 322.882812 614.566406 323 C 614.6875 323.121094 614.832031 323.210938 614.992188 323.273438 C 615.152344 323.335938 615.316406 323.367188 615.488281 323.363281 C 615.660156 323.359375 615.824219 323.324219 615.984375 323.253906 C 616.140625 323.183594 616.277344 323.085938 616.398438 322.964844 C 616.515625 322.839844 616.605469 322.695312 616.667969 322.535156 C 616.730469 322.375 616.757812 322.210938 616.753906 322.039062 C 616.75 321.867188 616.714844 321.703125 616.644531 321.546875 Z M 600.199219 310.308594 C 601.664062 307.183594 603.246094 303.824219 604.6875 300.777344 L 608.980469 310.546875 Z M 593.09375 265.132812 C 593.097656 264.964844 593.132812 264.796875 593.199219 264.640625 C 593.269531 264.484375 593.363281 264.34375 593.484375 264.226562 C 593.609375 264.105469 593.75 264.015625 593.910156 263.949219 C 594.070312 263.886719 594.234375 263.855469 594.40625 263.859375 L 616.925781 264.171875 C 617.097656 264.171875 617.261719 264.207031 617.421875 264.273438 C 617.578125 264.339844 617.71875 264.4375 617.839844 264.558594 C 617.960938 264.683594 618.050781 264.824219 618.113281 264.984375 C 618.175781 265.144531 618.207031 265.3125 618.199219 265.484375 C 618.199219 265.65625 618.164062 265.820312 618.097656 265.976562 C 618.027344 266.132812 617.933594 266.273438 617.808594 266.394531 C 617.6875 266.511719 617.546875 266.605469 617.386719 266.667969 C 617.226562 266.730469 617.0625 266.761719 616.890625 266.757812 L 594.371094 266.445312 C 594.316406 266.445312 594.265625 266.441406 594.210938 266.433594 C 593.886719 266.390625 593.621094 266.242188 593.40625 265.996094 C 593.195312 265.746094 593.089844 265.460938 593.09375 265.132812 Z M 583.203125 273.40625 C 583.203125 273.234375 583.234375 273.070312 583.296875 272.914062 C 583.363281 272.753906 583.457031 272.613281 583.578125 272.492188 C 583.699219 272.371094 583.835938 272.277344 583.996094 272.210938 C 584.152344 272.144531 584.320312 272.109375 584.488281 272.109375 L 626.28125 271.949219 C 626.453125 271.949219 626.617188 271.980469 626.777344 272.042969 C 626.9375 272.109375 627.078125 272.203125 627.199219 272.324219 C 627.320312 272.445312 627.414062 272.582031 627.480469 272.742188 C 627.546875 272.898438 627.582031 273.066406 627.582031 273.238281 C 627.582031 273.410156 627.550781 273.574219 627.488281 273.730469 C 627.421875 273.890625 627.328125 274.03125 627.207031 274.152344 C 627.085938 274.273438 626.945312 274.371094 626.789062 274.433594 C 626.628906 274.5 626.464844 274.535156 626.292969 274.535156 L 584.5 274.695312 C 584.328125 274.695312 584.164062 274.664062 584.003906 274.597656 C 583.847656 274.535156 583.707031 274.441406 583.585938 274.320312 C 583.464844 274.199219 583.367188 274.058594 583.300781 273.902344 C 583.234375 273.742188 583.203125 273.578125 583.203125 273.40625 Z M 583.203125 273.40625 " fill-opacity="1" fill-rule="nonzero"/></g></g></g></svg>