<svg xmlns="http://www.w3.org/2000/svg" xmlns:xlink="http://www.w3.org/1999/xlink" width="500" zoomAndPan="magnify" viewBox="0 0 375 374.999991" height="500" preserveAspectRatio="xMidYMid meet" version="1.0"><defs><g/><clipPath id="4af86bee65"><path d="M 146.683594 140.5625 L 227.058594 140.5625 L 227.058594 220.9375 L 146.683594 220.9375 Z M 146.683594 140.5625 " clip-rule="nonzero"/></clipPath><clipPath id="b18f939f3f"><path d="M 0.683594 0.5625 L 81.058594 0.5625 L 81.058594 80.9375 L 0.683594 80.9375 Z M 0.683594 0.5625 " clip-rule="nonzero"/></clipPath><clipPath id="f62bb3d989"><rect x="0" width="82" y="0" height="81"/></clipPath><clipPath id="9fba794060"><rect x="0" width="64" y="0" height="61"/></clipPath><clipPath id="ea5b651157"><rect x="0" width="44" y="0" height="58"/></clipPath></defs><g clip-path="url(#4af86bee65)"><g transform="matrix(1, 0, 0, 1, 146, 140)"><g clip-path="url(#f62bb3d989)"><g clip-path="url(#b18f939f3f)"><path fill="#ff914d" d="M 0.683594 0.5625 L 81.058594 0.5625 L 81.058594 80.9375 L 0.683594 80.9375 Z M 0.683594 0.5625 " fill-opacity="1" fill-rule="nonzero"/></g></g></g></g><g transform="matrix(1, 0, 0, 1, 155, 166)"><g clip-path="url(#9fba794060)"><g fill="#ffffff" fill-opacity="1"><g transform="translate(1.126493, 39.663478)"><g><path d="M 15.03125 -22.390625 L 15.03125 -19 L 11.625 -19 L 11.625 -22.390625 Z M 15.03125 -13.5 L 15.03125 -1.25 L 2.75 -1.25 L 2.75 -4.640625 L 11.625 -4.640625 L 11.625 -13.5 Z M 15.03125 -13.5 "/></g></g></g><g fill="#ffffff" fill-opacity="1"><g transform="translate(44.78407, 22.388954)"><g/></g></g><g fill="#ffffff" fill-opacity="1"><g transform="translate(17.399461, 39.663478)"><g><path d="M 43.15625 -19 L 16.53125 -19 L 16.53125 -13.53125 L 43.15625 -13.53125 L 43.15625 -1.25 L 4.25 -1.25 L 4.25 -10.140625 L -2.75 -10.140625 L -2.75 -13.53125 L 7.640625 -13.53125 L 7.640625 -4.640625 L 39.765625 -4.640625 L 39.765625 -10.140625 L 13.125 -10.140625 L 13.125 -22.390625 L 43.15625 -22.390625 Z M 43.15625 -19 "/></g></g></g></g></g><g transform="matrix(1, 0, 0, 1, 162, 140)"><g clip-path="url(#ea5b651157)"><g fill="#ffffff" fill-opacity="1"><g transform="translate(1.123935, 37.685796)"><g><path d="M 14.15625 -12.71875 L 14.15625 -1.171875 L 2.59375 -1.171875 L 2.59375 -4.375 L 10.953125 -4.375 L 10.953125 -12.71875 Z M 14.15625 -12.71875 "/></g></g></g><g fill="#ffffff" fill-opacity="1"><g transform="translate(16.456215, 37.685796)"><g><path d="M 23.921875 -21.09375 L 23.921875 -9.546875 L 15.546875 -9.546875 L 15.546875 -1.171875 L 4 -1.171875 L 4 -9.546875 L -2.59375 -9.546875 L -2.59375 -12.75 L 7.171875 -12.75 L 7.171875 -4.375 L 12.34375 -4.375 L 12.34375 -21.09375 Z M 20.6875 -17.890625 L 15.546875 -17.890625 L 15.546875 -12.75 L 20.6875 -12.75 Z M 20.6875 -17.890625 "/></g></g></g></g></g></svg>