<svg xmlns="http://www.w3.org/2000/svg" xmlns:xlink="http://www.w3.org/1999/xlink" width="300" zoomAndPan="magnify" viewBox="0 0 224.87999 225" height="300" preserveAspectRatio="xMidYMid meet" version="1.0"><defs><g/><clipPath id="db340e08af"><path d="M 0 0.0585938 L 224.761719 0.0585938 L 224.761719 224.9375 L 0 224.9375 Z M 0 0.0585938 " clip-rule="nonzero"/></clipPath><clipPath id="921bfc0b32"><path d="M 0 0.0585938 L 224.761719 0.0585938 L 224.761719 224.9375 L 0 224.9375 Z M 0 0.0585938 " clip-rule="nonzero"/></clipPath><clipPath id="4294b8494c"><rect x="0" width="225" y="0" height="225"/></clipPath><clipPath id="6b95b65470"><path d="M 24 72 L 201 72 L 201 224.9375 L 24 224.9375 Z M 24 72 " clip-rule="nonzero"/></clipPath><clipPath id="dd5618dedc"><rect x="0" width="177" y="0" height="153"/></clipPath><clipPath id="6cf50dd559"><path d="M 43 0.0585938 L 163 0.0585938 L 163 158 L 43 158 Z M 43 0.0585938 " clip-rule="nonzero"/></clipPath><clipPath id="557a8936a0"><rect x="0" width="120" y="0" height="158"/></clipPath></defs><g clip-path="url(#db340e08af)"><path fill="#ffffff" d="M 0 0.0585938 L 224.878906 0.0585938 L 224.878906 224.941406 L 0 224.941406 Z M 0 0.0585938 " fill-opacity="1" fill-rule="nonzero"/><path fill="#ffffff" d="M 0 0.0585938 L 224.878906 0.0585938 L 224.878906 224.941406 L 0 224.941406 Z M 0 0.0585938 " fill-opacity="1" fill-rule="nonzero"/><g transform="matrix(1, 0, 0, 1, 0, -0.000000000000003234)"><g clip-path="url(#4294b8494c)"><g clip-path="url(#921bfc0b32)"><path fill="#ff914d" d="M -3.566406 0.0585938 L 224.824219 0.0585938 L 224.824219 224.941406 L -3.566406 224.941406 Z M -3.566406 0.0585938 " fill-opacity="1" fill-rule="nonzero"/></g></g></g></g><g clip-path="url(#6b95b65470)"><g transform="matrix(1, 0, 0, 1, 24, 72)"><g clip-path="url(#dd5618dedc)"><g fill="#ffffff" fill-opacity="1"><g transform="translate(1.318943, 110.206134)"><g><path d="M 42.046875 -62.65625 L 42.046875 -53.15625 L 32.546875 -53.15625 L 32.546875 -62.65625 Z M 42.046875 -37.78125 L 42.046875 -3.5 L 7.6875 -3.5 L 7.6875 -12.984375 L 32.546875 -12.984375 L 32.546875 -37.78125 Z M 42.046875 -37.78125 "/></g></g></g><g fill="#ffffff" fill-opacity="1"><g transform="translate(123.470004, 61.873139)"><g/></g></g><g fill="#ffffff" fill-opacity="1"><g transform="translate(46.849649, 110.206134)"><g><path d="M 120.765625 -53.15625 L 46.234375 -53.15625 L 46.234375 -37.859375 L 120.765625 -37.859375 L 120.765625 -3.5 L 11.875 -3.5 L 11.875 -28.359375 L -7.6875 -28.359375 L -7.6875 -37.859375 L 21.375 -37.859375 L 21.375 -12.984375 L 111.265625 -12.984375 L 111.265625 -28.359375 L 36.734375 -28.359375 L 36.734375 -62.65625 L 120.765625 -62.65625 Z M 120.765625 -53.15625 "/></g></g></g></g></g></g><g clip-path="url(#6cf50dd559)"><g transform="matrix(1, 0, 0, 1, 43, -0.000000000000003234)"><g clip-path="url(#557a8936a0)"><g fill="#ffffff" fill-opacity="1"><g transform="translate(1.897354, 103.926382)"><g><path d="M 39.609375 -35.609375 L 39.609375 -3.296875 L 7.234375 -3.296875 L 7.234375 -12.234375 L 30.671875 -12.234375 L 30.671875 -35.609375 Z M 39.609375 -35.609375 "/></g></g></g><g fill="#ffffff" fill-opacity="1"><g transform="translate(44.796079, 103.926382)"><g><path d="M 66.921875 -59.03125 L 66.921875 -26.71875 L 43.5 -26.71875 L 43.5 -3.296875 L 11.1875 -3.296875 L 11.1875 -26.71875 L -7.234375 -26.71875 L -7.234375 -35.671875 L 20.078125 -35.671875 L 20.078125 -12.234375 L 34.546875 -12.234375 L 34.546875 -59.03125 Z M 57.90625 -50.078125 L 43.5 -50.078125 L 43.5 -35.671875 L 57.90625 -35.671875 Z M 57.90625 -50.078125 "/></g></g></g></g></g></g></svg>