<svg xmlns="http://www.w3.org/2000/svg" xmlns:xlink="http://www.w3.org/1999/xlink" width="1366" zoomAndPan="magnify" viewBox="0 0 1024.5 576" height="768" preserveAspectRatio="xMidYMid meet" version="1.0"><defs><clipPath id="730b79bab9"><path d="M 570.441406 204 L 682.886719 204 L 682.886719 325.332031 L 570.441406 325.332031 Z M 570.441406 204 " clip-rule="nonzero"/></clipPath></defs><g clip-path="url(#730b79bab9)"><path fill="#000000" d="M 589.699219 253.542969 C 590.585938 255.0625 591.09375 256.828125 591.09375 258.707031 C 591.09375 264.378906 586.460938 268.992188 580.773438 268.992188 C 575.089844 268.992188 570.453125 264.378906 570.453125 258.707031 C 570.453125 253.035156 575.089844 248.410156 580.773438 248.410156 C 583.164062 248.410156 585.367188 249.226562 587.121094 250.59375 L 601.792969 237.84375 C 600.90625 236.328125 600.398438 234.566406 600.398438 232.691406 C 600.398438 227.019531 605.039062 222.394531 610.710938 222.394531 C 616.394531 222.394531 621.03125 227.019531 621.03125 232.691406 C 621.03125 233.628906 620.902344 234.542969 620.664062 235.40625 L 632.441406 241.203125 C 634.332031 238.730469 637.3125 237.128906 640.65625 237.128906 C 642.714844 237.128906 644.632812 237.734375 646.246094 238.777344 L 665.203125 219.039062 L 659.078125 213.664062 C 658.542969 213.195312 658.304688 212.472656 658.457031 211.78125 C 658.605469 211.085938 659.121094 210.527344 659.800781 210.320312 L 680.242188 204.101562 C 680.917969 203.894531 681.652344 204.066406 682.164062 204.554688 C 682.675781 205.039062 682.886719 205.761719 682.714844 206.449219 L 677.746094 226.246094 C 677.578125 226.910156 677.078125 227.4375 676.425781 227.640625 C 675.773438 227.84375 675.058594 227.691406 674.546875 227.238281 L 668.148438 221.625 L 649.074219 241.488281 C 650.265625 243.167969 650.96875 245.21875 650.96875 247.425781 C 650.96875 253.085938 646.34375 257.710938 640.65625 257.710938 C 634.972656 257.710938 630.335938 253.085938 630.335938 247.425781 C 630.335938 246.484375 630.460938 245.574219 630.699219 244.707031 L 618.917969 238.914062 C 617.03125 241.378906 614.050781 242.976562 610.710938 242.976562 C 608.324219 242.976562 606.125 242.160156 604.375 240.792969 Z M 610.710938 239.0625 C 614.234375 239.0625 617.109375 236.199219 617.109375 232.691406 C 617.109375 229.175781 614.234375 226.308594 610.710938 226.308594 C 607.195312 226.308594 604.320312 229.175781 604.320312 232.691406 C 604.320312 236.199219 607.195312 239.0625 610.710938 239.0625 Z M 580.773438 265.078125 C 584.296875 265.078125 587.171875 262.222656 587.171875 258.707031 C 587.171875 255.191406 584.296875 252.324219 580.773438 252.324219 C 577.25 252.324219 574.375 255.191406 574.375 258.707031 C 574.375 262.222656 577.25 265.078125 580.773438 265.078125 Z M 640.65625 253.796875 C 644.179688 253.796875 647.042969 250.933594 647.042969 247.425781 C 647.042969 243.910156 644.179688 241.042969 640.65625 241.042969 C 637.132812 241.042969 634.257812 243.910156 634.257812 247.425781 C 634.257812 250.933594 637.132812 253.796875 640.65625 253.796875 Z M 674.722656 222.179688 L 678.066406 208.851562 L 664.308594 213.042969 Z M 602.65625 263.414062 L 618.777344 263.414062 C 619.859375 263.414062 620.738281 264.292969 620.738281 265.371094 L 620.738281 323.375 C 620.738281 324.457031 619.859375 325.332031 618.777344 325.332031 L 602.65625 325.332031 C 601.570312 325.332031 600.691406 324.457031 600.691406 323.375 L 600.691406 265.371094 C 600.691406 264.292969 601.570312 263.414062 602.65625 263.414062 Z M 604.617188 267.328125 L 604.617188 321.421875 C 604.617188 321.421875 616.816406 321.421875 616.816406 321.421875 L 616.816406 267.328125 Z M 632.589844 274.382812 L 648.710938 274.382812 C 649.796875 274.382812 650.675781 275.257812 650.675781 276.339844 L 650.675781 323.375 C 650.675781 324.457031 649.796875 325.332031 648.710938 325.332031 L 632.589844 325.332031 C 631.507812 325.332031 630.628906 324.457031 630.628906 323.375 L 630.628906 276.339844 C 630.628906 275.257812 631.507812 274.382812 632.589844 274.382812 Z M 634.550781 278.296875 L 634.550781 321.421875 L 646.75 321.421875 L 646.75 278.296875 Z M 662.539062 242.308594 L 678.660156 242.308594 C 679.742188 242.308594 680.621094 243.183594 680.621094 244.265625 L 680.621094 323.375 C 680.621094 324.457031 679.742188 325.332031 678.660156 325.332031 L 662.539062 325.332031 C 661.453125 325.332031 660.574219 324.457031 660.574219 323.375 L 660.574219 244.265625 C 660.574219 243.183594 661.453125 242.308594 662.539062 242.308594 Z M 664.5 246.222656 L 664.5 321.421875 L 676.699219 321.421875 L 676.699219 246.222656 Z M 572.707031 290.558594 L 588.839844 290.558594 C 589.921875 290.558594 590.800781 291.4375 590.800781 292.515625 L 590.800781 323.375 C 590.800781 324.457031 589.921875 325.332031 588.839844 325.332031 L 572.707031 325.332031 C 571.625 325.332031 570.746094 324.457031 570.746094 323.375 L 570.746094 292.515625 C 570.746094 291.4375 571.625 290.558594 572.707031 290.558594 Z M 574.667969 294.472656 L 574.667969 321.421875 C 574.667969 321.421875 586.878906 321.421875 586.878906 321.421875 L 586.878906 294.472656 Z M 574.667969 294.472656 " fill-opacity="1" fill-rule="evenodd"/></g></svg>