<svg xmlns="http://www.w3.org/2000/svg" xmlns:xlink="http://www.w3.org/1999/xlink" width="1366" zoomAndPan="magnify" viewBox="0 0 1024.5 576" height="768" preserveAspectRatio="xMidYMid meet" version="1.0"><defs><clipPath id="87fefc8481"><path d="M 571.460938 265.863281 L 671.160156 265.863281 L 671.160156 365.566406 L 571.460938 365.566406 Z M 571.460938 265.863281 " clip-rule="nonzero"/></clipPath></defs><path fill="#000000" d="M 627.09375 339.945312 L 630.285156 336.75 L 632.578125 339.046875 L 629.285156 342.234375 L 627.09375 339.945312 " fill-opacity="1" fill-rule="nonzero"/><path fill="#000000" d="M 616.125 351.011719 C 615.527344 351.609375 614.53125 351.609375 613.832031 351.011719 L 609.148438 346.324219 L 606.957031 348.617188 L 611.640625 353.300781 C 612.535156 354.199219 613.832031 354.695312 615.027344 354.695312 C 616.222656 354.695312 617.425781 354.199219 618.421875 353.300781 L 627.59375 344.128906 L 625.296875 341.835938 L 616.125 351.011719 " fill-opacity="1" fill-rule="nonzero"/><g clip-path="url(#87fefc8481)"><path fill="#000000" d="M 575.945312 322.097656 L 595.886719 302.15625 L 606.253906 312.527344 L 620.015625 314.519531 L 618.019531 300.761719 L 607.652344 290.292969 L 627.59375 270.351562 L 666.578125 309.335938 L 614.929688 361.078125 Z M 575.25 275.234375 C 575.25 274.140625 575.648438 273.042969 576.445312 272.242188 L 577.839844 270.851562 C 579.4375 269.253906 582.128906 269.253906 583.722656 270.851562 L 587.3125 274.441406 L 580.035156 281.714844 L 576.445312 278.128906 C 575.746094 277.429688 575.25 276.332031 575.25 275.234375 Z M 611.839844 303.949219 L 587.015625 279.222656 L 589.507812 276.730469 L 614.332031 301.457031 Z M 584.820312 281.417969 L 609.546875 306.140625 L 607.050781 308.734375 L 582.324219 284.007812 Z M 616.222656 310.628906 L 610.34375 309.835938 L 615.328125 304.847656 Z M 627.695312 265.863281 L 605.460938 288.097656 L 586.019531 268.65625 C 584.621094 267.257812 582.726562 266.464844 580.832031 266.464844 C 578.9375 266.464844 577.042969 267.257812 575.648438 268.65625 L 574.253906 270.050781 C 572.855469 271.449219 572.15625 273.242188 572.15625 275.234375 C 572.15625 277.230469 572.957031 279.023438 574.351562 280.421875 L 593.792969 299.863281 L 571.460938 322.097656 L 614.929688 365.566406 L 671.160156 309.335938 L 627.695312 265.863281 " fill-opacity="1" fill-rule="nonzero"/></g><path fill="#000000" d="M 646.734375 317.90625 C 644.042969 320.601562 640.453125 322.097656 636.667969 322.097656 L 629.984375 322.097656 L 619.816406 331.070312 L 618.71875 329.972656 L 628.089844 319.402344 L 628.589844 318.90625 L 636.667969 318.90625 C 639.558594 318.90625 642.445312 317.710938 644.542969 315.613281 C 645.9375 314.21875 646.734375 312.328125 646.734375 310.429688 C 646.734375 306.34375 643.445312 303.054688 639.355469 303.054688 C 637.359375 303.054688 635.570312 303.851562 634.175781 305.246094 L 633.175781 306.242188 L 630.878906 303.949219 L 631.875 302.953125 C 633.871094 300.957031 636.566406 299.863281 639.355469 299.863281 C 645.140625 299.863281 649.925781 304.648438 649.925781 310.429688 C 649.824219 313.222656 648.726562 315.914062 646.734375 317.90625 Z M 639.355469 296.671875 C 635.671875 296.671875 632.277344 298.070312 629.6875 300.660156 L 626.296875 303.949219 L 633.078125 310.730469 L 636.363281 307.4375 C 637.164062 306.640625 638.261719 306.242188 639.355469 306.242188 C 641.652344 306.242188 643.542969 308.136719 643.542969 310.429688 C 643.542969 311.527344 643.148438 312.625 642.34375 313.421875 C 640.851562 314.917969 638.855469 315.714844 636.765625 315.714844 L 627.292969 315.714844 L 625.796875 317.210938 L 614.332031 330.074219 L 619.617188 335.355469 L 631.082031 325.285156 L 636.566406 325.285156 C 641.25 325.285156 645.640625 323.492188 648.925781 320.203125 C 651.519531 317.613281 652.914062 314.117188 652.914062 310.53125 C 653.015625 302.855469 646.933594 296.671875 639.355469 296.671875 " fill-opacity="1" fill-rule="nonzero"/><path fill="#000000" d="M 611.839844 336.351562 C 612.734375 336.351562 613.4375 337.054688 613.4375 337.949219 C 613.4375 338.84375 612.734375 339.546875 611.839844 339.546875 C 610.941406 339.546875 610.242188 338.84375 610.242188 337.949219 C 610.242188 337.054688 610.941406 336.351562 611.839844 336.351562 Z M 607.050781 337.949219 C 607.050781 340.542969 609.148438 342.730469 611.839844 342.730469 C 614.53125 342.730469 616.625 340.640625 616.625 337.949219 C 616.625 335.253906 614.53125 333.164062 611.839844 333.164062 C 609.148438 333.164062 607.050781 335.355469 607.050781 337.949219 " fill-opacity="1" fill-rule="nonzero"/><path fill="#000000" d="M 624.898438 278.722656 L 627.195312 276.433594 L 638.261719 287.601562 L 635.964844 289.894531 L 624.898438 278.722656 " fill-opacity="1" fill-rule="nonzero"/><path fill="#000000" d="M 620.210938 283.511719 L 622.507812 281.21875 L 633.574219 292.285156 L 631.28125 294.578125 L 620.210938 283.511719 " fill-opacity="1" fill-rule="nonzero"/><path fill="#000000" d="M 615.429688 288.296875 L 617.71875 286.003906 L 628.789062 297.070312 L 626.496094 299.367188 L 615.429688 288.296875 " fill-opacity="1" fill-rule="nonzero"/><path fill="#000000" d="M 593.195312 312.125 L 595.488281 309.835938 L 611.339844 325.683594 L 609.046875 327.980469 L 593.195312 312.125 " fill-opacity="1" fill-rule="nonzero"/><path fill="#000000" d="M 588.410156 316.808594 L 590.703125 314.519531 L 606.554688 330.371094 L 604.363281 332.664062 L 588.410156 316.808594 " fill-opacity="1" fill-rule="nonzero"/><path fill="#000000" d="M 583.722656 321.601562 L 586.019531 319.300781 L 601.867188 335.15625 L 599.574219 337.449219 L 583.722656 321.601562 " fill-opacity="1" fill-rule="nonzero"/></svg>