<svg xmlns="http://www.w3.org/2000/svg" xmlns:xlink="http://www.w3.org/1999/xlink" width="1366" zoomAndPan="magnify" viewBox="0 0 1024.5 576" height="768" preserveAspectRatio="xMidYMid meet" version="1.0"><defs><clipPath id="b6d62cd51a"><path d="M 455.640625 153.035156 L 568.085938 153.035156 L 568.085938 266 L 455.640625 266 Z M 455.640625 153.035156 " clip-rule="nonzero"/></clipPath></defs><path fill="#ff7400" d="M 469.671875 235.488281 C 469.699219 235.488281 469.722656 235.488281 469.722656 235.488281 C 469.722656 235.488281 469.722656 235.488281 469.75 235.488281 C 469.777344 235.515625 469.75 235.515625 469.671875 235.488281 Z M 469.671875 235.488281 " fill-opacity="1" fill-rule="nonzero"/><path fill="#ff7400" d="M 465.980469 232.882812 C 465.980469 232.910156 465.980469 232.910156 466.007812 232.9375 C 466.007812 232.882812 466.007812 232.855469 465.980469 232.882812 Z M 465.980469 232.882812 " fill-opacity="1" fill-rule="nonzero"/><path fill="#ff7400" d="M 511.238281 200.1875 C 511.238281 200.132812 511.238281 200.078125 511.238281 200.023438 C 511.210938 200.105469 511.238281 200.160156 511.238281 200.1875 Z M 511.238281 200.1875 " fill-opacity="1" fill-rule="nonzero"/><path fill="#ff7400" d="M 473.742188 180.949219 C 473.6875 181.003906 473.660156 181.027344 473.742188 180.949219 Z M 473.742188 180.949219 " fill-opacity="1" fill-rule="nonzero"/><path fill="#ff7400" d="M 500.628906 189.820312 C 500.628906 189.820312 500.601562 189.820312 500.628906 189.820312 C 500.601562 189.792969 500.601562 189.765625 500.574219 189.765625 C 500.523438 189.710938 500.546875 189.765625 500.628906 189.820312 Z M 500.628906 189.820312 " fill-opacity="1" fill-rule="nonzero"/><path fill="#ff7400" d="M 497.347656 186.511719 C 497.320312 186.511719 497.320312 186.484375 497.292969 186.484375 C 497.292969 186.484375 497.292969 186.484375 497.265625 186.484375 C 497.402344 186.617188 497.402344 186.566406 497.347656 186.511719 Z M 497.347656 186.511719 " fill-opacity="1" fill-rule="nonzero"/><path fill="#ff7400" d="M 563.066406 234.726562 C 562.792969 234.808594 562.957031 234.78125 563.066406 234.726562 Z M 563.066406 234.726562 " fill-opacity="1" fill-rule="nonzero"/><g clip-path="url(#b6d62cd51a)"><path fill="#ff7400" d="M 568.300781 197.796875 C 568.246094 196.523438 568.085938 195.246094 567.839844 194 C 566.863281 189.140625 564.339844 184.582031 560.8125 181.136719 C 557.71875 178.125 553.894531 175.957031 549.6875 174.871094 C 545.375 173.757812 540.84375 173.648438 536.394531 173.621094 C 535.550781 173.621094 534.738281 173.621094 533.894531 173.621094 C 533.894531 172.101562 533.871094 170.582031 533.84375 169.0625 C 537.722656 167.679688 541.519531 166.105469 545.265625 164.449219 C 546.40625 163.933594 547.542969 163.417969 548.65625 162.902344 C 549.144531 162.6875 549.363281 162.035156 549.308594 161.546875 C 549.226562 160.976562 548.847656 160.625 548.332031 160.40625 C 543.449219 158.5625 538.425781 157.070312 533.328125 155.902344 C 532.890625 154.628906 531.753906 153.597656 530.394531 153.378906 C 528.847656 153.136719 527.222656 153.839844 526.460938 155.25 C 525.808594 156.472656 525.972656 157.964844 525.972656 159.320312 C 525.945312 164.097656 525.917969 168.875 525.890625 173.648438 C 521.578125 173.484375 517.289062 173.40625 512.976562 173.457031 C 508.445312 173.484375 503.914062 173.59375 499.355469 173.703125 C 496.070312 173.757812 492.816406 173.8125 489.53125 173.839844 C 489.503906 173.839844 489.503906 173.839844 489.476562 173.839844 C 488.445312 173.8125 487.441406 173.839844 486.4375 173.921875 C 482.667969 174.164062 478.921875 174.976562 475.503906 176.660156 C 472.464844 178.152344 469.886719 180.40625 467.90625 183.144531 C 465.871094 185.941406 464.570312 189.277344 463.863281 192.667969 C 463.726562 193.238281 463.644531 193.835938 463.539062 194.40625 C 463.023438 194.40625 462.535156 194.433594 462.019531 194.433594 C 461.042969 194.460938 460.011719 194.378906 459.035156 194.570312 C 458.574219 194.652344 458.136719 194.839844 457.757812 195.113281 C 457.59375 195.164062 457.433594 195.273438 457.296875 195.410156 C 457.269531 195.4375 457.242188 195.464844 457.214844 195.519531 C 456.945312 195.761719 456.671875 196.0625 456.484375 196.386719 C 455.859375 197.363281 455.804688 198.449219 455.777344 199.5625 C 455.640625 204.148438 455.640625 208.707031 455.695312 213.292969 C 455.75 217.226562 455.859375 221.132812 455.859375 225.066406 C 455.859375 225.9375 455.859375 226.832031 455.832031 227.699219 C 455.804688 228.839844 456.15625 229.871094 456.863281 230.738281 C 457.460938 231.5 458.355469 232.042969 459.304688 232.257812 C 459.875 232.367188 460.472656 232.394531 461.042969 232.421875 C 461.636719 232.449219 462.234375 232.476562 462.859375 232.503906 C 462.914062 232.503906 462.996094 232.503906 463.050781 232.503906 C 463.347656 234.539062 464.625 236.300781 466.46875 237.304688 C 467.824219 238.039062 469.261719 238.28125 470.78125 238.335938 C 473.117188 238.417969 475.449219 238.445312 477.785156 238.472656 C 481.390625 238.5 485 238.527344 488.609375 238.5 C 490.507812 238.5 492.382812 238.5 494.28125 238.5 C 494.253906 239.664062 494.417969 240.804688 494.796875 241.917969 C 495.09375 242.757812 495.472656 243.492188 496.042969 244.195312 C 496.558594 244.820312 497.292969 245.308594 498.023438 245.664062 C 499.707031 246.449219 501.527344 246.71875 503.371094 246.910156 C 504.347656 247.019531 505.324219 247.101562 506.328125 247.183594 C 506.355469 251.578125 506.328125 256 506.300781 260.394531 C 506.300781 261.699219 506.300781 263 506.300781 264.277344 C 506.300781 265.035156 506.925781 265.578125 507.65625 265.632812 C 511.808594 265.878906 515.960938 265.929688 520.140625 265.796875 C 521.277344 265.769531 522.445312 265.714844 523.585938 265.632812 C 524.34375 265.578125 524.914062 265.035156 524.941406 264.277344 C 525.078125 259.472656 525.078125 254.699219 525.105469 249.894531 C 525.105469 249.027344 525.132812 248.132812 525.132812 247.261719 C 525.972656 247.234375 526.789062 247.183594 527.628906 247.128906 C 529.390625 246.992188 531.210938 246.773438 532.890625 246.125 C 533.894531 245.714844 534.875 245.199219 535.660156 244.46875 C 536.339844 243.84375 536.828125 243.085938 537.179688 242.214844 C 537.695312 240.996094 537.75 239.636719 537.585938 238.335938 C 537.804688 238.335938 537.992188 238.335938 538.210938 238.335938 C 542.363281 238.308594 546.511719 238.226562 550.664062 238.144531 C 553.242188 238.09375 555.820312 238.011719 558.425781 237.957031 C 559.808594 237.929688 561.21875 237.957031 562.578125 237.738281 C 563.445312 237.601562 564.339844 237.277344 565.046875 236.761719 C 566.917969 235.433594 567.679688 233.34375 567.921875 231.144531 C 568.03125 230.058594 568.03125 228.949219 568.058594 227.835938 C 568.085938 226.667969 568.113281 225.527344 568.140625 224.363281 C 568.222656 219.234375 568.273438 214.078125 568.273438 208.949219 C 568.273438 206.453125 568.273438 203.929688 568.273438 201.433594 C 568.328125 200.1875 568.355469 198.992188 568.300781 197.796875 Z M 534.167969 198.53125 C 534.222656 198.640625 534.25 198.773438 534.332031 198.855469 C 534.332031 198.882812 534.359375 198.910156 534.359375 198.9375 C 534.4375 199.183594 534.519531 199.453125 534.574219 199.722656 C 534.574219 199.777344 534.601562 199.804688 534.601562 199.859375 C 534.601562 199.859375 534.601562 199.859375 534.601562 199.832031 C 534.601562 199.832031 534.601562 199.859375 534.601562 199.859375 C 534.601562 199.859375 534.601562 199.859375 534.601562 199.886719 C 534.601562 199.941406 534.601562 199.96875 534.601562 199.996094 C 534.601562 200.050781 534.628906 200.105469 534.628906 200.160156 C 534.65625 200.429688 534.65625 200.703125 534.628906 200.972656 C 534.628906 201.027344 534.628906 201.054688 534.628906 201.109375 C 534.601562 201.21875 534.574219 201.351562 534.546875 201.460938 C 534.519531 201.625 534.464844 201.757812 534.410156 201.921875 C 534.382812 201.976562 534.359375 202.03125 534.359375 202.113281 C 534.359375 202.113281 534.359375 202.140625 534.359375 202.140625 C 534.277344 202.222656 534.222656 202.410156 534.167969 202.519531 C 534.085938 202.65625 534.03125 202.761719 533.949219 202.871094 C 533.894531 202.953125 533.652344 203.386719 533.84375 203.0625 C 533.761719 203.199219 533.625 203.304688 533.542969 203.414062 C 533.355469 203.632812 533.136719 203.820312 532.917969 204.011719 C 532.890625 204.039062 532.863281 204.039062 532.863281 204.066406 C 532.839844 204.09375 532.8125 204.09375 532.785156 204.121094 C 532.648438 204.230469 532.484375 204.308594 532.351562 204.390625 C 532.214844 204.472656 532.105469 204.527344 531.96875 204.582031 C 531.941406 204.582031 531.914062 204.609375 531.886719 204.636719 C 531.859375 204.636719 531.859375 204.636719 531.835938 204.664062 C 531.535156 204.769531 531.238281 204.878906 530.9375 204.933594 C 530.882812 204.933594 530.804688 204.960938 530.75 204.960938 C 530.722656 204.960938 530.503906 204.988281 530.585938 204.988281 C 530.558594 204.988281 530.558594 204.988281 530.558594 204.988281 C 530.503906 204.988281 530.421875 204.988281 530.367188 204.988281 C 530.234375 204.988281 530.097656 204.988281 529.933594 204.988281 C 529.851562 204.988281 529.773438 204.988281 529.691406 204.960938 C 529.664062 204.960938 529.636719 204.960938 529.582031 204.960938 C 529.417969 204.933594 529.445312 204.933594 529.664062 204.960938 C 529.582031 204.988281 529.3125 204.90625 529.257812 204.878906 C 529.121094 204.851562 528.984375 204.796875 528.847656 204.769531 C 528.796875 204.746094 528.742188 204.746094 528.660156 204.71875 C 528.632812 204.71875 528.523438 204.664062 528.496094 204.636719 C 528.46875 204.636719 528.46875 204.609375 528.46875 204.609375 C 528.386719 204.554688 528.308594 204.527344 528.226562 204.472656 C 528.0625 204.390625 527.792969 204.253906 527.628906 204.121094 C 527.628906 204.09375 527.601562 204.066406 527.574219 204.039062 C 527.519531 203.984375 527.464844 203.929688 527.382812 203.875 C 527.25 203.765625 527.140625 203.632812 527.003906 203.523438 C 526.921875 203.441406 526.839844 203.332031 526.761719 203.25 C 526.761719 203.25 526.734375 203.226562 526.734375 203.226562 C 526.707031 203.199219 526.625 203.089844 526.625 203.089844 C 526.433594 202.816406 526.273438 202.546875 526.136719 202.273438 C 526.109375 202.222656 526.082031 202.167969 526.054688 202.113281 C 525.972656 201.921875 526.027344 202.085938 526.054688 202.167969 C 525.972656 202.058594 525.945312 201.867188 525.917969 201.730469 C 525.890625 201.625 525.835938 201.488281 525.808594 201.378906 C 525.785156 201.296875 525.757812 201.191406 525.757812 201.109375 C 525.757812 201.082031 525.757812 201.054688 525.730469 201.027344 C 525.703125 200.863281 525.703125 200.890625 525.730469 201.109375 C 525.675781 201.027344 525.703125 200.808594 525.703125 200.726562 C 525.703125 200.566406 525.703125 200.429688 525.703125 200.265625 C 525.703125 200.160156 525.703125 200.078125 525.730469 199.96875 C 525.730469 199.941406 525.730469 199.914062 525.730469 199.886719 C 525.730469 199.859375 525.730469 199.859375 525.730469 199.859375 C 525.785156 199.617188 525.835938 199.398438 525.890625 199.183594 C 525.917969 199.074219 525.945312 198.992188 525.972656 198.882812 C 526 198.828125 526 198.773438 526.027344 198.746094 C 526.164062 198.53125 526.246094 198.285156 526.40625 198.070312 C 526.488281 197.960938 526.570312 197.851562 526.625 197.742188 C 526.652344 197.6875 526.707031 197.664062 526.734375 197.609375 C 526.894531 197.417969 527.113281 197.226562 527.304688 197.066406 C 527.304688 197.066406 527.277344 197.066406 527.277344 197.09375 C 527.304688 197.09375 527.304688 197.066406 527.328125 197.066406 C 527.355469 197.039062 527.382812 197.039062 527.410156 197.011719 C 527.4375 196.984375 527.464844 196.984375 527.492188 196.957031 C 527.601562 196.875 527.710938 196.792969 527.84375 196.738281 C 527.953125 196.660156 528.089844 196.605469 528.199219 196.550781 C 528.253906 196.523438 528.46875 196.46875 528.28125 196.523438 C 528.0625 196.578125 528.386719 196.496094 528.441406 196.46875 C 528.714844 196.359375 529.011719 196.277344 529.3125 196.222656 C 529.390625 196.222656 529.445312 196.195312 529.527344 196.195312 C 529.527344 196.195312 529.554688 196.195312 529.554688 196.195312 C 529.746094 196.167969 529.90625 196.167969 530.097656 196.167969 C 530.394531 196.167969 530.695312 196.167969 530.992188 196.222656 C 531.238281 196.277344 531.507812 196.332031 531.753906 196.414062 C 531.835938 196.441406 531.914062 196.46875 531.996094 196.496094 C 531.996094 196.496094 531.96875 196.496094 531.96875 196.46875 C 531.996094 196.46875 531.996094 196.496094 532.023438 196.496094 C 532.050781 196.496094 532.078125 196.523438 532.105469 196.523438 C 532.1875 196.578125 532.296875 196.605469 532.375 196.660156 C 532.621094 196.792969 532.839844 196.929688 533.054688 197.09375 C 533.109375 197.121094 533.136719 197.175781 533.191406 197.199219 C 533.300781 197.28125 533.40625 197.390625 533.488281 197.5 C 533.597656 197.609375 533.679688 197.714844 533.761719 197.796875 C 533.761719 197.796875 533.789062 197.824219 533.816406 197.851562 C 533.816406 197.878906 533.84375 197.878906 533.84375 197.90625 C 533.84375 197.90625 533.871094 197.933594 533.871094 197.933594 C 533.871094 197.933594 533.871094 197.933594 533.84375 197.933594 C 533.921875 198.097656 534.058594 198.3125 534.167969 198.53125 Z M 531.808594 204.691406 C 531.78125 204.71875 531.753906 204.71875 531.726562 204.71875 C 531.726562 204.71875 531.753906 204.691406 531.808594 204.691406 Z M 541.546875 163.09375 C 541.222656 163.230469 540.898438 163.363281 540.570312 163.5 C 540.542969 163.5 540.515625 163.527344 540.515625 163.527344 C 540.4375 163.554688 540.382812 163.582031 540.300781 163.609375 C 540.164062 163.664062 540.027344 163.71875 539.867188 163.800781 C 537.859375 164.640625 535.824219 165.425781 533.761719 166.1875 C 533.734375 164.207031 533.679688 162.226562 533.625 160.21875 C 533.597656 159.730469 533.597656 159.214844 533.570312 158.726562 C 537.207031 159.59375 540.816406 160.652344 544.34375 161.84375 C 544.042969 161.980469 543.746094 162.117188 543.449219 162.253906 C 542.851562 162.523438 542.199219 162.824219 541.546875 163.09375 Z M 530.613281 156.417969 C 530.613281 156.390625 530.585938 156.390625 530.585938 156.363281 C 530.585938 156.363281 530.585938 156.390625 530.613281 156.417969 Z M 528.875 156.527344 C 528.875 156.527344 528.847656 156.609375 528.820312 156.636719 C 528.820312 156.582031 528.847656 156.527344 528.875 156.527344 Z M 528.714844 162.171875 C 528.714844 160.921875 528.742188 159.703125 528.742188 158.453125 C 528.742188 158.15625 528.742188 157.855469 528.742188 157.558594 C 528.742188 157.421875 528.742188 157.285156 528.742188 157.179688 C 528.742188 157.097656 528.742188 157.015625 528.742188 156.933594 C 528.742188 156.933594 528.742188 156.933594 528.742188 156.90625 C 528.742188 156.878906 528.769531 156.746094 528.796875 156.664062 C 528.796875 156.664062 528.820312 156.636719 528.820312 156.609375 C 528.847656 156.554688 528.875 156.5 528.902344 156.445312 C 528.902344 156.445312 528.929688 156.417969 528.957031 156.363281 C 528.957031 156.363281 528.984375 156.335938 529.011719 156.335938 C 529.066406 156.28125 529.09375 156.253906 529.148438 156.203125 C 529.175781 156.175781 529.285156 156.121094 529.363281 156.066406 C 529.335938 156.066406 529.335938 156.066406 529.363281 156.066406 C 529.417969 156.039062 529.472656 156.011719 529.5 156.011719 C 529.5 156.011719 529.472656 156.039062 529.445312 156.039062 C 529.5 156.011719 529.582031 156.011719 529.636719 155.984375 C 529.691406 155.984375 529.746094 155.984375 529.773438 155.984375 C 529.800781 155.984375 529.878906 155.984375 529.851562 155.984375 C 529.851562 155.984375 529.878906 155.984375 529.878906 155.984375 C 529.933594 155.984375 530.070312 156.039062 530.152344 156.039062 C 530.097656 156.011719 530.015625 155.957031 530.152344 156.039062 C 530.179688 156.039062 530.207031 156.066406 530.207031 156.066406 C 530.207031 156.066406 530.179688 156.066406 530.179688 156.066406 C 530.234375 156.09375 530.289062 156.121094 530.339844 156.148438 C 530.339844 156.148438 530.367188 156.148438 530.367188 156.148438 C 530.339844 156.121094 530.316406 156.121094 530.316406 156.09375 C 530.316406 156.09375 530.339844 156.121094 530.394531 156.148438 C 530.476562 156.175781 530.449219 156.175781 530.394531 156.148438 C 530.421875 156.175781 530.449219 156.203125 530.449219 156.203125 C 530.503906 156.230469 530.53125 156.28125 530.585938 156.335938 C 530.613281 156.363281 530.613281 156.363281 530.640625 156.390625 C 530.667969 156.445312 530.722656 156.554688 530.777344 156.609375 C 530.777344 156.664062 530.832031 156.746094 530.832031 156.796875 C 530.832031 156.796875 530.832031 156.796875 530.832031 156.824219 C 530.832031 156.824219 530.855469 156.851562 530.855469 156.90625 C 530.855469 156.933594 530.855469 156.933594 530.855469 156.960938 C 530.855469 156.960938 530.855469 156.988281 530.855469 156.988281 C 530.855469 156.988281 530.855469 156.960938 530.855469 156.960938 C 530.855469 157.097656 530.855469 157.261719 530.882812 157.394531 C 530.910156 158.019531 530.9375 158.644531 530.9375 159.269531 C 531.019531 162.171875 531.101562 165.046875 531.128906 167.949219 C 531.128906 168.003906 531.128906 168.058594 531.128906 168.140625 C 531.15625 170.691406 531.183594 173.242188 531.210938 175.820312 C 531.238281 181.492188 531.210938 187.132812 531.101562 192.804688 C 531.101562 193.023438 531.101562 193.238281 531.101562 193.457031 C 530.367188 193.375 529.636719 193.402344 528.929688 193.511719 C 528.769531 188.625 528.714844 183.714844 528.6875 178.832031 C 528.632812 173.269531 528.660156 167.707031 528.714844 162.171875 Z M 492.679688 176.714844 C 492.652344 176.714844 492.652344 176.714844 492.652344 176.714844 C 492.652344 176.714844 492.652344 176.714844 492.679688 176.714844 Z M 467.960938 188.625 C 467.960938 188.652344 467.933594 188.652344 467.933594 188.652344 C 467.960938 188.652344 467.960938 188.625 467.960938 188.625 Z M 462.996094 197.066406 C 467.039062 196.984375 471.082031 196.929688 475.125 196.875 C 479.519531 196.820312 483.886719 196.792969 488.285156 196.765625 C 492.761719 196.738281 497.265625 196.765625 501.742188 196.792969 C 502.449219 196.792969 503.152344 196.820312 503.859375 196.820312 C 503.886719 196.929688 503.886719 197.039062 503.914062 197.148438 C 503.914062 197.226562 503.941406 197.308594 503.941406 197.390625 C 503.941406 197.417969 503.941406 197.472656 503.96875 197.527344 C 503.96875 197.582031 503.996094 197.664062 503.996094 197.6875 C 503.996094 197.796875 504.023438 197.90625 504.023438 198.015625 C 504.128906 198.910156 504.210938 199.832031 504.265625 200.726562 C 501.28125 203.441406 498.324219 206.15625 495.339844 208.839844 C 493.820312 210.226562 492.300781 211.609375 490.78125 212.992188 C 490.320312 213.398438 489.886719 213.808594 489.421875 214.214844 C 489.398438 214.242188 489.34375 214.269531 489.316406 214.324219 C 489.070312 214.539062 488.828125 214.757812 488.582031 214.972656 C 488.257812 215.273438 487.902344 215.570312 487.578125 215.871094 C 487.414062 216.003906 487.28125 216.140625 487.117188 216.277344 C 487.035156 216.332031 486.980469 216.382812 486.898438 216.464844 C 486.875 216.492188 486.820312 216.519531 486.792969 216.546875 C 486.765625 216.546875 486.765625 216.574219 486.738281 216.574219 C 486.410156 216.820312 486.085938 217.035156 485.734375 217.199219 C 485.707031 217.199219 485.679688 217.226562 485.625 217.253906 C 485.542969 217.28125 485.433594 217.308594 485.355469 217.335938 C 485.273438 217.363281 485.191406 217.390625 485.109375 217.414062 C 485.082031 217.414062 485.027344 217.441406 484.945312 217.46875 C 484.757812 217.496094 484.539062 217.46875 484.351562 217.46875 C 484.351562 217.46875 484.324219 217.46875 484.324219 217.46875 C 484.324219 217.46875 484.296875 217.46875 484.296875 217.46875 C 484.214844 217.441406 484.160156 217.441406 484.078125 217.414062 C 483.96875 217.390625 483.859375 217.363281 483.78125 217.335938 C 483.753906 217.335938 483.726562 217.308594 483.699219 217.308594 C 483.507812 217.253906 483.292969 217.117188 483.128906 217.007812 C 482.9375 216.898438 482.75 216.765625 482.558594 216.65625 C 482.53125 216.628906 482.421875 216.546875 482.367188 216.519531 C 482.316406 216.492188 482.289062 216.4375 482.234375 216.410156 C 481.851562 216.113281 481.5 215.789062 481.175781 215.460938 C 480.414062 214.757812 479.65625 214.050781 478.867188 213.347656 C 475.773438 210.523438 472.683594 207.675781 469.589844 204.851562 C 466.765625 202.273438 463.945312 199.699219 461.148438 197.09375 C 461.800781 197.09375 462.398438 197.09375 462.996094 197.066406 Z M 474.148438 192.640625 C 474.148438 192.617188 474.175781 192.589844 474.175781 192.5625 C 474.230469 192.453125 474.28125 192.34375 474.335938 192.207031 C 474.527344 191.828125 474.71875 191.449219 474.90625 191.070312 C 475.3125 190.335938 475.773438 189.628906 476.265625 188.980469 C 476.265625 188.980469 476.265625 188.953125 476.289062 188.953125 C 476.34375 188.898438 476.398438 188.816406 476.453125 188.761719 C 476.589844 188.597656 476.726562 188.4375 476.859375 188.273438 C 477.105469 187.976562 477.375 187.703125 477.675781 187.433594 C 477.945312 187.160156 478.246094 186.890625 478.570312 186.644531 C 478.652344 186.589844 478.707031 186.539062 478.789062 186.484375 C 478.949219 186.375 479.113281 186.238281 479.277344 186.128906 C 479.898438 185.695312 480.578125 185.316406 481.257812 184.964844 C 481.417969 184.882812 481.582031 184.800781 481.746094 184.746094 C 481.828125 184.71875 481.878906 184.691406 481.960938 184.664062 C 481.988281 184.664062 482.015625 184.636719 482.070312 184.636719 C 482.421875 184.503906 482.777344 184.367188 483.15625 184.257812 C 483.914062 184.015625 484.675781 183.824219 485.460938 183.6875 C 485.652344 183.660156 485.816406 183.632812 486.003906 183.605469 C 486.058594 183.605469 486.085938 183.605469 486.140625 183.578125 C 486.222656 183.578125 486.304688 183.550781 486.359375 183.550781 C 486.765625 183.5 487.171875 183.472656 487.578125 183.445312 C 488.445312 183.390625 489.34375 183.390625 490.210938 183.5 C 490.292969 183.5 490.402344 183.527344 490.507812 183.527344 C 490.453125 183.527344 490.425781 183.527344 490.402344 183.527344 C 490.453125 183.527344 490.535156 183.527344 490.589844 183.527344 C 490.835938 183.550781 491.050781 183.605469 491.296875 183.660156 C 491.730469 183.742188 492.164062 183.851562 492.597656 183.988281 C 493.03125 184.121094 493.464844 184.285156 493.902344 184.449219 C 493.929688 184.449219 493.957031 184.476562 494.007812 184.503906 C 494.089844 184.53125 494.171875 184.554688 494.253906 184.609375 C 494.46875 184.71875 494.6875 184.800781 494.90625 184.910156 C 495.71875 185.316406 496.503906 185.804688 497.238281 186.347656 C 497.292969 186.402344 497.375 186.457031 497.429688 186.484375 C 497.429688 186.484375 497.457031 186.484375 497.457031 186.511719 C 497.457031 186.511719 497.484375 186.511719 497.484375 186.539062 C 497.484375 186.539062 497.507812 186.566406 497.507812 186.566406 C 497.535156 186.566406 497.535156 186.589844 497.535156 186.589844 C 497.726562 186.753906 497.917969 186.890625 498.105469 187.054688 C 498.460938 187.351562 498.785156 187.648438 499.109375 187.976562 C 499.4375 188.300781 499.734375 188.625 500.058594 188.980469 C 500.222656 189.140625 500.359375 189.332031 500.496094 189.496094 C 500.574219 189.578125 500.628906 189.683594 500.710938 189.765625 C 500.710938 189.792969 500.738281 189.792969 500.738281 189.820312 C 500.738281 189.820312 500.765625 189.847656 500.765625 189.847656 C 500.765625 189.847656 500.792969 189.875 500.792969 189.875 C 501.335938 190.609375 501.851562 191.394531 502.285156 192.179688 C 502.503906 192.589844 502.71875 193.023438 502.9375 193.457031 C 502.992188 193.539062 503.019531 193.644531 503.046875 193.726562 C 503.070312 193.78125 503.152344 194 503.152344 193.972656 C 503.179688 194.027344 503.207031 194.109375 503.207031 194.136719 C 503.207031 194.136719 503.207031 194.160156 503.207031 194.160156 C 499.273438 194.136719 495.367188 194.109375 491.433594 194.109375 C 486.898438 194.109375 482.367188 194.136719 477.835938 194.1875 C 476.453125 194.214844 475.070312 194.214844 473.6875 194.242188 C 473.792969 193.917969 473.902344 193.59375 474.039062 193.265625 C 473.984375 193.023438 474.09375 192.832031 474.148438 192.640625 Z M 474.121094 192.695312 C 474.121094 192.667969 474.148438 192.667969 474.148438 192.640625 C 474.121094 192.695312 474.011719 192.886719 474.121094 192.695312 Z M 504.484375 204.554688 C 504.589844 207.269531 504.644531 209.980469 504.699219 212.695312 C 504.726562 215.40625 504.753906 218.148438 504.753906 220.863281 C 504.753906 222 504.726562 223.140625 504.726562 224.28125 C 501.28125 221.839844 497.863281 219.34375 494.46875 216.792969 C 493.902344 216.359375 493.359375 215.921875 492.789062 215.515625 C 492.652344 215.40625 492.515625 215.300781 492.382812 215.191406 C 493.546875 214.132812 494.742188 213.046875 495.910156 211.988281 C 498.757812 209.382812 501.632812 206.804688 504.484375 204.203125 C 504.484375 204.335938 504.484375 204.445312 504.484375 204.554688 Z M 458.652344 228.324219 C 458.625 228.242188 458.625 228.1875 458.597656 228.132812 C 458.597656 228.078125 458.597656 228.023438 458.574219 228 C 458.574219 227.78125 458.574219 227.5625 458.574219 227.347656 C 458.597656 226.070312 458.597656 224.796875 458.574219 223.546875 C 459.414062 222.949219 460.253906 222.382812 461.097656 221.785156 C 461.3125 221.621094 461.503906 221.433594 461.558594 221.1875 C 461.613281 220.941406 461.585938 220.617188 461.449219 220.402344 C 461.3125 220.183594 461.097656 219.992188 460.851562 219.9375 C 460.609375 219.886719 460.28125 219.886719 460.066406 220.046875 C 459.550781 220.402344 459.0625 220.753906 458.546875 221.105469 C 458.546875 220.589844 458.519531 220.101562 458.519531 219.585938 C 458.574219 219.558594 458.597656 219.558594 458.652344 219.53125 C 460.335938 218.5 461.992188 217.46875 463.671875 216.410156 C 464.136719 216.140625 464.351562 215.488281 464.027344 215.027344 C 463.726562 214.566406 463.132812 214.351562 462.640625 214.675781 C 461.257812 215.542969 459.875 216.382812 458.464844 217.253906 C 458.464844 216.953125 458.464844 216.628906 458.4375 216.332031 C 458.4375 216.195312 458.4375 216.058594 458.4375 215.921875 C 459.140625 215.570312 459.847656 215.21875 460.554688 214.863281 C 460.769531 214.757812 460.960938 214.484375 461.015625 214.269531 C 461.070312 214.023438 461.042969 213.699219 460.90625 213.480469 C 460.769531 213.265625 460.554688 213.074219 460.308594 213.019531 C 460.039062 212.964844 459.765625 212.992188 459.523438 213.128906 C 459.140625 213.320312 458.789062 213.507812 458.410156 213.699219 C 458.355469 210.28125 458.328125 206.832031 458.382812 203.414062 C 458.410156 202.222656 458.4375 201.027344 458.464844 199.859375 C 458.464844 199.589844 458.492188 199.316406 458.492188 199.046875 C 458.492188 198.882812 458.492188 198.746094 458.519531 198.585938 C 458.519531 198.585938 458.519531 198.558594 458.519531 198.558594 C 458.519531 198.613281 458.492188 198.667969 458.519531 198.53125 C 458.519531 198.53125 458.519531 198.503906 458.519531 198.503906 C 458.519531 198.53125 458.519531 198.558594 458.519531 198.558594 C 458.519531 198.53125 458.519531 198.53125 458.519531 198.503906 C 464.460938 203.957031 470.375 209.382812 476.316406 214.839844 C 476.535156 215.027344 476.726562 215.21875 476.941406 215.433594 C 472.058594 218.636719 467.148438 222.027344 462.34375 225.554688 C 461.097656 226.480469 459.875 227.402344 458.652344 228.324219 Z M 461.367188 229.652344 C 465.84375 226.289062 470.429688 223.058594 475.070312 219.914062 C 476.398438 219.015625 477.757812 218.121094 479.085938 217.226562 C 479.710938 217.796875 480.359375 218.367188 481.039062 218.855469 C 481.800781 219.421875 482.667969 219.914062 483.589844 220.101562 C 484.703125 220.320312 485.789062 220.15625 486.820312 219.695312 C 488.148438 219.097656 489.289062 218.066406 490.375 217.035156 C 494.117188 219.914062 497.890625 222.734375 501.714844 225.476562 C 502.691406 226.179688 503.695312 226.886719 504.699219 227.5625 C 504.699219 228.242188 504.671875 228.921875 504.671875 229.597656 C 501.035156 229.597656 497.402344 229.679688 493.765625 229.734375 C 489.476562 229.816406 485.191406 229.898438 480.929688 229.953125 C 476.425781 229.980469 471.921875 229.980469 467.417969 229.871094 C 465.382812 229.84375 463.375 229.734375 461.367188 229.652344 Z M 467.226562 234.511719 C 467.253906 234.539062 467.253906 234.539062 467.28125 234.539062 C 467.28125 234.539062 467.253906 234.511719 467.226562 234.511719 Z M 479.546875 235.730469 C 476.96875 235.703125 474.390625 235.703125 471.8125 235.621094 C 471.433594 235.621094 471.027344 235.59375 470.648438 235.59375 C 470.511719 235.59375 470.347656 235.59375 470.210938 235.570312 C 470.160156 235.570312 470.105469 235.570312 470.050781 235.570312 C 469.96875 235.570312 469.886719 235.570312 469.804688 235.542969 C 469.777344 235.542969 469.777344 235.542969 469.75 235.542969 C 469.75 235.542969 469.75 235.542969 469.722656 235.542969 C 469.699219 235.542969 469.644531 235.542969 469.617188 235.542969 C 469.644531 235.542969 469.671875 235.542969 469.671875 235.542969 C 469.671875 235.542969 469.644531 235.542969 469.644531 235.542969 C 469.398438 235.488281 469.183594 235.460938 468.9375 235.378906 C 468.828125 235.351562 468.695312 235.296875 468.585938 235.269531 C 468.53125 235.242188 468.476562 235.214844 468.421875 235.214844 C 468.421875 235.214844 468.367188 235.1875 468.339844 235.1875 C 468.285156 235.160156 468.179688 235.105469 468.152344 235.105469 C 468.042969 235.054688 467.933594 235 467.824219 234.945312 C 467.609375 234.835938 467.417969 234.699219 467.199219 234.566406 C 467.199219 234.566406 467.175781 234.566406 467.175781 234.539062 C 467.148438 234.511719 467.121094 234.484375 467.121094 234.484375 C 467.039062 234.402344 466.929688 234.320312 466.847656 234.238281 C 466.765625 234.15625 466.414062 233.886719 466.386719 233.75 C 466.414062 233.804688 466.523438 233.914062 466.441406 233.777344 C 466.414062 233.722656 466.386719 233.667969 466.332031 233.640625 C 466.277344 233.535156 466.195312 233.453125 466.144531 233.34375 C 466.089844 233.234375 466.035156 233.152344 465.980469 233.046875 C 465.980469 233.046875 465.980469 233.046875 465.980469 233.019531 C 465.953125 232.992188 465.953125 232.964844 465.953125 232.964844 C 465.953125 232.964844 465.953125 232.9375 465.953125 232.9375 C 465.925781 232.828125 465.898438 232.746094 465.871094 232.636719 C 469.589844 232.746094 473.332031 232.800781 477.050781 232.800781 C 481.472656 232.800781 485.894531 232.71875 490.320312 232.636719 C 494.550781 232.554688 498.757812 232.476562 502.992188 232.449219 C 503.996094 232.449219 505 232.449219 506.003906 232.449219 C 506.707031 232.449219 507.386719 231.824219 507.359375 231.089844 C 507.386719 230.277344 507.386719 229.464844 507.386719 228.648438 C 507.414062 226.613281 507.441406 224.578125 507.441406 222.515625 C 507.441406 219.804688 507.441406 217.089844 507.414062 214.375 C 507.386719 211.582031 507.332031 208.761719 507.25 205.964844 C 507.167969 203.605469 507.0625 201.269531 506.84375 198.9375 C 506.761719 198.015625 506.652344 197.09375 506.492188 196.167969 C 506.273438 194.894531 505.785156 193.699219 505.269531 192.507812 C 503.695312 188.925781 501.0625 185.804688 497.808594 183.632812 C 496.207031 182.574219 494.445312 181.761719 492.597656 181.273438 C 490.78125 180.8125 488.882812 180.675781 487.007812 180.839844 C 483.671875 181.082031 480.332031 182.085938 477.59375 184.066406 C 474.636719 186.210938 472.546875 189.222656 471.269531 192.617188 C 471.054688 193.183594 470.863281 193.726562 470.703125 194.324219 C 469.234375 194.351562 467.796875 194.378906 466.332031 194.40625 C 466.414062 194 466.46875 193.621094 466.578125 193.210938 C 466.765625 192.34375 466.984375 191.503906 467.253906 190.660156 C 467.390625 190.28125 467.527344 189.875 467.664062 189.496094 C 467.742188 189.304688 467.796875 189.113281 467.878906 188.925781 C 467.90625 188.84375 467.933594 188.761719 467.988281 188.679688 C 468.015625 188.652344 468.015625 188.597656 468.042969 188.574219 C 468.367188 187.839844 468.71875 187.105469 469.128906 186.402344 C 469.507812 185.722656 469.941406 185.070312 470.402344 184.449219 C 470.457031 184.367188 470.511719 184.285156 470.566406 184.203125 C 470.703125 184.042969 470.808594 183.878906 470.945312 183.742188 C 471.191406 183.445312 471.460938 183.144531 471.730469 182.875 C 472.273438 182.304688 472.84375 181.789062 473.441406 181.300781 C 473.578125 181.191406 473.714844 181.082031 473.847656 180.976562 C 473.792969 181.003906 473.765625 181.027344 473.742188 181.054688 C 473.765625 181.027344 473.820312 180.976562 473.847656 180.949219 C 473.929688 180.894531 474.011719 180.839844 474.09375 180.757812 C 474.417969 180.539062 474.746094 180.296875 475.070312 180.105469 C 475.75 179.671875 476.453125 179.292969 477.160156 178.941406 C 477.347656 178.859375 477.511719 178.777344 477.703125 178.695312 C 477.785156 178.667969 477.863281 178.613281 477.945312 178.585938 C 477.972656 178.558594 478.027344 178.558594 478.027344 178.558594 C 478.40625 178.398438 478.8125 178.261719 479.195312 178.125 C 480.875 177.554688 482.585938 177.175781 484.351562 176.90625 C 484.375 176.90625 484.375 176.90625 484.402344 176.90625 C 484.511719 176.878906 484.648438 176.878906 484.757812 176.851562 C 485 176.824219 485.246094 176.796875 485.488281 176.769531 C 485.976562 176.714844 486.464844 176.6875 486.953125 176.660156 C 487.902344 176.605469 488.855469 176.605469 489.832031 176.632812 C 490.699219 176.660156 491.566406 176.714844 492.4375 176.824219 C 492.515625 176.824219 492.597656 176.851562 492.679688 176.851562 C 492.707031 176.851562 492.734375 176.851562 492.761719 176.851562 C 492.976562 176.878906 493.167969 176.90625 493.386719 176.960938 C 493.765625 177.011719 494.144531 177.09375 494.523438 177.175781 C 495.285156 177.339844 496.042969 177.554688 496.777344 177.800781 C 497.128906 177.910156 497.484375 178.042969 497.835938 178.179688 C 497.917969 178.207031 498 178.234375 498.078125 178.261719 C 498.242188 178.34375 498.433594 178.425781 498.59375 178.503906 C 499.246094 178.804688 499.898438 179.15625 500.496094 179.535156 C 500.792969 179.726562 501.0625 179.917969 501.363281 180.105469 C 501.5 180.214844 501.632812 180.296875 501.769531 180.40625 C 501.824219 180.460938 501.90625 180.511719 501.960938 180.539062 C 501.960938 180.539062 501.960938 180.539062 501.988281 180.566406 C 503.097656 181.4375 504.101562 182.441406 505 183.527344 C 505.105469 183.660156 505.214844 183.769531 505.296875 183.90625 C 505.351562 183.988281 505.433594 184.066406 505.488281 184.148438 C 505.703125 184.449219 505.921875 184.746094 506.109375 185.046875 C 506.519531 185.667969 506.898438 186.292969 507.25 186.945312 C 507.601562 187.59375 507.929688 188.273438 508.253906 188.980469 C 508.308594 189.0625 508.335938 189.167969 508.363281 189.25 C 508.363281 189.25 508.363281 189.25 508.363281 189.277344 C 508.445312 189.46875 508.5 189.628906 508.582031 189.820312 C 508.714844 190.199219 508.878906 190.582031 509.015625 190.960938 C 509.585938 192.535156 510.019531 194.136719 510.371094 195.761719 C 510.5625 196.632812 510.722656 197.5 510.886719 198.394531 C 510.96875 198.828125 511.023438 199.261719 511.105469 199.699219 C 511.132812 199.804688 511.132812 199.941406 511.15625 200.050781 C 511.15625 200.078125 511.15625 200.105469 511.15625 200.132812 C 511.15625 200.160156 511.15625 200.1875 511.15625 200.210938 C 511.15625 200.292969 511.15625 200.320312 511.132812 200.265625 C 511.132812 200.457031 511.210938 200.675781 511.238281 200.835938 C 511.484375 202.761719 511.621094 204.691406 511.699219 206.617188 C 511.890625 211.175781 511.78125 215.734375 511.78125 220.292969 C 511.78125 224.605469 511.78125 228.949219 511.808594 233.261719 C 511.808594 234.050781 511.808594 234.835938 511.808594 235.648438 C 508.6875 235.703125 505.570312 235.757812 502.449219 235.785156 C 498.460938 235.8125 494.445312 235.839844 490.453125 235.839844 C 486.898438 235.757812 483.238281 235.730469 479.546875 235.730469 Z M 522.390625 260.179688 C 522.390625 261.074219 522.363281 261.996094 522.335938 262.890625 C 518.703125 263.054688 515.09375 263.109375 511.457031 263 C 510.722656 262.972656 509.992188 262.945312 509.257812 262.917969 C 510.425781 261.996094 511.59375 261.074219 512.757812 260.152344 C 512.949219 259.988281 513.058594 259.664062 513.058594 259.417969 C 513.058594 259.175781 512.949219 258.875 512.757812 258.6875 C 512.570312 258.496094 512.296875 258.386719 512.027344 258.386719 C 511.726562 258.386719 511.539062 258.496094 511.292969 258.6875 C 510.535156 259.285156 509.800781 259.851562 509.042969 260.449219 C 509.042969 259.988281 509.042969 259.527344 509.042969 259.066406 C 509.097656 259.039062 509.121094 259.039062 509.175781 259.011719 C 511.292969 257.546875 513.382812 256.082031 515.5 254.617188 C 515.933594 254.316406 516.179688 253.722656 515.851562 253.234375 C 515.582031 252.796875 514.929688 252.554688 514.46875 252.878906 C 512.652344 254.128906 510.859375 255.375 509.042969 256.652344 C 509.042969 256.109375 509.042969 255.566406 509.042969 255.023438 C 510.125 254.34375 511.183594 253.667969 512.269531 252.988281 C 512.730469 252.71875 512.949219 252.066406 512.625 251.605469 C 512.324219 251.144531 511.699219 250.925781 511.238281 251.25 C 510.507812 251.714844 509.773438 252.175781 509.042969 252.636719 C 509.042969 251.660156 509.042969 250.710938 509.042969 249.730469 C 509.042969 248.917969 509.042969 248.105469 509.042969 247.261719 C 509.203125 247.261719 509.367188 247.289062 509.53125 247.289062 C 513.601562 247.480469 517.644531 247.480469 521.714844 247.34375 C 521.957031 247.34375 522.230469 247.316406 522.472656 247.316406 C 522.472656 251.605469 522.472656 255.890625 522.390625 260.179688 Z M 532.242188 243.4375 C 532.160156 243.464844 532.023438 243.519531 532.242188 243.4375 Z M 534.277344 242.027344 C 534.304688 242 534.332031 241.945312 534.332031 241.945312 C 534.332031 241.945312 534.304688 241.972656 534.277344 242.027344 Z M 534.710938 241.238281 C 534.65625 241.429688 534.683594 241.320312 534.710938 241.238281 Z M 534.980469 238.308594 C 534.980469 238.308594 534.980469 238.28125 534.980469 238.28125 C 535.0625 238.609375 535.0625 239.042969 535.0625 239.394531 C 535.0625 239.558594 535.0625 239.71875 535.0625 239.882812 C 535.0625 239.964844 535.0625 240.046875 535.035156 240.128906 C 535.007812 240.398438 535.089844 240.101562 535.035156 240.101562 C 535.117188 240.152344 534.847656 240.941406 534.820312 241.050781 C 534.792969 241.105469 534.765625 241.15625 534.765625 241.238281 C 534.710938 241.292969 534.574219 241.621094 534.546875 241.644531 C 534.464844 241.78125 534.382812 241.917969 534.277344 242.054688 C 534.25 242.082031 534.25 242.109375 534.25 242.109375 C 534.195312 242.160156 534.113281 242.242188 534.113281 242.269531 C 534.003906 242.378906 533.894531 242.488281 533.789062 242.597656 C 533.734375 242.652344 533.679688 242.675781 533.652344 242.703125 C 533.652344 242.703125 533.625 242.703125 533.625 242.730469 C 533.273438 242.949219 532.945312 243.164062 532.566406 243.355469 C 532.457031 243.410156 532.375 243.464844 532.269531 243.492188 C 532.105469 243.546875 531.941406 243.628906 531.753906 243.679688 C 531.347656 243.816406 530.9375 243.925781 530.503906 244.035156 C 530.125 244.117188 529.71875 244.195312 529.335938 244.25 C 529.335938 244.25 529.3125 244.25 529.3125 244.25 C 529.203125 244.25 529.121094 244.277344 529.039062 244.277344 C 528.820312 244.304688 528.578125 244.332031 528.359375 244.359375 C 526.921875 244.496094 525.484375 244.550781 524.019531 244.605469 C 523.992188 244.605469 523.964844 244.605469 523.964844 244.605469 C 523.964844 244.605469 523.9375 244.605469 523.9375 244.605469 C 523.585938 244.605469 523.261719 244.632812 522.90625 244.632812 C 519.082031 244.765625 515.226562 244.820312 511.402344 244.683594 C 510.289062 244.660156 509.148438 244.605469 508.039062 244.523438 C 507.984375 244.523438 507.929688 244.523438 507.875 244.523438 C 507.167969 244.46875 506.4375 244.441406 505.730469 244.359375 C 504.808594 244.277344 503.886719 244.195312 502.964844 244.089844 C 502.882812 244.089844 502.773438 244.0625 502.691406 244.0625 C 502.664062 244.0625 502.636719 244.0625 502.609375 244.0625 C 502.449219 244.035156 502.285156 244.007812 502.121094 243.980469 C 501.6875 243.898438 501.28125 243.816406 500.875 243.707031 C 500.65625 243.65625 500.441406 243.601562 500.222656 243.519531 C 500.140625 243.492188 500.058594 243.464844 499.953125 243.4375 C 499.925781 243.4375 499.789062 243.382812 499.707031 243.355469 C 499.652344 243.328125 499.570312 243.300781 499.570312 243.300781 C 499.464844 243.246094 499.355469 243.191406 499.21875 243.140625 C 499.027344 243.03125 498.839844 242.921875 498.648438 242.785156 C 498.621094 242.785156 498.621094 242.757812 498.59375 242.757812 C 498.460938 242.652344 498.488281 242.675781 498.621094 242.785156 C 498.566406 242.785156 498.433594 242.625 498.40625 242.597656 C 498.296875 242.488281 498.214844 242.378906 498.105469 242.269531 C 498.050781 242.1875 498 242.109375 497.945312 242 C 497.863281 241.835938 497.753906 241.671875 497.671875 241.511719 C 497.644531 241.457031 497.589844 241.375 497.5625 241.292969 C 497.5625 241.265625 497.535156 241.238281 497.535156 241.210938 C 497.484375 241.023438 497.402344 240.832031 497.347656 240.640625 C 497.292969 240.453125 497.238281 240.261719 497.210938 240.046875 C 497.183594 239.964844 497.183594 239.882812 497.15625 239.800781 C 497.15625 239.773438 497.101562 239.421875 497.128906 239.558594 C 497.128906 239.503906 497.128906 239.476562 497.128906 239.476562 C 497.128906 239.367188 497.101562 239.230469 497.101562 239.121094 C 497.101562 238.90625 497.074219 238.714844 497.074219 238.5 C 497.074219 238.5 497.074219 238.472656 497.074219 238.472656 C 498.351562 238.472656 499.652344 238.472656 500.929688 238.445312 C 504.671875 238.417969 508.390625 238.363281 512.136719 238.308594 C 512.542969 238.308594 512.921875 238.28125 513.328125 238.28125 C 517.914062 238.28125 522.5 238.308594 527.085938 238.308594 C 529.746094 238.308594 532.375 238.308594 535.035156 238.308594 C 534.980469 238.28125 534.980469 238.308594 534.980469 238.308594 Z M 564.800781 232.964844 C 564.773438 233.019531 564.773438 232.992188 564.800781 232.964844 Z M 565.617188 205.449219 C 565.617188 210.550781 565.589844 215.625 565.535156 220.726562 C 565.507812 223.085938 565.453125 225.421875 565.398438 227.78125 C 565.371094 228.867188 565.371094 229.953125 565.289062 231.035156 C 565.289062 231.089844 565.261719 231.144531 565.261719 231.226562 C 565.234375 231.335938 565.234375 231.445312 565.207031 231.550781 C 565.15625 231.796875 565.101562 232.066406 565.046875 232.3125 C 564.992188 232.503906 564.910156 232.691406 564.855469 232.882812 C 564.828125 232.910156 564.828125 232.964844 564.800781 232.992188 C 564.746094 233.097656 564.691406 233.234375 564.613281 233.34375 C 564.53125 233.507812 564.421875 233.667969 564.3125 233.804688 C 564.230469 233.886719 564.179688 233.96875 564.097656 234.050781 C 563.960938 234.183594 563.824219 234.292969 563.6875 234.429688 C 563.714844 234.402344 563.714844 234.402344 563.742188 234.375 C 563.714844 234.402344 563.714844 234.402344 563.6875 234.429688 C 563.582031 234.484375 563.5 234.566406 563.390625 234.617188 C 563.308594 234.671875 563.226562 234.699219 563.148438 234.753906 C 563.148438 234.753906 563.121094 234.753906 563.121094 234.78125 C 563.148438 234.78125 563.148438 234.78125 563.148438 234.78125 C 562.957031 234.835938 562.792969 234.917969 562.605469 234.972656 C 562.414062 235.027344 562.25 235.054688 562.0625 235.078125 C 562.035156 235.078125 562.035156 235.078125 562.007812 235.078125 C 561.871094 235.078125 561.734375 235.105469 561.628906 235.105469 C 558.914062 235.214844 556.226562 235.269531 553.515625 235.324219 C 549.226562 235.433594 544.96875 235.515625 540.679688 235.570312 C 536.988281 235.59375 533.300781 235.621094 529.636719 235.59375 C 525.429688 235.59375 521.199219 235.570312 516.992188 235.570312 C 516.230469 235.570312 515.445312 235.570312 514.683594 235.570312 C 514.683594 231.417969 514.683594 227.238281 514.683594 223.085938 C 514.683594 218.394531 514.738281 213.726562 514.660156 209.03125 C 514.578125 205.042969 514.277344 201.027344 513.574219 197.09375 C 512.949219 193.671875 512 190.308594 510.5625 187.160156 C 509.285156 184.394531 507.550781 181.789062 505.324219 179.699219 C 503.914062 178.371094 502.339844 177.285156 500.628906 176.417969 C 502.367188 176.390625 504.101562 176.363281 505.8125 176.308594 C 510.125 176.226562 514.441406 176.171875 518.753906 176.226562 C 521.171875 176.253906 523.585938 176.335938 526 176.417969 C 526 182.03125 526.054688 187.675781 526.21875 193.292969 C 526.246094 193.726562 526.246094 194.160156 526.273438 194.597656 C 525.347656 195.164062 524.5625 195.953125 523.992188 196.929688 C 522.554688 199.371094 522.691406 202.492188 524.371094 204.769531 C 525.320312 206.046875 526.597656 207.050781 528.117188 207.539062 C 529.582031 208.027344 531.210938 207.945312 532.648438 207.375 C 535.496094 206.210938 537.585938 203.46875 537.398438 200.320312 C 537.316406 198.71875 536.71875 197.253906 535.714844 196.007812 C 535.199219 195.382812 534.546875 194.839844 533.816406 194.460938 C 533.949219 188.816406 533.976562 183.144531 533.949219 177.5 C 533.949219 177.148438 533.949219 176.769531 533.949219 176.417969 C 535.957031 176.417969 537.964844 176.417969 539.945312 176.46875 C 541.058594 176.496094 542.171875 176.550781 543.285156 176.660156 C 543.800781 176.714844 544.316406 176.742188 544.859375 176.824219 C 544.992188 176.851562 545.101562 176.851562 545.238281 176.878906 C 545.347656 176.878906 545.726562 176.90625 545.347656 176.878906 C 545.589844 176.878906 545.863281 176.960938 546.132812 176.984375 C 548.058594 177.285156 549.960938 177.746094 551.804688 178.480469 C 551.914062 178.53125 552.023438 178.558594 552.128906 178.613281 C 552.15625 178.613281 552.183594 178.640625 552.238281 178.667969 C 552.457031 178.777344 552.671875 178.859375 552.890625 178.96875 C 553.324219 179.15625 553.730469 179.375 554.136719 179.617188 C 553.027344 180.460938 551.941406 181.300781 550.828125 182.140625 C 550.609375 182.304688 550.449219 182.46875 550.367188 182.738281 C 550.3125 182.984375 550.339844 183.308594 550.476562 183.527344 C 550.746094 183.933594 551.425781 184.230469 551.859375 183.878906 C 553.242188 182.820312 554.597656 181.789062 555.984375 180.730469 C 556.253906 180.921875 556.527344 181.109375 556.769531 181.300781 C 556.824219 181.328125 557.097656 181.542969 556.933594 181.4375 C 556.769531 181.328125 557.097656 181.570312 557.121094 181.597656 C 557.148438 181.597656 557.148438 181.625 557.148438 181.625 C 555.113281 183.445312 553.054688 185.261719 551.019531 187.078125 C 550.609375 187.433594 550.636719 188.136719 551.019531 188.519531 C 551.425781 188.925781 552.050781 188.898438 552.457031 188.519531 C 554.546875 186.671875 556.605469 184.828125 558.695312 182.957031 C 558.832031 183.089844 558.96875 183.199219 559.078125 183.335938 C 559.320312 183.578125 559.566406 183.851562 559.808594 184.121094 C 559.183594 184.664062 558.5625 185.207031 557.9375 185.75 C 557.746094 185.914062 557.636719 186.238281 557.636719 186.484375 C 557.636719 186.726562 557.746094 187.027344 557.9375 187.214844 C 558.125 187.40625 558.398438 187.515625 558.667969 187.515625 C 558.941406 187.515625 559.183594 187.40625 559.402344 187.214844 C 560 186.699219 560.570312 186.210938 561.164062 185.695312 C 561.191406 185.75 561.246094 185.804688 561.273438 185.859375 C 561.980469 186.808594 562.605469 187.8125 563.148438 188.84375 C 563.417969 189.359375 563.6875 189.902344 563.90625 190.417969 C 563.90625 190.417969 563.90625 190.445312 563.933594 190.472656 C 563.960938 190.5 563.988281 190.582031 563.988281 190.582031 C 564.042969 190.714844 564.097656 190.851562 564.152344 190.988281 C 564.257812 191.257812 564.367188 191.558594 564.476562 191.828125 C 564.855469 192.941406 565.15625 194.082031 565.371094 195.21875 C 565.425781 195.492188 565.480469 195.789062 565.507812 196.0625 C 565.507812 196.117188 565.535156 196.167969 565.535156 196.222656 C 565.5625 196.386719 565.5625 196.550781 565.589844 196.710938 C 565.644531 197.308594 565.671875 197.878906 565.699219 198.476562 C 565.644531 200.703125 565.617188 203.0625 565.617188 205.449219 Z M 565.617188 205.449219 " fill-opacity="1" fill-rule="nonzero"/></g><path fill="#ff7400" d="M 563.714844 234.375 C 563.796875 234.292969 563.878906 234.210938 563.714844 234.375 Z M 563.714844 234.375 " fill-opacity="1" fill-rule="nonzero"/><path fill="#ff7400" d="M 527.355469 196.984375 C 527.328125 197.011719 527.304688 197.011719 527.277344 197.039062 C 527.277344 197.039062 527.25 197.039062 527.25 197.066406 C 527.410156 196.984375 527.410156 196.957031 527.355469 196.984375 Z M 527.355469 196.984375 " fill-opacity="1" fill-rule="nonzero"/><path fill="#ff7400" d="M 534.601562 199.996094 C 534.601562 199.941406 534.601562 199.914062 534.601562 199.859375 C 534.574219 200.078125 534.601562 200.078125 534.601562 199.996094 Z M 534.601562 199.996094 " fill-opacity="1" fill-rule="nonzero"/><path fill="#ff7400" d="M 533.707031 197.769531 C 533.679688 197.769531 533.734375 197.851562 533.789062 197.878906 C 533.789062 197.878906 533.789062 197.878906 533.789062 197.851562 C 533.734375 197.851562 533.707031 197.796875 533.707031 197.769531 Z M 533.707031 197.769531 " fill-opacity="1" fill-rule="nonzero"/><path fill="#ff7400" d="M 531.996094 196.496094 C 531.96875 196.496094 531.941406 196.46875 531.914062 196.441406 C 531.914062 196.441406 531.886719 196.441406 531.886719 196.441406 C 532.023438 196.523438 532.023438 196.523438 531.996094 196.496094 Z M 531.996094 196.496094 " fill-opacity="1" fill-rule="nonzero"/><path fill="#ff7400" d="M 529.417969 156.066406 C 529.390625 156.066406 529.363281 156.066406 529.363281 156.066406 C 529.363281 156.09375 529.417969 156.066406 529.417969 156.066406 Z M 529.417969 156.066406 " fill-opacity="1" fill-rule="nonzero"/><path fill="#ff7400" d="M 530.394531 156.203125 C 530.394531 156.203125 530.367188 156.203125 530.367188 156.175781 C 530.367188 156.203125 530.394531 156.203125 530.394531 156.203125 Z M 530.394531 156.203125 " fill-opacity="1" fill-rule="nonzero"/><path fill="#ff7400" d="M 530.832031 157.015625 C 530.832031 156.960938 530.804688 156.90625 530.804688 156.878906 C 530.804688 156.878906 530.804688 156.933594 530.832031 157.015625 Z M 530.832031 157.015625 " fill-opacity="1" fill-rule="nonzero"/><path fill="#ff7400" d="M 562.222656 228.894531 C 561.953125 228.894531 561.679688 229.003906 561.492188 229.191406 C 561.4375 229.273438 561.382812 229.328125 561.328125 229.410156 C 561.246094 229.542969 561.21875 229.679688 561.191406 229.816406 C 561.164062 229.925781 561.140625 230.03125 561.113281 230.140625 C 561.058594 230.25 561.003906 230.359375 560.921875 230.441406 C 560.839844 230.546875 560.757812 230.628906 560.652344 230.710938 C 560.542969 230.792969 560.460938 230.847656 560.351562 230.902344 C 560.242188 230.929688 560.136719 230.984375 560.027344 230.984375 C 559.78125 231.035156 559.539062 231.253906 559.429688 231.445312 C 559.292969 231.660156 559.238281 231.988281 559.320312 232.230469 C 559.402344 232.476562 559.566406 232.71875 559.78125 232.828125 C 560.027344 232.964844 560.269531 232.992188 560.570312 232.9375 C 561.21875 232.828125 561.871094 232.421875 562.304688 231.960938 C 562.523438 231.714844 562.738281 231.445312 562.875 231.117188 C 562.957031 230.929688 563.039062 230.738281 563.09375 230.546875 C 563.148438 230.332031 563.175781 230.113281 563.199219 229.898438 C 563.226562 229.652344 563.066406 229.355469 562.902344 229.164062 C 562.765625 229.003906 562.46875 228.867188 562.222656 228.894531 Z M 562.222656 228.894531 " fill-opacity="1" fill-rule="nonzero"/><path fill="#ff7400" d="M 504.484375 240.914062 C 504.265625 240.886719 504.074219 240.832031 503.886719 240.75 C 503.695312 240.667969 503.535156 240.5625 503.371094 240.453125 C 503.207031 240.316406 503.070312 240.179688 502.9375 240.019531 C 502.910156 239.992188 502.910156 239.992188 502.882812 239.964844 C 502.746094 239.746094 502.53125 239.558594 502.285156 239.503906 C 502.042969 239.449219 501.714844 239.476562 501.5 239.613281 C 501.28125 239.746094 501.089844 239.964844 501.035156 240.207031 C 500.984375 240.480469 500.984375 240.75 501.144531 240.996094 C 501.5 241.511719 501.933594 241.945312 502.449219 242.296875 C 502.691406 242.460938 502.992188 242.597656 503.261719 242.703125 C 503.480469 242.785156 503.695312 242.867188 503.941406 242.894531 C 504.210938 242.949219 504.484375 242.949219 504.726562 242.785156 C 504.945312 242.652344 505.132812 242.433594 505.1875 242.1875 C 505.242188 241.917969 505.242188 241.644531 505.078125 241.402344 C 504.945312 241.183594 504.726562 240.96875 504.484375 240.914062 Z M 504.484375 240.914062 " fill-opacity="1" fill-rule="nonzero"/><path fill="#ff7400" d="M 486.003906 214.511719 C 486.25 214.566406 486.574219 214.566406 486.792969 214.402344 C 487.441406 213.941406 488.09375 213.453125 488.71875 212.992188 C 488.828125 212.9375 488.933594 212.832031 489.015625 212.722656 C 489.097656 212.613281 489.179688 212.503906 489.207031 212.367188 C 489.261719 212.125 489.234375 211.800781 489.097656 211.582031 C 488.960938 211.363281 488.746094 211.175781 488.5 211.121094 C 488.257812 211.066406 487.929688 211.066406 487.714844 211.230469 C 487.0625 211.691406 486.410156 212.179688 485.789062 212.640625 C 485.679688 212.695312 485.570312 212.804688 485.488281 212.910156 C 485.40625 213.019531 485.328125 213.128906 485.300781 213.265625 C 485.246094 213.507812 485.273438 213.835938 485.40625 214.050781 C 485.542969 214.269531 485.761719 214.457031 486.003906 214.511719 Z M 486.003906 214.511719 " fill-opacity="1" fill-rule="nonzero"/><path fill="#ff7400" d="M 531.886719 198.421875 C 531.425781 198.71875 531.210938 199.316406 531.535156 199.804688 C 531.589844 199.859375 531.617188 199.941406 531.644531 200.023438 C 531.671875 200.132812 531.699219 200.238281 531.726562 200.347656 C 531.726562 200.484375 531.726562 200.59375 531.726562 200.726562 C 531.699219 200.863281 531.671875 200.972656 531.617188 201.109375 C 531.5625 201.21875 531.507812 201.324219 531.425781 201.433594 C 531.265625 201.625 531.15625 201.867188 531.15625 202.113281 C 531.15625 202.355469 531.265625 202.65625 531.453125 202.84375 C 531.644531 203.035156 531.914062 203.144531 532.1875 203.144531 C 532.457031 203.144531 532.730469 203.035156 532.917969 202.84375 C 533.433594 202.246094 533.707031 201.570312 533.789062 200.78125 C 533.84375 200.105469 533.679688 199.398438 533.300781 198.800781 C 533 198.339844 532.351562 198.125 531.886719 198.421875 Z M 531.886719 198.421875 " fill-opacity="1" fill-rule="nonzero"/></svg>