<svg xmlns="http://www.w3.org/2000/svg" xmlns:xlink="http://www.w3.org/1999/xlink" width="1366" zoomAndPan="magnify" viewBox="0 0 1024.5 576" height="768" preserveAspectRatio="xMidYMid meet" version="1.0"><defs><clipPath id="894fae2785"><path d="M 565 199 L 698 199 L 698 348 L 565 348 Z M 565 199 " clip-rule="nonzero"/></clipPath><clipPath id="6d8a6b6e36"><path d="M 615.152344 196.789062 L 704.101562 238.410156 L 651.996094 349.761719 L 563.050781 308.144531 Z M 615.152344 196.789062 " clip-rule="nonzero"/></clipPath><clipPath id="65f766c3d5"><path d="M 615.152344 196.789062 L 704.101562 238.410156 L 651.996094 349.761719 L 563.050781 308.144531 Z M 615.152344 196.789062 " clip-rule="nonzero"/></clipPath><clipPath id="3f1d3961c6"><path d="M 615.152344 196.789062 L 704.101562 238.410156 L 651.996094 349.761719 L 563.050781 308.144531 Z M 615.152344 196.789062 " clip-rule="nonzero"/></clipPath><clipPath id="2ab51fda26"><path d="M 608 224 L 645 224 L 645 254 L 608 254 Z M 608 224 " clip-rule="nonzero"/></clipPath><clipPath id="09ae32db29"><path d="M 615.152344 196.789062 L 704.101562 238.410156 L 651.996094 349.761719 L 563.050781 308.144531 Z M 615.152344 196.789062 " clip-rule="nonzero"/></clipPath><clipPath id="18b1769883"><path d="M 615.152344 196.789062 L 704.101562 238.410156 L 651.996094 349.761719 L 563.050781 308.144531 Z M 615.152344 196.789062 " clip-rule="nonzero"/></clipPath><clipPath id="63134c6ae8"><path d="M 615.152344 196.789062 L 704.101562 238.410156 L 651.996094 349.761719 L 563.050781 308.144531 Z M 615.152344 196.789062 " clip-rule="nonzero"/></clipPath><clipPath id="f710b9d019"><path d="M 596 250 L 625 250 L 625 280 L 596 280 Z M 596 250 " clip-rule="nonzero"/></clipPath><clipPath id="1727aa4f80"><path d="M 615.152344 196.789062 L 704.101562 238.410156 L 651.996094 349.761719 L 563.050781 308.144531 Z M 615.152344 196.789062 " clip-rule="nonzero"/></clipPath><clipPath id="f161c5d933"><path d="M 615.152344 196.789062 L 704.101562 238.410156 L 651.996094 349.761719 L 563.050781 308.144531 Z M 615.152344 196.789062 " clip-rule="nonzero"/></clipPath><clipPath id="991b033e04"><path d="M 615.152344 196.789062 L 704.101562 238.410156 L 651.996094 349.761719 L 563.050781 308.144531 Z M 615.152344 196.789062 " clip-rule="nonzero"/></clipPath><clipPath id="c11830d4e0"><path d="M 584 276 L 613 276 L 613 306 L 584 306 Z M 584 276 " clip-rule="nonzero"/></clipPath><clipPath id="f4314be103"><path d="M 615.152344 196.789062 L 704.101562 238.410156 L 651.996094 349.761719 L 563.050781 308.144531 Z M 615.152344 196.789062 " clip-rule="nonzero"/></clipPath><clipPath id="9ba66036a1"><path d="M 615.152344 196.789062 L 704.101562 238.410156 L 651.996094 349.761719 L 563.050781 308.144531 Z M 615.152344 196.789062 " clip-rule="nonzero"/></clipPath><clipPath id="a461c02312"><path d="M 615.152344 196.789062 L 704.101562 238.410156 L 651.996094 349.761719 L 563.050781 308.144531 Z M 615.152344 196.789062 " clip-rule="nonzero"/></clipPath><clipPath id="f9a7509186"><path d="M 645 241 L 682 241 L 682 261 L 645 261 Z M 645 241 " clip-rule="nonzero"/></clipPath><clipPath id="76e5c159ac"><path d="M 615.152344 196.789062 L 704.101562 238.410156 L 651.996094 349.761719 L 563.050781 308.144531 Z M 615.152344 196.789062 " clip-rule="nonzero"/></clipPath><clipPath id="ceca6cccef"><path d="M 615.152344 196.789062 L 704.101562 238.410156 L 651.996094 349.761719 L 563.050781 308.144531 Z M 615.152344 196.789062 " clip-rule="nonzero"/></clipPath><clipPath id="8f18f478df"><path d="M 615.152344 196.789062 L 704.101562 238.410156 L 651.996094 349.761719 L 563.050781 308.144531 Z M 615.152344 196.789062 " clip-rule="nonzero"/></clipPath><clipPath id="5159942bf1"><path d="M 641 250 L 664 250 L 664 264 L 641 264 Z M 641 250 " clip-rule="nonzero"/></clipPath><clipPath id="9e12cdf23b"><path d="M 615.152344 196.789062 L 704.101562 238.410156 L 651.996094 349.761719 L 563.050781 308.144531 Z M 615.152344 196.789062 " clip-rule="nonzero"/></clipPath><clipPath id="3bfc92c205"><path d="M 615.152344 196.789062 L 704.101562 238.410156 L 651.996094 349.761719 L 563.050781 308.144531 Z M 615.152344 196.789062 " clip-rule="nonzero"/></clipPath><clipPath id="3bb05370e7"><path d="M 615.152344 196.789062 L 704.101562 238.410156 L 651.996094 349.761719 L 563.050781 308.144531 Z M 615.152344 196.789062 " clip-rule="nonzero"/></clipPath><clipPath id="0ed4566c7b"><path d="M 633 267 L 669 267 L 669 287 L 633 287 Z M 633 267 " clip-rule="nonzero"/></clipPath><clipPath id="b91e1b23b6"><path d="M 615.152344 196.789062 L 704.101562 238.410156 L 651.996094 349.761719 L 563.050781 308.144531 Z M 615.152344 196.789062 " clip-rule="nonzero"/></clipPath><clipPath id="9899b87cb6"><path d="M 615.152344 196.789062 L 704.101562 238.410156 L 651.996094 349.761719 L 563.050781 308.144531 Z M 615.152344 196.789062 " clip-rule="nonzero"/></clipPath><clipPath id="1f8aba8cd6"><path d="M 615.152344 196.789062 L 704.101562 238.410156 L 651.996094 349.761719 L 563.050781 308.144531 Z M 615.152344 196.789062 " clip-rule="nonzero"/></clipPath><clipPath id="d1e8e3627f"><path d="M 628 276 L 652 276 L 652 290 L 628 290 Z M 628 276 " clip-rule="nonzero"/></clipPath><clipPath id="f3b8f370e4"><path d="M 615.152344 196.789062 L 704.101562 238.410156 L 651.996094 349.761719 L 563.050781 308.144531 Z M 615.152344 196.789062 " clip-rule="nonzero"/></clipPath><clipPath id="061c4e8eef"><path d="M 615.152344 196.789062 L 704.101562 238.410156 L 651.996094 349.761719 L 563.050781 308.144531 Z M 615.152344 196.789062 " clip-rule="nonzero"/></clipPath><clipPath id="989ca5fd17"><path d="M 615.152344 196.789062 L 704.101562 238.410156 L 651.996094 349.761719 L 563.050781 308.144531 Z M 615.152344 196.789062 " clip-rule="nonzero"/></clipPath><clipPath id="d00574d963"><path d="M 621 293 L 657 293 L 657 313 L 621 313 Z M 621 293 " clip-rule="nonzero"/></clipPath><clipPath id="8a088f0837"><path d="M 615.152344 196.789062 L 704.101562 238.410156 L 651.996094 349.761719 L 563.050781 308.144531 Z M 615.152344 196.789062 " clip-rule="nonzero"/></clipPath><clipPath id="0a87718753"><path d="M 615.152344 196.789062 L 704.101562 238.410156 L 651.996094 349.761719 L 563.050781 308.144531 Z M 615.152344 196.789062 " clip-rule="nonzero"/></clipPath><clipPath id="76b3714cee"><path d="M 615.152344 196.789062 L 704.101562 238.410156 L 651.996094 349.761719 L 563.050781 308.144531 Z M 615.152344 196.789062 " clip-rule="nonzero"/></clipPath><clipPath id="06203b21c2"><path d="M 616 302 L 640 302 L 640 316 L 616 316 Z M 616 302 " clip-rule="nonzero"/></clipPath><clipPath id="6647c0e2cb"><path d="M 615.152344 196.789062 L 704.101562 238.410156 L 651.996094 349.761719 L 563.050781 308.144531 Z M 615.152344 196.789062 " clip-rule="nonzero"/></clipPath><clipPath id="123343df64"><path d="M 615.152344 196.789062 L 704.101562 238.410156 L 651.996094 349.761719 L 563.050781 308.144531 Z M 615.152344 196.789062 " clip-rule="nonzero"/></clipPath><clipPath id="9d877692a5"><path d="M 615.152344 196.789062 L 704.101562 238.410156 L 651.996094 349.761719 L 563.050781 308.144531 Z M 615.152344 196.789062 " clip-rule="nonzero"/></clipPath></defs><g clip-path="url(#894fae2785)"><g clip-path="url(#6d8a6b6e36)"><g clip-path="url(#65f766c3d5)"><g clip-path="url(#3f1d3961c6)"><path fill="#040606" d="M 615.386719 205.949219 C 616.34375 203.90625 618.789062 203.015625 620.832031 203.972656 L 685.683594 234.316406 L 683.078125 239.886719 C 681.164062 243.980469 682.929688 248.863281 687.015625 250.777344 L 692.578125 253.378906 L 651.761719 340.605469 C 650.804688 342.648438 648.359375 343.539062 646.316406 342.582031 L 572.199219 307.898438 C 570.160156 306.945312 569.273438 304.5 570.230469 302.453125 Z M 691.691406 248.441406 L 688.753906 247.066406 C 686.714844 246.109375 685.828125 243.664062 686.785156 241.621094 L 688.164062 238.675781 Z M 570.464844 311.613281 L 644.582031 346.292969 C 648.671875 348.207031 653.550781 346.433594 655.46875 342.339844 L 696.429688 254.792969 C 696.796875 254.011719 696.980469 253.1875 697.003906 252.347656 C 697 252.292969 696.992188 252.253906 696.996094 252.210938 C 696.996094 251.496094 696.894531 250.785156 696.644531 250.09375 L 690.90625 234.226562 C 690.65625 233.535156 690.277344 232.914062 689.820312 232.363281 C 689.789062 232.332031 689.777344 232.300781 689.746094 232.277344 C 689.195312 231.640625 688.523438 231.121094 687.738281 230.753906 L 622.566406 200.257812 C 618.476562 198.347656 613.597656 200.117188 611.683594 204.214844 L 566.523438 300.71875 C 564.609375 304.816406 566.375 309.699219 570.464844 311.613281 " fill-opacity="1" fill-rule="nonzero"/></g></g></g></g><g clip-path="url(#2ab51fda26)"><g clip-path="url(#09ae32db29)"><g clip-path="url(#18b1769883)"><g clip-path="url(#63134c6ae8)"><path fill="#040606" d="M 617.820312 229.710938 C 618.300781 228.6875 619.523438 228.242188 620.542969 228.722656 L 631.660156 233.921875 C 632.457031 234.296875 632.886719 235.113281 632.8125 235.949219 L 624.839844 238.84375 L 623.566406 235.324219 C 623.183594 234.261719 622.011719 233.710938 620.949219 234.097656 C 619.886719 234.484375 619.335938 235.660156 619.71875 236.722656 L 621.6875 242.167969 C 621.882812 242.699219 622.265625 243.101562 622.746094 243.324219 C 623.222656 243.546875 623.777344 243.585938 624.308594 243.394531 L 630.550781 241.125 L 627.433594 247.78125 C 626.957031 248.804688 625.734375 249.246094 624.714844 248.769531 L 613.597656 243.566406 C 612.574219 243.089844 612.132812 241.867188 612.613281 240.84375 Z M 611.859375 247.28125 L 622.976562 252.480469 C 626.046875 253.917969 629.703125 252.589844 631.140625 249.515625 L 635.992188 239.148438 L 643.359375 236.472656 C 644.421875 236.085938 644.972656 234.910156 644.585938 233.847656 C 644.203125 232.785156 643.03125 232.234375 641.964844 232.621094 L 636.777344 234.507812 C 636.386719 232.6875 635.207031 231.058594 633.398438 230.210938 L 622.28125 225.007812 C 619.210938 223.574219 615.554688 224.902344 614.117188 227.976562 L 608.90625 239.109375 C 607.46875 242.183594 608.789062 245.84375 611.859375 247.28125 " fill-opacity="1" fill-rule="nonzero"/></g></g></g></g><g clip-path="url(#f710b9d019)"><g clip-path="url(#1727aa4f80)"><g clip-path="url(#f161c5d933)"><g clip-path="url(#991b033e04)"><path fill="#040606" d="M 605.664062 255.691406 C 606.140625 254.671875 607.363281 254.226562 608.386719 254.703125 L 619.503906 259.90625 C 620.523438 260.382812 620.964844 261.605469 620.488281 262.628906 L 615.277344 273.765625 C 614.800781 274.785156 613.578125 275.230469 612.554688 274.753906 L 601.4375 269.550781 C 600.417969 269.074219 599.976562 267.851562 600.453125 266.828125 Z M 599.703125 273.261719 L 610.820312 278.464844 C 613.886719 279.902344 617.546875 278.570312 618.984375 275.496094 L 624.195312 264.363281 C 625.632812 261.289062 624.308594 257.628906 621.238281 256.195312 L 610.121094 250.992188 C 607.054688 249.554688 603.398438 250.882812 601.957031 253.957031 L 596.746094 265.09375 C 595.308594 268.167969 596.632812 271.824219 599.703125 273.261719 " fill-opacity="1" fill-rule="nonzero"/></g></g></g></g><g clip-path="url(#c11830d4e0)"><g clip-path="url(#f4314be103)"><g clip-path="url(#9ba66036a1)"><g clip-path="url(#a461c02312)"><path fill="#040606" d="M 593.507812 281.675781 C 593.984375 280.652344 595.207031 280.207031 596.226562 280.6875 L 607.34375 285.886719 C 608.367188 286.367188 608.808594 287.589844 608.332031 288.609375 L 603.121094 299.746094 C 602.640625 300.769531 601.417969 301.210938 600.398438 300.734375 L 589.28125 295.53125 C 588.261719 295.054688 587.816406 293.832031 588.296875 292.808594 Z M 587.542969 299.246094 L 598.660156 304.445312 C 601.730469 305.882812 605.386719 304.554688 606.824219 301.480469 L 612.035156 290.34375 C 613.472656 287.269531 612.152344 283.613281 609.082031 282.175781 L 597.964844 276.972656 C 594.894531 275.539062 591.238281 276.867188 589.800781 279.941406 L 584.589844 291.074219 C 583.152344 294.148438 584.476562 297.808594 587.542969 299.246094 " fill-opacity="1" fill-rule="nonzero"/></g></g></g></g><g clip-path="url(#f9a7509186)"><g clip-path="url(#76e5c159ac)"><g clip-path="url(#ceca6cccef)"><g clip-path="url(#8f18f478df)"><path fill="#040606" d="M 646.601562 245.4375 L 678.101562 260.179688 C 679.121094 260.65625 680.34375 260.210938 680.824219 259.191406 C 681.300781 258.167969 680.859375 256.945312 679.839844 256.464844 L 648.335938 241.726562 C 647.316406 241.25 646.09375 241.695312 645.617188 242.714844 C 645.136719 243.738281 645.582031 244.960938 646.601562 245.4375 " fill-opacity="1" fill-rule="nonzero"/></g></g></g></g><g clip-path="url(#5159942bf1)"><g clip-path="url(#9e12cdf23b)"><g clip-path="url(#3bfc92c205)"><g clip-path="url(#3bb05370e7)"><path fill="#040606" d="M 642.257812 254.71875 L 660.789062 263.386719 C 661.808594 263.867188 663.03125 263.421875 663.507812 262.398438 C 663.988281 261.378906 663.546875 260.152344 662.523438 259.675781 L 643.996094 251.007812 C 642.976562 250.527344 641.753906 250.972656 641.273438 251.996094 C 640.796875 253.015625 641.238281 254.242188 642.257812 254.71875 " fill-opacity="1" fill-rule="nonzero"/></g></g></g></g><g clip-path="url(#0ed4566c7b)"><g clip-path="url(#b91e1b23b6)"><g clip-path="url(#9899b87cb6)"><g clip-path="url(#1f8aba8cd6)"><path fill="#040606" d="M 634.441406 271.421875 L 665.945312 286.160156 C 666.964844 286.636719 668.1875 286.195312 668.664062 285.171875 C 669.144531 284.148438 668.699219 282.925781 667.679688 282.449219 L 636.179688 267.710938 C 635.160156 267.230469 633.9375 267.675781 633.457031 268.699219 C 632.980469 269.71875 633.421875 270.941406 634.441406 271.421875 " fill-opacity="1" fill-rule="nonzero"/></g></g></g></g><g clip-path="url(#d1e8e3627f)"><g clip-path="url(#f3b8f370e4)"><g clip-path="url(#061c4e8eef)"><g clip-path="url(#989ca5fd17)"><path fill="#040606" d="M 630.101562 280.699219 L 648.628906 289.371094 C 649.652344 289.847656 650.875 289.402344 651.351562 288.382812 C 651.832031 287.359375 651.386719 286.136719 650.367188 285.660156 L 631.839844 276.988281 C 630.816406 276.511719 629.59375 276.957031 629.117188 277.976562 C 628.636719 279 629.082031 280.222656 630.101562 280.699219 " fill-opacity="1" fill-rule="nonzero"/></g></g></g></g><g clip-path="url(#d00574d963)"><g clip-path="url(#8a088f0837)"><g clip-path="url(#0a87718753)"><g clip-path="url(#76b3714cee)"><path fill="#040606" d="M 622.285156 297.402344 L 653.785156 312.144531 C 654.804688 312.621094 656.027344 312.175781 656.507812 311.152344 C 656.984375 310.132812 656.542969 308.910156 655.523438 308.429688 L 624.023438 293.691406 C 623 293.214844 621.777344 293.65625 621.300781 294.679688 C 620.824219 295.703125 621.265625 296.925781 622.285156 297.402344 " fill-opacity="1" fill-rule="nonzero"/></g></g></g></g><g clip-path="url(#06203b21c2)"><g clip-path="url(#6647c0e2cb)"><g clip-path="url(#123343df64)"><g clip-path="url(#9d877692a5)"><path fill="#040606" d="M 617.941406 306.683594 L 636.472656 315.351562 C 637.492188 315.832031 638.714844 315.386719 639.195312 314.363281 C 639.671875 313.34375 639.230469 312.117188 638.210938 311.640625 L 619.679688 302.972656 C 618.660156 302.492188 617.4375 302.9375 616.957031 303.960938 C 616.480469 304.980469 616.921875 306.203125 617.941406 306.683594 " fill-opacity="1" fill-rule="nonzero"/></g></g></g></g></svg>