<svg xmlns="http://www.w3.org/2000/svg" xmlns:xlink="http://www.w3.org/1999/xlink" width="1366" zoomAndPan="magnify" viewBox="0 0 1024.5 576" height="768" preserveAspectRatio="xMidYMid meet" version="1.0"><defs><clipPath id="d506958933"><path d="M 594 209.351562 L 643.671875 209.351562 L 643.671875 307.554688 L 594 307.554688 Z M 594 209.351562 " clip-rule="nonzero"/></clipPath><clipPath id="27cbdb1062"><path d="M 551.464844 215 L 638 215 L 638 302 L 551.464844 302 Z M 551.464844 215 " clip-rule="nonzero"/></clipPath><clipPath id="ba5896d1b2"><path d="M 557.015625 217.917969 L 637.976562 217.917969 L 637.976562 298.875 L 557.015625 298.875 Z M 557.015625 217.917969 " clip-rule="nonzero"/></clipPath></defs><path fill="#ffe2c2" d="M 636.820312 258.5625 C 636.820312 281.847656 617.941406 300.722656 594.65625 300.722656 L 594.65625 216.402344 C 617.941406 216.402344 636.820312 235.277344 636.820312 258.5625 Z M 636.820312 258.5625 " fill-opacity="1" fill-rule="nonzero"/><g clip-path="url(#d506958933)"><path fill="#191919" d="M 594.660156 307.773438 L 594.660156 305.710938 C 620.65625 305.710938 641.804688 284.558594 641.804688 258.5625 C 641.804688 232.566406 620.65625 211.417969 594.660156 211.417969 L 594.660156 209.355469 C 601.300781 209.355469 607.746094 210.65625 613.8125 213.222656 C 619.671875 215.699219 624.9375 219.246094 629.453125 223.765625 C 633.972656 228.285156 637.523438 233.546875 640 239.410156 C 642.566406 245.476562 643.867188 251.921875 643.867188 258.5625 C 643.867188 265.207031 642.566406 271.652344 640 277.71875 C 637.523438 283.578125 633.972656 288.839844 629.453125 293.359375 C 624.9375 297.878906 619.671875 301.425781 613.8125 303.90625 C 607.746094 306.472656 601.300781 307.773438 594.660156 307.773438 Z M 594.660156 307.773438 " fill-opacity="1" fill-rule="nonzero"/></g><g clip-path="url(#27cbdb1062)"><path fill="#191919" d="M 594.660156 301.757812 C 588.828125 301.757812 583.171875 300.613281 577.84375 298.363281 C 572.703125 296.1875 568.082031 293.070312 564.117188 289.105469 C 560.148438 285.140625 557.035156 280.519531 554.859375 275.375 C 552.605469 270.050781 551.464844 264.394531 551.464844 258.5625 C 551.464844 252.734375 552.605469 247.078125 554.859375 241.75 C 557.035156 236.605469 560.148438 231.988281 564.117188 228.023438 C 568.082031 224.054688 572.703125 220.941406 577.84375 218.765625 C 583.171875 216.511719 588.828125 215.371094 594.660156 215.371094 C 600.488281 215.371094 606.144531 216.511719 611.472656 218.765625 C 616.613281 220.941406 621.234375 224.054688 625.199219 228.023438 C 629.167969 231.988281 632.28125 236.605469 634.457031 241.75 C 636.710938 247.078125 637.851562 252.734375 637.851562 258.5625 C 637.851562 264.394531 636.710938 270.050781 634.457031 275.375 C 632.28125 280.519531 629.167969 285.140625 625.199219 289.105469 C 621.234375 293.074219 616.613281 296.1875 611.472656 298.363281 C 606.144531 300.613281 600.488281 301.757812 594.660156 301.757812 Z M 594.660156 217.433594 C 571.980469 217.433594 553.527344 235.882812 553.527344 258.5625 C 553.527344 281.242188 571.980469 299.691406 594.660156 299.691406 C 617.335938 299.691406 635.789062 281.242188 635.789062 258.5625 C 635.789062 235.882812 617.335938 217.433594 594.660156 217.433594 Z M 594.660156 217.433594 " fill-opacity="1" fill-rule="nonzero"/></g><path fill="#191919" d="M 593.625 221.773438 L 595.691406 221.773438 L 595.691406 228.480469 L 593.625 228.480469 Z M 593.625 221.773438 " fill-opacity="1" fill-rule="nonzero"/><path fill="#191919" d="M 593.625 288.648438 L 595.691406 288.648438 L 595.691406 295.351562 L 593.625 295.351562 Z M 593.625 288.648438 " fill-opacity="1" fill-rule="nonzero"/><path fill="#191919" d="M 575.371094 227.21875 L 577.15625 226.1875 L 580.507812 231.992188 L 578.722656 233.027344 Z M 575.371094 227.21875 " fill-opacity="1" fill-rule="nonzero"/><path fill="#191919" d="M 608.808594 285.132812 L 610.59375 284.101562 L 613.945312 289.910156 L 612.160156 290.941406 Z M 608.808594 285.132812 " fill-opacity="1" fill-rule="nonzero"/><path fill="#191919" d="M 562.28125 241.0625 L 563.3125 239.273438 L 569.121094 242.628906 L 568.089844 244.414062 Z M 562.28125 241.0625 " fill-opacity="1" fill-rule="nonzero"/><path fill="#191919" d="M 620.195312 274.5 L 621.226562 272.710938 L 627.035156 276.066406 L 626.003906 277.851562 Z M 620.195312 274.5 " fill-opacity="1" fill-rule="nonzero"/><path fill="#191919" d="M 557.867188 257.53125 L 564.574219 257.53125 L 564.574219 259.59375 L 557.867188 259.59375 Z M 557.867188 257.53125 " fill-opacity="1" fill-rule="nonzero"/><path fill="#191919" d="M 624.742188 257.53125 L 631.449219 257.53125 L 631.449219 259.59375 L 624.742188 259.59375 Z M 624.742188 257.53125 " fill-opacity="1" fill-rule="nonzero"/><path fill="#191919" d="M 562.28125 276.0625 L 568.089844 272.710938 L 569.121094 274.496094 L 563.316406 277.851562 Z M 562.28125 276.0625 " fill-opacity="1" fill-rule="nonzero"/><path fill="#191919" d="M 620.195312 242.625 L 626.003906 239.273438 L 627.035156 241.058594 L 621.226562 244.414062 Z M 620.195312 242.625 " fill-opacity="1" fill-rule="nonzero"/><path fill="#191919" d="M 575.371094 289.90625 L 578.722656 284.097656 L 580.511719 285.132812 L 577.15625 290.9375 Z M 575.371094 289.90625 " fill-opacity="1" fill-rule="nonzero"/><path fill="#191919" d="M 608.804688 231.992188 L 612.160156 226.1875 L 613.945312 227.21875 L 610.59375 233.023438 Z M 608.804688 231.992188 " fill-opacity="1" fill-rule="nonzero"/><path fill="#191919" d="M 577.8125 244 L 577.8125 239.863281 L 592.667969 239.863281 L 592.667969 243.496094 L 587.089844 248.792969 C 587.84375 248.917969 588.574219 249.117188 589.289062 249.390625 C 590.003906 249.660156 590.636719 250.042969 591.183594 250.535156 C 591.730469 251.023438 592.171875 251.628906 592.507812 252.351562 C 592.84375 253.070312 593.011719 253.945312 593.011719 254.96875 C 593.011719 255.992188 592.828125 256.972656 592.460938 257.851562 C 592.09375 258.730469 591.566406 259.492188 590.882812 260.140625 C 590.199219 260.789062 589.367188 261.289062 588.378906 261.644531 C 587.394531 262 586.296875 262.175781 585.082031 262.175781 C 583.097656 262.175781 581.410156 261.824219 580.023438 261.121094 C 578.632812 260.414062 577.46875 259.492188 576.527344 258.355469 L 579.851562 255.1875 C 580.601562 256.042969 581.390625 256.699219 582.214844 257.148438 C 583.042969 257.597656 584.019531 257.820312 585.148438 257.820312 C 586.066406 257.820312 586.8125 257.582031 587.386719 257.101562 C 587.960938 256.621094 588.25 255.964844 588.25 255.128906 C 588.25 254.214844 587.878906 253.515625 587.136719 253.035156 C 586.394531 252.554688 585.335938 252.316406 583.957031 252.316406 L 581.949219 252.316406 L 581.199219 249.253906 L 586.429688 244 Z M 577.8125 244 " fill-opacity="1" fill-rule="nonzero"/><path fill="#191919" d="M 613.402344 255.28125 C 612.929688 256.660156 612.265625 257.863281 611.410156 258.886719 C 610.554688 259.910156 609.523438 260.714844 608.324219 261.300781 C 607.121094 261.882812 605.789062 262.175781 604.328125 262.175781 C 602.863281 262.175781 601.53125 261.890625 600.332031 261.316406 C 599.128906 260.742188 598.105469 259.941406 597.261719 258.917969 C 596.414062 257.894531 595.761719 256.699219 595.300781 255.328125 C 594.839844 253.960938 594.613281 252.472656 594.613281 250.863281 C 594.613281 249.253906 594.847656 247.785156 595.316406 246.398438 C 595.785156 245.007812 596.449219 243.800781 597.308594 242.777344 C 598.164062 241.753906 599.191406 240.949219 600.394531 240.363281 C 601.59375 239.777344 602.925781 239.484375 604.390625 239.484375 C 605.851562 239.484375 607.183594 239.773438 608.386719 240.347656 C 609.585938 240.921875 610.609375 241.722656 611.457031 242.746094 C 612.304688 243.769531 612.957031 244.96875 613.417969 246.347656 C 613.875 247.730469 614.105469 249.210938 614.105469 250.800781 C 614.105469 252.386719 613.871094 253.902344 613.402344 255.28125 Z M 608.808594 248.074219 C 608.578125 247.214844 608.253906 246.476562 607.835938 245.847656 C 607.417969 245.222656 606.914062 244.730469 606.316406 244.375 C 605.722656 244.019531 605.058594 243.84375 604.328125 243.84375 C 603.597656 243.84375 602.9375 244.015625 602.351562 244.359375 C 601.769531 244.703125 601.265625 245.183594 600.847656 245.800781 C 600.429688 246.417969 600.113281 247.152344 599.894531 248.011719 C 599.671875 248.867188 599.5625 249.796875 599.5625 250.800781 C 599.5625 251.804688 599.679688 252.734375 599.910156 253.589844 C 600.136719 254.445312 600.460938 255.1875 600.878906 255.816406 C 601.296875 256.441406 601.804688 256.933594 602.398438 257.289062 C 602.996094 257.644531 603.660156 257.820312 604.390625 257.820312 C 605.121094 257.820312 605.78125 257.648438 606.363281 257.304688 C 606.949219 256.957031 607.449219 256.472656 607.867188 255.847656 C 608.285156 255.21875 608.605469 254.484375 608.824219 253.636719 C 609.042969 252.789062 609.152344 251.867188 609.152344 250.863281 C 609.152344 249.859375 609.039062 248.929688 608.808594 248.074219 Z M 608.808594 248.074219 " fill-opacity="1" fill-rule="nonzero"/><path fill="#191919" d="M 590.921875 276.132812 L 590.921875 271.355469 C 590.921875 270.78125 590.796875 270.347656 590.550781 270.054688 C 590.304688 269.761719 589.953125 269.617188 589.496094 269.617188 C 589.035156 269.617188 588.675781 269.761719 588.414062 270.054688 C 588.152344 270.347656 588.023438 270.78125 588.023438 271.355469 L 588.023438 276.132812 L 585.589844 276.132812 L 585.589844 271.355469 C 585.589844 270.78125 585.464844 270.347656 585.222656 270.054688 C 584.976562 269.761719 584.625 269.617188 584.164062 269.617188 C 583.707031 269.617188 583.34375 269.761719 583.082031 270.054688 C 582.820312 270.347656 582.691406 270.78125 582.691406 271.355469 L 582.691406 276.132812 L 580.257812 276.132812 L 580.257812 267.550781 L 582.691406 267.550781 L 582.691406 268.777344 C 582.828125 268.59375 582.980469 268.417969 583.148438 268.253906 C 583.3125 268.085938 583.496094 267.9375 583.699219 267.808594 C 583.902344 267.679688 584.128906 267.578125 584.378906 267.503906 C 584.632812 267.425781 584.910156 267.390625 585.222656 267.390625 C 585.785156 267.390625 586.273438 267.507812 586.6875 267.746094 C 587.097656 267.980469 587.414062 268.320312 587.636719 268.761719 C 588.011719 268.308594 588.429688 267.96875 588.886719 267.734375 C 589.347656 267.503906 589.867188 267.390625 590.457031 267.390625 C 591.363281 267.390625 592.074219 267.65625 592.585938 268.191406 C 593.097656 268.722656 593.355469 269.507812 593.355469 270.542969 L 593.355469 276.132812 Z M 590.921875 276.132812 " fill-opacity="1" fill-rule="nonzero"/><path fill="#191919" d="M 596.15625 266.605469 L 596.15625 264.445312 L 598.71875 264.445312 L 598.71875 266.605469 Z M 596.21875 276.132812 L 596.21875 267.550781 L 598.652344 267.550781 L 598.652344 276.132812 Z M 596.21875 276.132812 " fill-opacity="1" fill-rule="nonzero"/><path fill="#191919" d="M 607.007812 276.132812 L 607.007812 271.355469 C 607.007812 270.78125 606.882812 270.347656 606.625 270.054688 C 606.371094 269.761719 606.007812 269.617188 605.535156 269.617188 C 605.066406 269.617188 604.695312 269.761719 604.425781 270.054688 C 604.152344 270.347656 604.015625 270.78125 604.015625 271.355469 L 604.015625 276.132812 L 601.582031 276.132812 L 601.582031 267.550781 L 604.015625 267.550781 L 604.015625 268.777344 C 604.152344 268.59375 604.304688 268.417969 604.472656 268.253906 C 604.636719 268.085938 604.820312 267.9375 605.023438 267.808594 C 605.226562 267.679688 605.449219 267.578125 605.695312 267.503906 C 605.941406 267.425781 606.21875 267.390625 606.527344 267.390625 C 607.457031 267.390625 608.175781 267.671875 608.683594 268.238281 C 609.191406 268.804688 609.441406 269.582031 609.441406 270.574219 L 609.441406 276.132812 Z M 607.007812 276.132812 " fill-opacity="1" fill-rule="nonzero"/><g clip-path="url(#ba5896d1b2)"><path fill="#000000" d="M 597.496094 298.875 C 575.179688 298.875 557.015625 280.710938 557.015625 258.394531 C 557.015625 236.082031 575.179688 217.917969 597.496094 217.917969 C 619.808594 217.917969 637.976562 236.082031 637.976562 258.394531 C 637.976562 280.710938 619.808594 298.875 597.496094 298.875 Z M 597.496094 218.515625 C 575.5 218.515625 557.613281 236.402344 557.613281 258.394531 C 557.613281 280.390625 575.5 298.277344 597.496094 298.277344 C 619.488281 298.277344 637.378906 280.390625 637.378906 258.394531 C 637.378906 236.402344 619.488281 218.515625 597.496094 218.515625 Z M 597.496094 218.515625 " fill-opacity="1" fill-rule="nonzero"/></g></svg>